%TF.GenerationSoftware,KiCad,Pcbnew,(5.1.10)-1*%
%TF.CreationDate,2021-12-29T01:01:28-06:00*%
%TF.ProjectId,VEX Solenoid Driver,56455820-536f-46c6-956e-6f6964204472,rev?*%
%TF.SameCoordinates,Original*%
%TF.FileFunction,Legend,Top*%
%TF.FilePolarity,Positive*%
%FSLAX46Y46*%
G04 Gerber Fmt 4.6, Leading zero omitted, Abs format (unit mm)*
G04 Created by KiCad (PCBNEW (5.1.10)-1) date 2021-12-29 01:01:28*
%MOMM*%
%LPD*%
G01*
G04 APERTURE LIST*
%ADD10C,0.153000*%
%ADD11C,0.150000*%
%ADD12C,0.010000*%
%ADD13C,0.120000*%
G04 APERTURE END LIST*
D10*
X108561904Y-101100000D02*
X108657142Y-101147619D01*
X108800000Y-101147619D01*
X108942857Y-101100000D01*
X109038095Y-101004761D01*
X109085714Y-100909523D01*
X109133333Y-100719047D01*
X109133333Y-100576190D01*
X109085714Y-100385714D01*
X109038095Y-100290476D01*
X108942857Y-100195238D01*
X108800000Y-100147619D01*
X108704761Y-100147619D01*
X108561904Y-100195238D01*
X108514285Y-100242857D01*
X108514285Y-100576190D01*
X108704761Y-100576190D01*
X108085714Y-100147619D02*
X108085714Y-101147619D01*
X107514285Y-100147619D01*
X107514285Y-101147619D01*
X107038095Y-100147619D02*
X107038095Y-101147619D01*
X106800000Y-101147619D01*
X106657142Y-101100000D01*
X106561904Y-101004761D01*
X106514285Y-100909523D01*
X106466666Y-100719047D01*
X106466666Y-100576190D01*
X106514285Y-100385714D01*
X106561904Y-100290476D01*
X106657142Y-100195238D01*
X106800000Y-100147619D01*
X107038095Y-100147619D01*
D11*
X104438095Y-112250000D02*
X104342857Y-112202380D01*
X104200000Y-112202380D01*
X104057142Y-112250000D01*
X103961904Y-112345238D01*
X103914285Y-112440476D01*
X103866666Y-112630952D01*
X103866666Y-112773809D01*
X103914285Y-112964285D01*
X103961904Y-113059523D01*
X104057142Y-113154761D01*
X104200000Y-113202380D01*
X104295238Y-113202380D01*
X104438095Y-113154761D01*
X104485714Y-113107142D01*
X104485714Y-112773809D01*
X104295238Y-112773809D01*
X104914285Y-113202380D02*
X104914285Y-112202380D01*
X105485714Y-113202380D01*
X105485714Y-112202380D01*
X105961904Y-113202380D02*
X105961904Y-112202380D01*
X106200000Y-112202380D01*
X106342857Y-112250000D01*
X106438095Y-112345238D01*
X106485714Y-112440476D01*
X106533333Y-112630952D01*
X106533333Y-112773809D01*
X106485714Y-112964285D01*
X106438095Y-113059523D01*
X106342857Y-113154761D01*
X106200000Y-113202380D01*
X105961904Y-113202380D01*
X102169047Y-112821428D02*
X102930952Y-112821428D01*
X102550000Y-113202380D02*
X102550000Y-112440476D01*
X102292380Y-106847523D02*
X101292380Y-106847523D01*
X102006666Y-106514190D01*
X101292380Y-106180857D01*
X102292380Y-106180857D01*
X102292380Y-105180857D02*
X102292380Y-105752285D01*
X102292380Y-105466571D02*
X101292380Y-105466571D01*
X101435238Y-105561809D01*
X101530476Y-105657047D01*
X101578095Y-105752285D01*
X102930952Y-100678571D02*
X102169047Y-100678571D01*
X102550000Y-100297619D02*
X102550000Y-101059523D01*
X105427714Y-100245238D02*
X105284857Y-100197619D01*
X105046761Y-100197619D01*
X104951523Y-100245238D01*
X104903904Y-100292857D01*
X104856285Y-100388095D01*
X104856285Y-100483333D01*
X104903904Y-100578571D01*
X104951523Y-100626190D01*
X105046761Y-100673809D01*
X105237238Y-100721428D01*
X105332476Y-100769047D01*
X105380095Y-100816666D01*
X105427714Y-100911904D01*
X105427714Y-101007142D01*
X105380095Y-101102380D01*
X105332476Y-101150000D01*
X105237238Y-101197619D01*
X104999142Y-101197619D01*
X104856285Y-101150000D01*
D12*
%TO.C,G\u002A\u002A\u002A*%
G36*
X109468629Y-109671004D02*
G01*
X109468519Y-109819276D01*
X109468324Y-109968511D01*
X109468048Y-110117328D01*
X109467691Y-110264343D01*
X109467255Y-110408174D01*
X109466742Y-110547439D01*
X109466155Y-110680755D01*
X109465494Y-110806739D01*
X109464761Y-110924008D01*
X109463959Y-111031181D01*
X109463089Y-111126875D01*
X109462152Y-111209706D01*
X109461152Y-111278293D01*
X109460089Y-111331253D01*
X109458966Y-111367203D01*
X109457783Y-111384761D01*
X109457757Y-111384928D01*
X109427007Y-111515411D01*
X109378661Y-111640954D01*
X109314416Y-111758071D01*
X109235971Y-111863278D01*
X109211402Y-111890434D01*
X109116259Y-111978004D01*
X109013702Y-112047901D01*
X108905148Y-112099639D01*
X108792019Y-112132731D01*
X108675731Y-112146690D01*
X108557705Y-112141031D01*
X108505952Y-112132276D01*
X108382648Y-112096794D01*
X108268745Y-112043521D01*
X108164992Y-111973052D01*
X108072136Y-111885982D01*
X107990927Y-111782907D01*
X107925182Y-111670572D01*
X107876517Y-111573824D01*
X107709105Y-111695972D01*
X107618785Y-111761769D01*
X107531172Y-111825398D01*
X107447760Y-111885789D01*
X107370043Y-111941869D01*
X107299516Y-111992567D01*
X107237673Y-112036812D01*
X107186008Y-112073533D01*
X107146016Y-112101657D01*
X107119191Y-112120114D01*
X107107027Y-112127832D01*
X107106529Y-112128000D01*
X107105187Y-112118252D01*
X107103982Y-112090657D01*
X107102955Y-112047689D01*
X107102147Y-111991821D01*
X107101602Y-111925525D01*
X107101359Y-111851275D01*
X107101356Y-111820660D01*
X107101591Y-111513320D01*
X107220736Y-111432898D01*
X107312437Y-111371054D01*
X107407604Y-111306969D01*
X107504773Y-111241623D01*
X107602476Y-111175996D01*
X107699248Y-111111069D01*
X107793624Y-111047821D01*
X107884137Y-110987232D01*
X107969322Y-110930282D01*
X108047713Y-110877952D01*
X108117844Y-110831222D01*
X108178249Y-110791071D01*
X108227463Y-110758480D01*
X108264019Y-110734428D01*
X108286451Y-110719896D01*
X108293334Y-110715760D01*
X108294724Y-110725504D01*
X108296204Y-110753073D01*
X108297701Y-110795975D01*
X108299147Y-110851715D01*
X108300469Y-110917799D01*
X108301597Y-110991734D01*
X108301922Y-111018020D01*
X108303051Y-111109394D01*
X108304409Y-111183086D01*
X108306470Y-111241733D01*
X108309708Y-111287972D01*
X108314600Y-111324440D01*
X108321621Y-111353772D01*
X108331244Y-111378607D01*
X108343947Y-111401581D01*
X108360203Y-111425329D01*
X108380121Y-111452005D01*
X108432362Y-111505559D01*
X108494099Y-111543317D01*
X108562049Y-111565280D01*
X108632924Y-111571448D01*
X108703439Y-111561821D01*
X108770309Y-111536398D01*
X108830248Y-111495180D01*
X108870120Y-111452005D01*
X108889595Y-111426017D01*
X108905359Y-111403280D01*
X108917829Y-111381324D01*
X108927419Y-111357680D01*
X108934545Y-111329879D01*
X108939624Y-111295453D01*
X108943071Y-111251932D01*
X108945302Y-111196847D01*
X108946732Y-111127729D01*
X108947778Y-111042109D01*
X108948336Y-110987540D01*
X108949015Y-110907628D01*
X108949378Y-110834608D01*
X108949436Y-110770856D01*
X108949195Y-110718750D01*
X108948664Y-110680664D01*
X108947851Y-110658977D01*
X108947176Y-110654800D01*
X108935742Y-110657937D01*
X108911981Y-110665883D01*
X108898178Y-110670761D01*
X108784927Y-110701235D01*
X108667857Y-110713594D01*
X108551618Y-110707493D01*
X108505952Y-110699716D01*
X108382648Y-110664234D01*
X108268745Y-110610961D01*
X108164992Y-110540492D01*
X108072136Y-110453422D01*
X107990927Y-110350347D01*
X107925182Y-110238012D01*
X107876517Y-110141264D01*
X107709105Y-110263412D01*
X107618785Y-110329209D01*
X107531172Y-110392838D01*
X107447760Y-110453229D01*
X107370043Y-110509309D01*
X107299516Y-110560007D01*
X107237673Y-110604252D01*
X107186008Y-110640973D01*
X107146016Y-110669097D01*
X107119191Y-110687554D01*
X107107027Y-110695272D01*
X107106529Y-110695440D01*
X107105187Y-110685692D01*
X107103982Y-110658097D01*
X107102955Y-110615129D01*
X107102147Y-110559261D01*
X107101602Y-110492965D01*
X107101359Y-110418715D01*
X107101356Y-110388100D01*
X107101591Y-110080760D01*
X107220736Y-110000338D01*
X107312437Y-109938494D01*
X107407604Y-109874409D01*
X107504773Y-109809063D01*
X107602476Y-109743436D01*
X107699248Y-109678509D01*
X107793624Y-109615261D01*
X107884137Y-109554672D01*
X107969322Y-109497722D01*
X108047713Y-109445392D01*
X108117844Y-109398662D01*
X108178249Y-109358511D01*
X108227463Y-109325920D01*
X108264019Y-109301868D01*
X108286451Y-109287336D01*
X108293334Y-109283199D01*
X108294724Y-109292944D01*
X108296204Y-109320513D01*
X108297701Y-109363415D01*
X108299147Y-109419155D01*
X108300469Y-109485239D01*
X108301597Y-109559174D01*
X108301922Y-109585460D01*
X108303051Y-109676834D01*
X108304409Y-109750526D01*
X108306470Y-109809173D01*
X108309708Y-109855412D01*
X108314600Y-109891880D01*
X108321621Y-109921212D01*
X108331244Y-109946047D01*
X108343947Y-109969021D01*
X108360203Y-109992769D01*
X108380121Y-110019445D01*
X108432362Y-110072999D01*
X108494099Y-110110757D01*
X108562049Y-110132720D01*
X108632924Y-110138888D01*
X108703439Y-110129261D01*
X108770309Y-110103838D01*
X108830248Y-110062620D01*
X108870120Y-110019445D01*
X108886058Y-109998544D01*
X108899563Y-109980270D01*
X108910852Y-109962814D01*
X108920139Y-109944367D01*
X108927643Y-109923120D01*
X108933580Y-109897262D01*
X108938167Y-109864986D01*
X108941619Y-109824480D01*
X108944155Y-109773937D01*
X108945989Y-109711547D01*
X108947340Y-109635501D01*
X108948423Y-109543988D01*
X108949455Y-109435201D01*
X108950240Y-109350227D01*
X108955320Y-108812735D01*
X109187670Y-108652207D01*
X109249188Y-108609575D01*
X109305849Y-108570060D01*
X109355308Y-108535318D01*
X109395220Y-108507005D01*
X109423240Y-108486775D01*
X109437022Y-108476284D01*
X109437390Y-108475959D01*
X109453720Y-108463567D01*
X109461581Y-108460239D01*
X109462729Y-108470169D01*
X109463769Y-108499035D01*
X109464704Y-108545457D01*
X109465535Y-108608050D01*
X109466263Y-108685432D01*
X109466891Y-108776222D01*
X109467421Y-108879035D01*
X109467854Y-108992491D01*
X109468191Y-109115205D01*
X109468436Y-109245797D01*
X109468589Y-109382882D01*
X109468653Y-109525078D01*
X109468629Y-109671004D01*
G37*
X109468629Y-109671004D02*
X109468519Y-109819276D01*
X109468324Y-109968511D01*
X109468048Y-110117328D01*
X109467691Y-110264343D01*
X109467255Y-110408174D01*
X109466742Y-110547439D01*
X109466155Y-110680755D01*
X109465494Y-110806739D01*
X109464761Y-110924008D01*
X109463959Y-111031181D01*
X109463089Y-111126875D01*
X109462152Y-111209706D01*
X109461152Y-111278293D01*
X109460089Y-111331253D01*
X109458966Y-111367203D01*
X109457783Y-111384761D01*
X109457757Y-111384928D01*
X109427007Y-111515411D01*
X109378661Y-111640954D01*
X109314416Y-111758071D01*
X109235971Y-111863278D01*
X109211402Y-111890434D01*
X109116259Y-111978004D01*
X109013702Y-112047901D01*
X108905148Y-112099639D01*
X108792019Y-112132731D01*
X108675731Y-112146690D01*
X108557705Y-112141031D01*
X108505952Y-112132276D01*
X108382648Y-112096794D01*
X108268745Y-112043521D01*
X108164992Y-111973052D01*
X108072136Y-111885982D01*
X107990927Y-111782907D01*
X107925182Y-111670572D01*
X107876517Y-111573824D01*
X107709105Y-111695972D01*
X107618785Y-111761769D01*
X107531172Y-111825398D01*
X107447760Y-111885789D01*
X107370043Y-111941869D01*
X107299516Y-111992567D01*
X107237673Y-112036812D01*
X107186008Y-112073533D01*
X107146016Y-112101657D01*
X107119191Y-112120114D01*
X107107027Y-112127832D01*
X107106529Y-112128000D01*
X107105187Y-112118252D01*
X107103982Y-112090657D01*
X107102955Y-112047689D01*
X107102147Y-111991821D01*
X107101602Y-111925525D01*
X107101359Y-111851275D01*
X107101356Y-111820660D01*
X107101591Y-111513320D01*
X107220736Y-111432898D01*
X107312437Y-111371054D01*
X107407604Y-111306969D01*
X107504773Y-111241623D01*
X107602476Y-111175996D01*
X107699248Y-111111069D01*
X107793624Y-111047821D01*
X107884137Y-110987232D01*
X107969322Y-110930282D01*
X108047713Y-110877952D01*
X108117844Y-110831222D01*
X108178249Y-110791071D01*
X108227463Y-110758480D01*
X108264019Y-110734428D01*
X108286451Y-110719896D01*
X108293334Y-110715760D01*
X108294724Y-110725504D01*
X108296204Y-110753073D01*
X108297701Y-110795975D01*
X108299147Y-110851715D01*
X108300469Y-110917799D01*
X108301597Y-110991734D01*
X108301922Y-111018020D01*
X108303051Y-111109394D01*
X108304409Y-111183086D01*
X108306470Y-111241733D01*
X108309708Y-111287972D01*
X108314600Y-111324440D01*
X108321621Y-111353772D01*
X108331244Y-111378607D01*
X108343947Y-111401581D01*
X108360203Y-111425329D01*
X108380121Y-111452005D01*
X108432362Y-111505559D01*
X108494099Y-111543317D01*
X108562049Y-111565280D01*
X108632924Y-111571448D01*
X108703439Y-111561821D01*
X108770309Y-111536398D01*
X108830248Y-111495180D01*
X108870120Y-111452005D01*
X108889595Y-111426017D01*
X108905359Y-111403280D01*
X108917829Y-111381324D01*
X108927419Y-111357680D01*
X108934545Y-111329879D01*
X108939624Y-111295453D01*
X108943071Y-111251932D01*
X108945302Y-111196847D01*
X108946732Y-111127729D01*
X108947778Y-111042109D01*
X108948336Y-110987540D01*
X108949015Y-110907628D01*
X108949378Y-110834608D01*
X108949436Y-110770856D01*
X108949195Y-110718750D01*
X108948664Y-110680664D01*
X108947851Y-110658977D01*
X108947176Y-110654800D01*
X108935742Y-110657937D01*
X108911981Y-110665883D01*
X108898178Y-110670761D01*
X108784927Y-110701235D01*
X108667857Y-110713594D01*
X108551618Y-110707493D01*
X108505952Y-110699716D01*
X108382648Y-110664234D01*
X108268745Y-110610961D01*
X108164992Y-110540492D01*
X108072136Y-110453422D01*
X107990927Y-110350347D01*
X107925182Y-110238012D01*
X107876517Y-110141264D01*
X107709105Y-110263412D01*
X107618785Y-110329209D01*
X107531172Y-110392838D01*
X107447760Y-110453229D01*
X107370043Y-110509309D01*
X107299516Y-110560007D01*
X107237673Y-110604252D01*
X107186008Y-110640973D01*
X107146016Y-110669097D01*
X107119191Y-110687554D01*
X107107027Y-110695272D01*
X107106529Y-110695440D01*
X107105187Y-110685692D01*
X107103982Y-110658097D01*
X107102955Y-110615129D01*
X107102147Y-110559261D01*
X107101602Y-110492965D01*
X107101359Y-110418715D01*
X107101356Y-110388100D01*
X107101591Y-110080760D01*
X107220736Y-110000338D01*
X107312437Y-109938494D01*
X107407604Y-109874409D01*
X107504773Y-109809063D01*
X107602476Y-109743436D01*
X107699248Y-109678509D01*
X107793624Y-109615261D01*
X107884137Y-109554672D01*
X107969322Y-109497722D01*
X108047713Y-109445392D01*
X108117844Y-109398662D01*
X108178249Y-109358511D01*
X108227463Y-109325920D01*
X108264019Y-109301868D01*
X108286451Y-109287336D01*
X108293334Y-109283199D01*
X108294724Y-109292944D01*
X108296204Y-109320513D01*
X108297701Y-109363415D01*
X108299147Y-109419155D01*
X108300469Y-109485239D01*
X108301597Y-109559174D01*
X108301922Y-109585460D01*
X108303051Y-109676834D01*
X108304409Y-109750526D01*
X108306470Y-109809173D01*
X108309708Y-109855412D01*
X108314600Y-109891880D01*
X108321621Y-109921212D01*
X108331244Y-109946047D01*
X108343947Y-109969021D01*
X108360203Y-109992769D01*
X108380121Y-110019445D01*
X108432362Y-110072999D01*
X108494099Y-110110757D01*
X108562049Y-110132720D01*
X108632924Y-110138888D01*
X108703439Y-110129261D01*
X108770309Y-110103838D01*
X108830248Y-110062620D01*
X108870120Y-110019445D01*
X108886058Y-109998544D01*
X108899563Y-109980270D01*
X108910852Y-109962814D01*
X108920139Y-109944367D01*
X108927643Y-109923120D01*
X108933580Y-109897262D01*
X108938167Y-109864986D01*
X108941619Y-109824480D01*
X108944155Y-109773937D01*
X108945989Y-109711547D01*
X108947340Y-109635501D01*
X108948423Y-109543988D01*
X108949455Y-109435201D01*
X108950240Y-109350227D01*
X108955320Y-108812735D01*
X109187670Y-108652207D01*
X109249188Y-108609575D01*
X109305849Y-108570060D01*
X109355308Y-108535318D01*
X109395220Y-108507005D01*
X109423240Y-108486775D01*
X109437022Y-108476284D01*
X109437390Y-108475959D01*
X109453720Y-108463567D01*
X109461581Y-108460239D01*
X109462729Y-108470169D01*
X109463769Y-108499035D01*
X109464704Y-108545457D01*
X109465535Y-108608050D01*
X109466263Y-108685432D01*
X109466891Y-108776222D01*
X109467421Y-108879035D01*
X109467854Y-108992491D01*
X109468191Y-109115205D01*
X109468436Y-109245797D01*
X109468589Y-109382882D01*
X109468653Y-109525078D01*
X109468629Y-109671004D01*
D13*
%TO.C,R1*%
X107671064Y-106519000D02*
X107216936Y-106519000D01*
X107671064Y-105049000D02*
X107216936Y-105049000D01*
%TO.C,MOSFET1*%
X103963859Y-105668500D02*
X103780141Y-105668500D01*
X102745000Y-106318846D02*
X102745000Y-107172500D01*
X102745000Y-107172500D02*
X103313860Y-107172500D01*
X104999000Y-107172500D02*
X104999000Y-106318846D01*
X104430140Y-107172500D02*
X104999000Y-107172500D01*
%TO.C,J2*%
X103872000Y-109280000D02*
X103872000Y-111940000D01*
X103872000Y-109280000D02*
X101272000Y-109280000D01*
X101272000Y-109280000D02*
X101272000Y-111940000D01*
X103872000Y-111940000D02*
X101272000Y-111940000D01*
X106472000Y-111940000D02*
X105142000Y-111940000D01*
X106472000Y-110610000D02*
X106472000Y-111940000D01*
%TO.C,J1*%
X103872000Y-104066000D02*
X103872000Y-101406000D01*
X103872000Y-104066000D02*
X109012000Y-104066000D01*
X109012000Y-104066000D02*
X109012000Y-101406000D01*
X103872000Y-101406000D02*
X109012000Y-101406000D01*
X101272000Y-101406000D02*
X102602000Y-101406000D01*
X101272000Y-102736000D02*
X101272000Y-101406000D01*
%TO.C,D1*%
X106966000Y-108637000D02*
X106966000Y-107437000D01*
X106966000Y-107437000D02*
X106966000Y-107437000D01*
X105566000Y-108437000D02*
X105566000Y-107837000D01*
%TO.C,R1*%
D11*
X108023333Y-107886380D02*
X107690000Y-107410190D01*
X107451904Y-107886380D02*
X107451904Y-106886380D01*
X107832857Y-106886380D01*
X107928095Y-106934000D01*
X107975714Y-106981619D01*
X108023333Y-107076857D01*
X108023333Y-107219714D01*
X107975714Y-107314952D01*
X107928095Y-107362571D01*
X107832857Y-107410190D01*
X107451904Y-107410190D01*
X108975714Y-107886380D02*
X108404285Y-107886380D01*
X108690000Y-107886380D02*
X108690000Y-106886380D01*
X108594761Y-107029238D01*
X108499523Y-107124476D01*
X108404285Y-107172095D01*
%TO.C,D1*%
X105352380Y-108938095D02*
X104352380Y-108938095D01*
X104352380Y-108700000D01*
X104400000Y-108557142D01*
X104495238Y-108461904D01*
X104590476Y-108414285D01*
X104780952Y-108366666D01*
X104923809Y-108366666D01*
X105114285Y-108414285D01*
X105209523Y-108461904D01*
X105304761Y-108557142D01*
X105352380Y-108700000D01*
X105352380Y-108938095D01*
X105352380Y-107414285D02*
X105352380Y-107985714D01*
X105352380Y-107700000D02*
X104352380Y-107700000D01*
X104495238Y-107795238D01*
X104590476Y-107890476D01*
X104638095Y-107985714D01*
%TD*%
M02*
