%TF.GenerationSoftware,KiCad,Pcbnew,(6.99.0-1698-gc3bed8f6ee)*%
%TF.CreationDate,2022-10-05T21:42:40-05:00*%
%TF.ProjectId,Pneumatics Control Unit V1,506e6575-6d61-4746-9963-7320436f6e74,rev?*%
%TF.SameCoordinates,Original*%
%TF.FileFunction,Soldermask,Top*%
%TF.FilePolarity,Negative*%
%FSLAX46Y46*%
G04 Gerber Fmt 4.6, Leading zero omitted, Abs format (unit mm)*
G04 Created by KiCad (PCBNEW (6.99.0-1698-gc3bed8f6ee)) date 2022-10-05 21:42:40*
%MOMM*%
%LPD*%
G01*
G04 APERTURE LIST*
G04 Aperture macros list*
%AMRoundRect*
0 Rectangle with rounded corners*
0 $1 Rounding radius*
0 $2 $3 $4 $5 $6 $7 $8 $9 X,Y pos of 4 corners*
0 Add a 4 corners polygon primitive as box body*
4,1,4,$2,$3,$4,$5,$6,$7,$8,$9,$2,$3,0*
0 Add four circle primitives for the rounded corners*
1,1,$1+$1,$2,$3*
1,1,$1+$1,$4,$5*
1,1,$1+$1,$6,$7*
1,1,$1+$1,$8,$9*
0 Add four rect primitives between the rounded corners*
20,1,$1+$1,$2,$3,$4,$5,0*
20,1,$1+$1,$4,$5,$6,$7,0*
20,1,$1+$1,$6,$7,$8,$9,0*
20,1,$1+$1,$8,$9,$2,$3,0*%
G04 Aperture macros list end*
%ADD10C,0.150000*%
%ADD11R,1.700000X1.700000*%
%ADD12O,1.700000X1.700000*%
%ADD13R,1.250000X0.855600*%
%ADD14C,4.170000*%
%ADD15C,3.000000*%
%ADD16C,1.200000*%
%ADD17R,0.939800X2.489200*%
%ADD18R,5.511800X5.918200*%
%ADD19RoundRect,0.250000X-0.337500X-0.475000X0.337500X-0.475000X0.337500X0.475000X-0.337500X0.475000X0*%
%ADD20R,2.184400X2.184400*%
%ADD21RoundRect,0.250000X0.475000X-0.337500X0.475000X0.337500X-0.475000X0.337500X-0.475000X-0.337500X0*%
%ADD22C,1.440000*%
%ADD23R,0.850900X2.006600*%
%ADD24RoundRect,0.250000X-0.475000X0.337500X-0.475000X-0.337500X0.475000X-0.337500X0.475000X0.337500X0*%
%ADD25R,0.400000X1.350000*%
%ADD26O,1.300000X0.650000*%
%ADD27O,0.775000X1.550000*%
%ADD28R,1.500000X1.550000*%
%ADD29R,0.533400X1.727200*%
%ADD30RoundRect,0.250000X0.350000X0.450000X-0.350000X0.450000X-0.350000X-0.450000X0.350000X-0.450000X0*%
%ADD31RoundRect,0.250000X-0.350000X-0.450000X0.350000X-0.450000X0.350000X0.450000X-0.350000X0.450000X0*%
%ADD32RoundRect,0.250000X-0.450000X0.350000X-0.450000X-0.350000X0.450000X-0.350000X0.450000X0.350000X0*%
%ADD33RoundRect,0.250000X0.450000X-0.350000X0.450000X0.350000X-0.450000X0.350000X-0.450000X-0.350000X0*%
%ADD34RoundRect,0.250000X0.337500X0.475000X-0.337500X0.475000X-0.337500X-0.475000X0.337500X-0.475000X0*%
%ADD35R,2.489200X0.939800*%
%ADD36R,5.918200X5.511800*%
%ADD37C,1.600000*%
%ADD38C,1.100000*%
%ADD39C,6.203200*%
G04 APERTURE END LIST*
%TO.C,J12*%
G36*
X144485000Y-130288000D02*
G01*
X143085000Y-130288000D01*
X143058832Y-130287315D01*
X143032736Y-130285261D01*
X143006783Y-130281844D01*
X142981044Y-130277074D01*
X142955590Y-130270963D01*
X142930492Y-130263528D01*
X142905816Y-130254790D01*
X142881632Y-130244773D01*
X142858005Y-130233503D01*
X142835000Y-130221013D01*
X142812680Y-130207335D01*
X142791107Y-130192508D01*
X142770340Y-130176573D01*
X142750435Y-130159572D01*
X142731447Y-130141553D01*
X142713428Y-130122565D01*
X142696427Y-130102660D01*
X142680492Y-130081893D01*
X142665665Y-130060320D01*
X142651987Y-130038000D01*
X142639497Y-130014995D01*
X142628227Y-129991368D01*
X142618210Y-129967184D01*
X142609472Y-129942508D01*
X142602037Y-129917410D01*
X142595926Y-129891956D01*
X142591156Y-129866217D01*
X142587739Y-129840264D01*
X142585685Y-129814168D01*
X142585000Y-129788000D01*
X142585000Y-129038000D01*
X142585685Y-129011832D01*
X142587739Y-128985736D01*
X142591156Y-128959783D01*
X142595926Y-128934044D01*
X142602037Y-128908590D01*
X142609472Y-128883492D01*
X142618210Y-128858816D01*
X142628227Y-128834632D01*
X142639497Y-128811005D01*
X142651987Y-128788000D01*
X142665665Y-128765680D01*
X142680492Y-128744107D01*
X142696427Y-128723340D01*
X142713428Y-128703435D01*
X142731447Y-128684447D01*
X142750435Y-128666428D01*
X142770340Y-128649427D01*
X142791107Y-128633492D01*
X142812680Y-128618665D01*
X142835000Y-128604987D01*
X142858005Y-128592497D01*
X142881632Y-128581227D01*
X142905816Y-128571210D01*
X142930492Y-128562472D01*
X142955590Y-128555037D01*
X142981044Y-128548926D01*
X143006783Y-128544156D01*
X143032736Y-128540739D01*
X143058832Y-128538685D01*
X143085000Y-128538000D01*
X144485000Y-128538000D01*
X144485000Y-130288000D01*
G37*
D10*
X144485000Y-130288000D02*
X143085000Y-130288000D01*
X143058832Y-130287315D01*
X143032736Y-130285261D01*
X143006783Y-130281844D01*
X142981044Y-130277074D01*
X142955590Y-130270963D01*
X142930492Y-130263528D01*
X142905816Y-130254790D01*
X142881632Y-130244773D01*
X142858005Y-130233503D01*
X142835000Y-130221013D01*
X142812680Y-130207335D01*
X142791107Y-130192508D01*
X142770340Y-130176573D01*
X142750435Y-130159572D01*
X142731447Y-130141553D01*
X142713428Y-130122565D01*
X142696427Y-130102660D01*
X142680492Y-130081893D01*
X142665665Y-130060320D01*
X142651987Y-130038000D01*
X142639497Y-130014995D01*
X142628227Y-129991368D01*
X142618210Y-129967184D01*
X142609472Y-129942508D01*
X142602037Y-129917410D01*
X142595926Y-129891956D01*
X142591156Y-129866217D01*
X142587739Y-129840264D01*
X142585685Y-129814168D01*
X142585000Y-129788000D01*
X142585000Y-129038000D01*
X142585685Y-129011832D01*
X142587739Y-128985736D01*
X142591156Y-128959783D01*
X142595926Y-128934044D01*
X142602037Y-128908590D01*
X142609472Y-128883492D01*
X142618210Y-128858816D01*
X142628227Y-128834632D01*
X142639497Y-128811005D01*
X142651987Y-128788000D01*
X142665665Y-128765680D01*
X142680492Y-128744107D01*
X142696427Y-128723340D01*
X142713428Y-128703435D01*
X142731447Y-128684447D01*
X142750435Y-128666428D01*
X142770340Y-128649427D01*
X142791107Y-128633492D01*
X142812680Y-128618665D01*
X142835000Y-128604987D01*
X142858005Y-128592497D01*
X142881632Y-128581227D01*
X142905816Y-128571210D01*
X142930492Y-128562472D01*
X142955590Y-128555037D01*
X142981044Y-128548926D01*
X143006783Y-128544156D01*
X143032736Y-128540739D01*
X143058832Y-128538685D01*
X143085000Y-128538000D01*
X144485000Y-128538000D01*
X144485000Y-130288000D01*
G36*
X150311168Y-128538685D02*
G01*
X150337264Y-128540739D01*
X150363217Y-128544156D01*
X150388956Y-128548926D01*
X150414410Y-128555037D01*
X150439508Y-128562472D01*
X150464184Y-128571210D01*
X150488368Y-128581227D01*
X150511995Y-128592497D01*
X150535000Y-128604987D01*
X150557320Y-128618665D01*
X150578893Y-128633492D01*
X150599660Y-128649427D01*
X150619565Y-128666428D01*
X150638553Y-128684447D01*
X150656572Y-128703435D01*
X150673573Y-128723340D01*
X150689508Y-128744107D01*
X150704335Y-128765680D01*
X150718013Y-128788000D01*
X150730503Y-128811005D01*
X150741773Y-128834632D01*
X150751790Y-128858816D01*
X150760528Y-128883492D01*
X150767963Y-128908590D01*
X150774074Y-128934044D01*
X150778844Y-128959783D01*
X150782261Y-128985736D01*
X150784315Y-129011832D01*
X150785000Y-129038000D01*
X150785000Y-129788000D01*
X150784315Y-129814168D01*
X150782261Y-129840264D01*
X150778844Y-129866217D01*
X150774074Y-129891956D01*
X150767963Y-129917410D01*
X150760528Y-129942508D01*
X150751790Y-129967184D01*
X150741773Y-129991368D01*
X150730503Y-130014995D01*
X150718013Y-130038000D01*
X150704335Y-130060320D01*
X150689508Y-130081893D01*
X150673573Y-130102660D01*
X150656572Y-130122565D01*
X150638553Y-130141553D01*
X150619565Y-130159572D01*
X150599660Y-130176573D01*
X150578893Y-130192508D01*
X150557320Y-130207335D01*
X150535000Y-130221013D01*
X150511995Y-130233503D01*
X150488368Y-130244773D01*
X150464184Y-130254790D01*
X150439508Y-130263528D01*
X150414410Y-130270963D01*
X150388956Y-130277074D01*
X150363217Y-130281844D01*
X150337264Y-130285261D01*
X150311168Y-130287315D01*
X150285000Y-130288000D01*
X148885000Y-130288000D01*
X148885000Y-128538000D01*
X150285000Y-128538000D01*
X150311168Y-128538685D01*
G37*
X150311168Y-128538685D02*
X150337264Y-128540739D01*
X150363217Y-128544156D01*
X150388956Y-128548926D01*
X150414410Y-128555037D01*
X150439508Y-128562472D01*
X150464184Y-128571210D01*
X150488368Y-128581227D01*
X150511995Y-128592497D01*
X150535000Y-128604987D01*
X150557320Y-128618665D01*
X150578893Y-128633492D01*
X150599660Y-128649427D01*
X150619565Y-128666428D01*
X150638553Y-128684447D01*
X150656572Y-128703435D01*
X150673573Y-128723340D01*
X150689508Y-128744107D01*
X150704335Y-128765680D01*
X150718013Y-128788000D01*
X150730503Y-128811005D01*
X150741773Y-128834632D01*
X150751790Y-128858816D01*
X150760528Y-128883492D01*
X150767963Y-128908590D01*
X150774074Y-128934044D01*
X150778844Y-128959783D01*
X150782261Y-128985736D01*
X150784315Y-129011832D01*
X150785000Y-129038000D01*
X150785000Y-129788000D01*
X150784315Y-129814168D01*
X150782261Y-129840264D01*
X150778844Y-129866217D01*
X150774074Y-129891956D01*
X150767963Y-129917410D01*
X150760528Y-129942508D01*
X150751790Y-129967184D01*
X150741773Y-129991368D01*
X150730503Y-130014995D01*
X150718013Y-130038000D01*
X150704335Y-130060320D01*
X150689508Y-130081893D01*
X150673573Y-130102660D01*
X150656572Y-130122565D01*
X150638553Y-130141553D01*
X150619565Y-130159572D01*
X150599660Y-130176573D01*
X150578893Y-130192508D01*
X150557320Y-130207335D01*
X150535000Y-130221013D01*
X150511995Y-130233503D01*
X150488368Y-130244773D01*
X150464184Y-130254790D01*
X150439508Y-130263528D01*
X150414410Y-130270963D01*
X150388956Y-130277074D01*
X150363217Y-130281844D01*
X150337264Y-130285261D01*
X150311168Y-130287315D01*
X150285000Y-130288000D01*
X148885000Y-130288000D01*
X148885000Y-128538000D01*
X150285000Y-128538000D01*
X150311168Y-128538685D01*
%TD*%
D11*
%TO.C,J10*%
X153948999Y-110478249D03*
D12*
X153948999Y-113018249D03*
%TD*%
D13*
%TO.C,C19*%
X118427499Y-101003799D03*
X118427499Y-99148199D03*
%TD*%
%TO.C,C15*%
X129095499Y-96622299D03*
X129095499Y-94766699D03*
%TD*%
D11*
%TO.C,J11*%
X154202999Y-88157999D03*
D12*
X154202999Y-90697999D03*
%TD*%
D14*
%TO.C,H2*%
X107061000Y-69342000D03*
%TD*%
D11*
%TO.C,J5*%
X106704999Y-76473999D03*
D12*
X106704999Y-79013999D03*
%TD*%
D13*
%TO.C,C14*%
X129095499Y-101003799D03*
X129095499Y-99148199D03*
%TD*%
%TO.C,C20*%
X118427499Y-96431799D03*
X118427499Y-94576199D03*
%TD*%
D15*
%TO.C,J1*%
X112856000Y-126992000D03*
X122856000Y-126992000D03*
D16*
X119386000Y-124692000D03*
X118366000Y-122152000D03*
X117346000Y-124692000D03*
X116326000Y-122152000D03*
%TD*%
D17*
%TO.C,U4*%
X114811999Y-104711499D03*
X110231999Y-104711499D03*
D18*
X112521999Y-113080799D03*
%TD*%
D19*
%TO.C,C23*%
X136630500Y-105156000D03*
X138705500Y-105156000D03*
%TD*%
D20*
%TO.C,CR1*%
X128821099Y-77857349D03*
X132529499Y-77857349D03*
%TD*%
D13*
%TO.C,C16*%
X126555499Y-101091999D03*
X126555499Y-99236399D03*
%TD*%
D21*
%TO.C,C25*%
X110236000Y-100478500D03*
X110236000Y-98403500D03*
%TD*%
D22*
%TO.C,J14*%
X145161000Y-108077000D03*
X145161000Y-110617000D03*
X145161000Y-113157000D03*
%TD*%
D23*
%TO.C,L1*%
X121659649Y-79247999D03*
X124212349Y-79247999D03*
%TD*%
D24*
%TO.C,C7*%
X132651500Y-95990500D03*
X132651500Y-98065500D03*
%TD*%
D25*
%TO.C,J12*%
X145384999Y-126712999D03*
X146034999Y-126712999D03*
X146684999Y-126712999D03*
X147334999Y-126712999D03*
X147984999Y-126712999D03*
D26*
X144184999Y-126712999D03*
X149184999Y-126712999D03*
D27*
X143184999Y-129412999D03*
D28*
X145684999Y-129412999D03*
X147684999Y-129412999D03*
D27*
X150184999Y-129412999D03*
%TD*%
D13*
%TO.C,C17*%
X124015499Y-96622299D03*
X124015499Y-94766699D03*
%TD*%
D14*
%TO.C,H4*%
X107061000Y-127000000D03*
%TD*%
%TO.C,H1*%
X154051000Y-69342000D03*
%TD*%
D29*
%TO.C,U2*%
X135889999Y-82118199D03*
X134619999Y-82118199D03*
X133349999Y-82118199D03*
X132079999Y-82118199D03*
X130809999Y-82118199D03*
X129539999Y-82118199D03*
X128269999Y-82118199D03*
X126999999Y-82118199D03*
X125729999Y-82118199D03*
X124459999Y-82118199D03*
X124459999Y-91617799D03*
X125729999Y-91617799D03*
X126999999Y-91617799D03*
X128269999Y-91617799D03*
X129539999Y-91617799D03*
X130809999Y-91617799D03*
X132079999Y-91617799D03*
X133349999Y-91617799D03*
X134619999Y-91617799D03*
X135889999Y-91617799D03*
%TD*%
D13*
%TO.C,C18*%
X121475499Y-96431799D03*
X121475499Y-94576199D03*
%TD*%
D11*
%TO.C,J4*%
X106806999Y-87522999D03*
D12*
X106806999Y-90062999D03*
%TD*%
D30*
%TO.C,R9*%
X141954000Y-115697000D03*
X139954000Y-115697000D03*
%TD*%
D19*
%TO.C,C22*%
X136630500Y-109728000D03*
X138705500Y-109728000D03*
%TD*%
D21*
%TO.C,C24*%
X114808000Y-100478500D03*
X114808000Y-98403500D03*
%TD*%
D31*
%TO.C,R6*%
X132667500Y-100584000D03*
X134667500Y-100584000D03*
%TD*%
D21*
%TO.C,C6*%
X137731500Y-100605500D03*
X137731500Y-98530500D03*
%TD*%
D32*
%TO.C,R7*%
X135191500Y-96028000D03*
X135191500Y-98028000D03*
%TD*%
D30*
%TO.C,R8*%
X127365000Y-113157000D03*
X125365000Y-113157000D03*
%TD*%
D13*
%TO.C,C13*%
X126999999Y-96431799D03*
X126999999Y-94576199D03*
%TD*%
D11*
%TO.C,J9*%
X153948999Y-76061249D03*
D12*
X153948999Y-78601249D03*
%TD*%
D13*
%TO.C,C11*%
X116331999Y-86867999D03*
X116331999Y-88723599D03*
%TD*%
D19*
%TO.C,C26*%
X115802500Y-83820000D03*
X117877500Y-83820000D03*
%TD*%
D33*
%TO.C,R5*%
X121285000Y-88868000D03*
X121285000Y-86868000D03*
%TD*%
D14*
%TO.C,H3*%
X154051000Y-127000000D03*
%TD*%
D22*
%TO.C,J13*%
X108331000Y-117602000D03*
X108331000Y-120142000D03*
X108331000Y-122682000D03*
%TD*%
D11*
%TO.C,J7*%
X154329999Y-98678999D03*
D12*
X154329999Y-101218999D03*
%TD*%
D13*
%TO.C,C12*%
X121475499Y-101003799D03*
X121475499Y-99148199D03*
%TD*%
D11*
%TO.C,J6*%
X106577999Y-100095999D03*
D12*
X106577999Y-102635999D03*
%TD*%
D13*
%TO.C,C21*%
X124015499Y-101091999D03*
X124015499Y-99236399D03*
%TD*%
D34*
%TO.C,C27*%
X117988500Y-80391000D03*
X115913500Y-80391000D03*
%TD*%
D11*
%TO.C,J8*%
X106704999Y-109473999D03*
D12*
X106704999Y-112013999D03*
%TD*%
D35*
%TO.C,U3*%
X132575299Y-109604999D03*
X132575299Y-105024999D03*
D36*
X124205999Y-107314999D03*
%TD*%
D15*
%TO.C,J2*%
X128096000Y-126992000D03*
X138096000Y-126992000D03*
D16*
X134626000Y-124692000D03*
X133606000Y-122152000D03*
X132586000Y-124692000D03*
X131566000Y-122152000D03*
%TD*%
D37*
%TO.C,J3*%
X139975500Y-91781250D03*
D38*
X119975500Y-91781250D03*
%TD*%
D39*
%TO.C,H5*%
X125979500Y-71783250D03*
%TD*%
M02*
