%TF.GenerationSoftware,KiCad,Pcbnew,(5.99.0-8817-g721bf82603)*%
%TF.CreationDate,2021-02-09T01:09:19-06:00*%
%TF.ProjectId,VEXRS485ToSerial,56455852-5334-4383-9554-6f5365726961,rev?*%
%TF.SameCoordinates,Original*%
%TF.FileFunction,Soldermask,Top*%
%TF.FilePolarity,Negative*%
%FSLAX46Y46*%
G04 Gerber Fmt 4.6, Leading zero omitted, Abs format (unit mm)*
G04 Created by KiCad (PCBNEW (5.99.0-8817-g721bf82603)) date 2021-02-09 01:09:19*
%MOMM*%
%LPD*%
G01*
G04 APERTURE LIST*
G04 Aperture macros list*
%AMRoundRect*
0 Rectangle with rounded corners*
0 $1 Rounding radius*
0 $2 $3 $4 $5 $6 $7 $8 $9 X,Y pos of 4 corners*
0 Add a 4 corners polygon primitive as box body*
4,1,4,$2,$3,$4,$5,$6,$7,$8,$9,$2,$3,0*
0 Add four circle primitives for the rounded corners*
1,1,$1+$1,$2,$3*
1,1,$1+$1,$4,$5*
1,1,$1+$1,$6,$7*
1,1,$1+$1,$8,$9*
0 Add four rect primitives between the rounded corners*
20,1,$1+$1,$2,$3,$4,$5,0*
20,1,$1+$1,$4,$5,$6,$7,0*
20,1,$1+$1,$6,$7,$8,$9,0*
20,1,$1+$1,$8,$9,$2,$3,0*%
G04 Aperture macros list end*
%ADD10C,0.000100*%
%ADD11R,1.970000X0.600000*%
%ADD12C,2.500000*%
%ADD13C,3.000000*%
%ADD14C,1.200000*%
%ADD15RoundRect,0.250000X-0.475000X0.337500X-0.475000X-0.337500X0.475000X-0.337500X0.475000X0.337500X0*%
%ADD16R,1.350000X0.400000*%
%ADD17O,0.650000X1.300000*%
%ADD18O,1.550000X0.775000*%
%ADD19R,1.550000X1.500000*%
%ADD20RoundRect,0.250000X-0.350000X-0.450000X0.350000X-0.450000X0.350000X0.450000X-0.350000X0.450000X0*%
%ADD21RoundRect,0.250000X0.475000X-0.337500X0.475000X0.337500X-0.475000X0.337500X-0.475000X-0.337500X0*%
%ADD22RoundRect,0.250000X0.325000X0.450000X-0.325000X0.450000X-0.325000X-0.450000X0.325000X-0.450000X0*%
%ADD23R,0.972000X0.802000*%
%ADD24RoundRect,0.250000X-0.325000X-0.450000X0.325000X-0.450000X0.325000X0.450000X-0.325000X0.450000X0*%
G04 APERTURE END LIST*
D10*
%TO.C,J3*%
X94257500Y-91142000D02*
X94257500Y-92542000D01*
X94257500Y-92542000D02*
X92507500Y-92542000D01*
X92507500Y-92542000D02*
X92507500Y-91142000D01*
X92507500Y-91142000D02*
X92508185Y-91115832D01*
X92508185Y-91115832D02*
X92510239Y-91089736D01*
X92510239Y-91089736D02*
X92513656Y-91063783D01*
X92513656Y-91063783D02*
X92518426Y-91038044D01*
X92518426Y-91038044D02*
X92524537Y-91012590D01*
X92524537Y-91012590D02*
X92531972Y-90987492D01*
X92531972Y-90987492D02*
X92540710Y-90962816D01*
X92540710Y-90962816D02*
X92550727Y-90938632D01*
X92550727Y-90938632D02*
X92561997Y-90915005D01*
X92561997Y-90915005D02*
X92574487Y-90892000D01*
X92574487Y-90892000D02*
X92588165Y-90869680D01*
X92588165Y-90869680D02*
X92602992Y-90848107D01*
X92602992Y-90848107D02*
X92618927Y-90827340D01*
X92618927Y-90827340D02*
X92635928Y-90807435D01*
X92635928Y-90807435D02*
X92653947Y-90788447D01*
X92653947Y-90788447D02*
X92672935Y-90770428D01*
X92672935Y-90770428D02*
X92692840Y-90753427D01*
X92692840Y-90753427D02*
X92713607Y-90737492D01*
X92713607Y-90737492D02*
X92735180Y-90722665D01*
X92735180Y-90722665D02*
X92757500Y-90708987D01*
X92757500Y-90708987D02*
X92780505Y-90696497D01*
X92780505Y-90696497D02*
X92804132Y-90685227D01*
X92804132Y-90685227D02*
X92828316Y-90675210D01*
X92828316Y-90675210D02*
X92852992Y-90666472D01*
X92852992Y-90666472D02*
X92878090Y-90659037D01*
X92878090Y-90659037D02*
X92903544Y-90652926D01*
X92903544Y-90652926D02*
X92929283Y-90648156D01*
X92929283Y-90648156D02*
X92955236Y-90644739D01*
X92955236Y-90644739D02*
X92981332Y-90642685D01*
X92981332Y-90642685D02*
X93007500Y-90642000D01*
X93007500Y-90642000D02*
X93757500Y-90642000D01*
X93757500Y-90642000D02*
X93783668Y-90642685D01*
X93783668Y-90642685D02*
X93809764Y-90644739D01*
X93809764Y-90644739D02*
X93835717Y-90648156D01*
X93835717Y-90648156D02*
X93861456Y-90652926D01*
X93861456Y-90652926D02*
X93886910Y-90659037D01*
X93886910Y-90659037D02*
X93912008Y-90666472D01*
X93912008Y-90666472D02*
X93936684Y-90675210D01*
X93936684Y-90675210D02*
X93960868Y-90685227D01*
X93960868Y-90685227D02*
X93984495Y-90696497D01*
X93984495Y-90696497D02*
X94007500Y-90708987D01*
X94007500Y-90708987D02*
X94029820Y-90722665D01*
X94029820Y-90722665D02*
X94051393Y-90737492D01*
X94051393Y-90737492D02*
X94072160Y-90753427D01*
X94072160Y-90753427D02*
X94092065Y-90770428D01*
X94092065Y-90770428D02*
X94111053Y-90788447D01*
X94111053Y-90788447D02*
X94129072Y-90807435D01*
X94129072Y-90807435D02*
X94146073Y-90827340D01*
X94146073Y-90827340D02*
X94162008Y-90848107D01*
X94162008Y-90848107D02*
X94176835Y-90869680D01*
X94176835Y-90869680D02*
X94190513Y-90892000D01*
X94190513Y-90892000D02*
X94203003Y-90915005D01*
X94203003Y-90915005D02*
X94214273Y-90938632D01*
X94214273Y-90938632D02*
X94224290Y-90962816D01*
X94224290Y-90962816D02*
X94233028Y-90987492D01*
X94233028Y-90987492D02*
X94240463Y-91012590D01*
X94240463Y-91012590D02*
X94246574Y-91038044D01*
X94246574Y-91038044D02*
X94251344Y-91063783D01*
X94251344Y-91063783D02*
X94254761Y-91089736D01*
X94254761Y-91089736D02*
X94256815Y-91115832D01*
X94256815Y-91115832D02*
X94257500Y-91142000D01*
X94257500Y-91142000D02*
X94257500Y-91142000D01*
G36*
X93783668Y-90642685D02*
G01*
X93809764Y-90644739D01*
X93835717Y-90648156D01*
X93861456Y-90652926D01*
X93886910Y-90659037D01*
X93912008Y-90666472D01*
X93936684Y-90675210D01*
X93960868Y-90685227D01*
X93984495Y-90696497D01*
X94007500Y-90708987D01*
X94029820Y-90722665D01*
X94051393Y-90737492D01*
X94072160Y-90753427D01*
X94092065Y-90770428D01*
X94111053Y-90788447D01*
X94129072Y-90807435D01*
X94146073Y-90827340D01*
X94162008Y-90848107D01*
X94176835Y-90869680D01*
X94190513Y-90892000D01*
X94203003Y-90915005D01*
X94214273Y-90938632D01*
X94224290Y-90962816D01*
X94233028Y-90987492D01*
X94240463Y-91012590D01*
X94246574Y-91038044D01*
X94251344Y-91063783D01*
X94254761Y-91089736D01*
X94256815Y-91115832D01*
X94257500Y-91142000D01*
X94257500Y-92542000D01*
X92507500Y-92542000D01*
X92507500Y-91142000D01*
X92508185Y-91115832D01*
X92510239Y-91089736D01*
X92513656Y-91063783D01*
X92518426Y-91038044D01*
X92524537Y-91012590D01*
X92531972Y-90987492D01*
X92540710Y-90962816D01*
X92550727Y-90938632D01*
X92561997Y-90915005D01*
X92574487Y-90892000D01*
X92588165Y-90869680D01*
X92602992Y-90848107D01*
X92618927Y-90827340D01*
X92635928Y-90807435D01*
X92653947Y-90788447D01*
X92672935Y-90770428D01*
X92692840Y-90753427D01*
X92713607Y-90737492D01*
X92735180Y-90722665D01*
X92757500Y-90708987D01*
X92780505Y-90696497D01*
X92804132Y-90685227D01*
X92828316Y-90675210D01*
X92852992Y-90666472D01*
X92878090Y-90659037D01*
X92903544Y-90652926D01*
X92929283Y-90648156D01*
X92955236Y-90644739D01*
X92981332Y-90642685D01*
X93007500Y-90642000D01*
X93757500Y-90642000D01*
X93783668Y-90642685D01*
G37*
X93783668Y-90642685D02*
X93809764Y-90644739D01*
X93835717Y-90648156D01*
X93861456Y-90652926D01*
X93886910Y-90659037D01*
X93912008Y-90666472D01*
X93936684Y-90675210D01*
X93960868Y-90685227D01*
X93984495Y-90696497D01*
X94007500Y-90708987D01*
X94029820Y-90722665D01*
X94051393Y-90737492D01*
X94072160Y-90753427D01*
X94092065Y-90770428D01*
X94111053Y-90788447D01*
X94129072Y-90807435D01*
X94146073Y-90827340D01*
X94162008Y-90848107D01*
X94176835Y-90869680D01*
X94190513Y-90892000D01*
X94203003Y-90915005D01*
X94214273Y-90938632D01*
X94224290Y-90962816D01*
X94233028Y-90987492D01*
X94240463Y-91012590D01*
X94246574Y-91038044D01*
X94251344Y-91063783D01*
X94254761Y-91089736D01*
X94256815Y-91115832D01*
X94257500Y-91142000D01*
X94257500Y-92542000D01*
X92507500Y-92542000D01*
X92507500Y-91142000D01*
X92508185Y-91115832D01*
X92510239Y-91089736D01*
X92513656Y-91063783D01*
X92518426Y-91038044D01*
X92524537Y-91012590D01*
X92531972Y-90987492D01*
X92540710Y-90962816D01*
X92550727Y-90938632D01*
X92561997Y-90915005D01*
X92574487Y-90892000D01*
X92588165Y-90869680D01*
X92602992Y-90848107D01*
X92618927Y-90827340D01*
X92635928Y-90807435D01*
X92653947Y-90788447D01*
X92672935Y-90770428D01*
X92692840Y-90753427D01*
X92713607Y-90737492D01*
X92735180Y-90722665D01*
X92757500Y-90708987D01*
X92780505Y-90696497D01*
X92804132Y-90685227D01*
X92828316Y-90675210D01*
X92852992Y-90666472D01*
X92878090Y-90659037D01*
X92903544Y-90652926D01*
X92929283Y-90648156D01*
X92955236Y-90644739D01*
X92981332Y-90642685D01*
X93007500Y-90642000D01*
X93757500Y-90642000D01*
X93783668Y-90642685D01*
X92507500Y-98342000D02*
X92507500Y-96942000D01*
X92507500Y-96942000D02*
X94257500Y-96942000D01*
X94257500Y-96942000D02*
X94257500Y-98342000D01*
X94257500Y-98342000D02*
X94256815Y-98368168D01*
X94256815Y-98368168D02*
X94254761Y-98394264D01*
X94254761Y-98394264D02*
X94251344Y-98420217D01*
X94251344Y-98420217D02*
X94246574Y-98445956D01*
X94246574Y-98445956D02*
X94240463Y-98471410D01*
X94240463Y-98471410D02*
X94233028Y-98496508D01*
X94233028Y-98496508D02*
X94224290Y-98521184D01*
X94224290Y-98521184D02*
X94214273Y-98545368D01*
X94214273Y-98545368D02*
X94203003Y-98568995D01*
X94203003Y-98568995D02*
X94190513Y-98592000D01*
X94190513Y-98592000D02*
X94176835Y-98614320D01*
X94176835Y-98614320D02*
X94162008Y-98635893D01*
X94162008Y-98635893D02*
X94146073Y-98656660D01*
X94146073Y-98656660D02*
X94129072Y-98676565D01*
X94129072Y-98676565D02*
X94111053Y-98695553D01*
X94111053Y-98695553D02*
X94092065Y-98713572D01*
X94092065Y-98713572D02*
X94072160Y-98730573D01*
X94072160Y-98730573D02*
X94051393Y-98746508D01*
X94051393Y-98746508D02*
X94029820Y-98761335D01*
X94029820Y-98761335D02*
X94007500Y-98775013D01*
X94007500Y-98775013D02*
X93984495Y-98787503D01*
X93984495Y-98787503D02*
X93960868Y-98798773D01*
X93960868Y-98798773D02*
X93936684Y-98808790D01*
X93936684Y-98808790D02*
X93912008Y-98817528D01*
X93912008Y-98817528D02*
X93886910Y-98824963D01*
X93886910Y-98824963D02*
X93861456Y-98831074D01*
X93861456Y-98831074D02*
X93835717Y-98835844D01*
X93835717Y-98835844D02*
X93809764Y-98839261D01*
X93809764Y-98839261D02*
X93783668Y-98841315D01*
X93783668Y-98841315D02*
X93757500Y-98842000D01*
X93757500Y-98842000D02*
X93007500Y-98842000D01*
X93007500Y-98842000D02*
X92981332Y-98841315D01*
X92981332Y-98841315D02*
X92955236Y-98839261D01*
X92955236Y-98839261D02*
X92929283Y-98835844D01*
X92929283Y-98835844D02*
X92903544Y-98831074D01*
X92903544Y-98831074D02*
X92878090Y-98824963D01*
X92878090Y-98824963D02*
X92852992Y-98817528D01*
X92852992Y-98817528D02*
X92828316Y-98808790D01*
X92828316Y-98808790D02*
X92804132Y-98798773D01*
X92804132Y-98798773D02*
X92780505Y-98787503D01*
X92780505Y-98787503D02*
X92757500Y-98775013D01*
X92757500Y-98775013D02*
X92735180Y-98761335D01*
X92735180Y-98761335D02*
X92713607Y-98746508D01*
X92713607Y-98746508D02*
X92692840Y-98730573D01*
X92692840Y-98730573D02*
X92672935Y-98713572D01*
X92672935Y-98713572D02*
X92653947Y-98695553D01*
X92653947Y-98695553D02*
X92635928Y-98676565D01*
X92635928Y-98676565D02*
X92618927Y-98656660D01*
X92618927Y-98656660D02*
X92602992Y-98635893D01*
X92602992Y-98635893D02*
X92588165Y-98614320D01*
X92588165Y-98614320D02*
X92574487Y-98592000D01*
X92574487Y-98592000D02*
X92561997Y-98568995D01*
X92561997Y-98568995D02*
X92550727Y-98545368D01*
X92550727Y-98545368D02*
X92540710Y-98521184D01*
X92540710Y-98521184D02*
X92531972Y-98496508D01*
X92531972Y-98496508D02*
X92524537Y-98471410D01*
X92524537Y-98471410D02*
X92518426Y-98445956D01*
X92518426Y-98445956D02*
X92513656Y-98420217D01*
X92513656Y-98420217D02*
X92510239Y-98394264D01*
X92510239Y-98394264D02*
X92508185Y-98368168D01*
X92508185Y-98368168D02*
X92507500Y-98342000D01*
X92507500Y-98342000D02*
X92507500Y-98342000D01*
G36*
X94257500Y-98342000D02*
G01*
X94256815Y-98368168D01*
X94254761Y-98394264D01*
X94251344Y-98420217D01*
X94246574Y-98445956D01*
X94240463Y-98471410D01*
X94233028Y-98496508D01*
X94224290Y-98521184D01*
X94214273Y-98545368D01*
X94203003Y-98568995D01*
X94190513Y-98592000D01*
X94176835Y-98614320D01*
X94162008Y-98635893D01*
X94146073Y-98656660D01*
X94129072Y-98676565D01*
X94111053Y-98695553D01*
X94092065Y-98713572D01*
X94072160Y-98730573D01*
X94051393Y-98746508D01*
X94029820Y-98761335D01*
X94007500Y-98775013D01*
X93984495Y-98787503D01*
X93960868Y-98798773D01*
X93936684Y-98808790D01*
X93912008Y-98817528D01*
X93886910Y-98824963D01*
X93861456Y-98831074D01*
X93835717Y-98835844D01*
X93809764Y-98839261D01*
X93783668Y-98841315D01*
X93757500Y-98842000D01*
X93007500Y-98842000D01*
X92981332Y-98841315D01*
X92955236Y-98839261D01*
X92929283Y-98835844D01*
X92903544Y-98831074D01*
X92878090Y-98824963D01*
X92852992Y-98817528D01*
X92828316Y-98808790D01*
X92804132Y-98798773D01*
X92780505Y-98787503D01*
X92757500Y-98775013D01*
X92735180Y-98761335D01*
X92713607Y-98746508D01*
X92692840Y-98730573D01*
X92672935Y-98713572D01*
X92653947Y-98695553D01*
X92635928Y-98676565D01*
X92618927Y-98656660D01*
X92602992Y-98635893D01*
X92588165Y-98614320D01*
X92574487Y-98592000D01*
X92561997Y-98568995D01*
X92550727Y-98545368D01*
X92540710Y-98521184D01*
X92531972Y-98496508D01*
X92524537Y-98471410D01*
X92518426Y-98445956D01*
X92513656Y-98420217D01*
X92510239Y-98394264D01*
X92508185Y-98368168D01*
X92507500Y-98342000D01*
X92507500Y-96942000D01*
X94257500Y-96942000D01*
X94257500Y-98342000D01*
G37*
X94257500Y-98342000D02*
X94256815Y-98368168D01*
X94254761Y-98394264D01*
X94251344Y-98420217D01*
X94246574Y-98445956D01*
X94240463Y-98471410D01*
X94233028Y-98496508D01*
X94224290Y-98521184D01*
X94214273Y-98545368D01*
X94203003Y-98568995D01*
X94190513Y-98592000D01*
X94176835Y-98614320D01*
X94162008Y-98635893D01*
X94146073Y-98656660D01*
X94129072Y-98676565D01*
X94111053Y-98695553D01*
X94092065Y-98713572D01*
X94072160Y-98730573D01*
X94051393Y-98746508D01*
X94029820Y-98761335D01*
X94007500Y-98775013D01*
X93984495Y-98787503D01*
X93960868Y-98798773D01*
X93936684Y-98808790D01*
X93912008Y-98817528D01*
X93886910Y-98824963D01*
X93861456Y-98831074D01*
X93835717Y-98835844D01*
X93809764Y-98839261D01*
X93783668Y-98841315D01*
X93757500Y-98842000D01*
X93007500Y-98842000D01*
X92981332Y-98841315D01*
X92955236Y-98839261D01*
X92929283Y-98835844D01*
X92903544Y-98831074D01*
X92878090Y-98824963D01*
X92852992Y-98817528D01*
X92828316Y-98808790D01*
X92804132Y-98798773D01*
X92780505Y-98787503D01*
X92757500Y-98775013D01*
X92735180Y-98761335D01*
X92713607Y-98746508D01*
X92692840Y-98730573D01*
X92672935Y-98713572D01*
X92653947Y-98695553D01*
X92635928Y-98676565D01*
X92618927Y-98656660D01*
X92602992Y-98635893D01*
X92588165Y-98614320D01*
X92574487Y-98592000D01*
X92561997Y-98568995D01*
X92550727Y-98545368D01*
X92540710Y-98521184D01*
X92531972Y-98496508D01*
X92524537Y-98471410D01*
X92518426Y-98445956D01*
X92513656Y-98420217D01*
X92510239Y-98394264D01*
X92508185Y-98368168D01*
X92507500Y-98342000D01*
X92507500Y-96942000D01*
X94257500Y-96942000D01*
X94257500Y-98342000D01*
%TD*%
D11*
%TO.C,U1*%
X88195000Y-104775000D03*
X88195000Y-103505000D03*
X88195000Y-102235000D03*
X88195000Y-100965000D03*
X83255000Y-100965000D03*
X83255000Y-102235000D03*
X83255000Y-103505000D03*
X83255000Y-104775000D03*
%TD*%
D12*
%TO.C,H3*%
X92837000Y-83185000D03*
%TD*%
D13*
%TO.C,J2*%
X65159000Y-93011000D03*
X65159000Y-83011000D03*
D14*
X67459000Y-89541000D03*
X69999000Y-88521000D03*
X67459000Y-87501000D03*
X69999000Y-86481000D03*
%TD*%
D15*
%TO.C,C4*%
X76834000Y-91156000D03*
X76834000Y-93231000D03*
%TD*%
D16*
%TO.C,J3*%
X90682500Y-96042000D03*
X90682500Y-95392000D03*
X90682500Y-94742000D03*
X90682500Y-94092000D03*
X90682500Y-93442000D03*
D17*
X90682500Y-97242000D03*
X90682500Y-92242000D03*
D18*
X93382500Y-98242000D03*
D19*
X93382500Y-95742000D03*
X93382500Y-93742000D03*
D18*
X93382500Y-91242000D03*
%TD*%
D20*
%TO.C,R2*%
X78740000Y-100965000D03*
X80740000Y-100965000D03*
%TD*%
D12*
%TO.C,H1*%
X61163200Y-94792800D03*
%TD*%
D20*
%TO.C,R1*%
X78740000Y-104775000D03*
X80740000Y-104775000D03*
%TD*%
D21*
%TO.C,C1*%
X76835000Y-100965000D03*
X76835000Y-98890000D03*
%TD*%
D11*
%TO.C,U2*%
X88194000Y-91156000D03*
X88194000Y-89886000D03*
X88194000Y-88616000D03*
X88194000Y-87346000D03*
X83254000Y-87346000D03*
X83254000Y-88616000D03*
X83254000Y-89886000D03*
X83254000Y-91156000D03*
%TD*%
D13*
%TO.C,J1*%
X65160000Y-96600000D03*
X65160000Y-106600000D03*
D14*
X67460000Y-103130000D03*
X70000000Y-102110000D03*
X67460000Y-101090000D03*
X70000000Y-100070000D03*
%TD*%
D15*
%TO.C,C3*%
X76835000Y-104775000D03*
X76835000Y-106850000D03*
%TD*%
D21*
%TO.C,C2*%
X76834000Y-87346000D03*
X76834000Y-85271000D03*
%TD*%
D22*
%TO.C,D4*%
X79901000Y-83185000D03*
X77851000Y-83185000D03*
%TD*%
D20*
%TO.C,R4*%
X78739000Y-87346000D03*
X80739000Y-87346000D03*
%TD*%
D12*
%TO.C,H2*%
X92837000Y-106553000D03*
%TD*%
D23*
%TO.C,D1*%
X73930000Y-101920000D03*
X73930000Y-103820000D03*
X75930000Y-102870000D03*
%TD*%
D24*
%TO.C,D3*%
X73778000Y-83185000D03*
X75828000Y-83185000D03*
%TD*%
D20*
%TO.C,R3*%
X78739000Y-91156000D03*
X80739000Y-91156000D03*
%TD*%
D23*
%TO.C,D2*%
X73929000Y-88301000D03*
X73929000Y-90201000D03*
X75929000Y-89251000D03*
%TD*%
M02*
