M48
; DRILL file {KiCad (6.99.0-1698-gc3bed8f6ee)} date Wed Oct  5 21:42:44 2022
; FORMAT={-:-/ absolute / metric / decimal}
; #@! TF.CreationDate,2022-10-05T21:42:44-05:00
; #@! TF.GenerationSoftware,Kicad,Pcbnew,(6.99.0-1698-gc3bed8f6ee)
; #@! TF.FileFunction,Plated,1,4,PTH
FMAT,2
METRIC
; #@! TA.AperFunction,Plated,PTH,ViaDrill
T1C0.400
; #@! TA.AperFunction,Plated,PTH,ComponentDrill
T2C0.500
; #@! TA.AperFunction,Plated,PTH,ComponentDrill
T3C0.550
; #@! TA.AperFunction,Plated,PTH,ComponentDrill
T4C0.790
; #@! TA.AperFunction,Plated,PTH,ComponentDrill
T5C0.840
; #@! TA.AperFunction,Plated,PTH,ComponentDrill
T6C1.000
; #@! TA.AperFunction,Plated,PTH,ComponentDrill
T7C2.300
; #@! TA.AperFunction,Plated,PTH,ComponentDrill
T8C3.500
%
G90
G05
T1
X105.791Y-120.777
X107.823Y-94.234
X109.728Y-83.566
X114.046Y-76.835
X116.205Y-92.964
X116.459Y-126.746
X117.221Y-90.805
X117.475Y-110.744
X117.602Y-117.602
X118.364Y-105.537
X119.888Y-90.043
X120.015Y-99.06
X120.396Y-82.931
X121.026Y-102.489
X121.031Y-120.777
X121.545Y-111.188
X122.682Y-103.378
X122.809Y-87.63
X122.809Y-95.631
X123.952Y-103.251
X125.984Y-103.188
X127.127Y-89.881
X127.278Y-86.13
X129.286Y-87.63
X129.413Y-118.11
X129.794Y-84.582
X129.921Y-102.87
X130.556Y-80.264
X130.937Y-114.008
X131.191Y-99.187
X132.08Y-87.249
X132.588Y-93.98
X132.588Y-127.254
X132.842Y-116.84
X134.62Y-86.868
X134.747Y-108.458
X135.128Y-102.87
X135.763Y-120.358
X136.906Y-102.997
X137.033Y-93.255
X137.926Y-94.992
X138.176Y-112.649
X138.43Y-86.233
X138.43Y-93.255
X138.938Y-95.504
X139.065Y-84.201
X139.954Y-106.299
X140.176Y-89.916
X142.621Y-113.157
X144.78Y-78.613
X146.812Y-92.075
X148.336Y-124.079
X149.098Y-100.203
X149.225Y-105.537
X150.622Y-83.82
T4
X116.326Y-122.152
X117.346Y-124.692
X118.366Y-122.152
X119.386Y-124.692
X131.566Y-122.152
X132.586Y-124.692
X133.606Y-122.152
X134.626Y-124.692
T5
X108.331Y-117.602
X108.331Y-120.142
X108.331Y-122.682
X145.161Y-108.077
X145.161Y-110.617
X145.161Y-113.157
T6
X106.578Y-100.096
X106.578Y-102.636
X106.705Y-76.474
X106.705Y-79.014
X106.705Y-109.474
X106.705Y-112.014
X106.807Y-87.523
X106.807Y-90.063
X153.949Y-76.061
X153.949Y-78.601
X153.949Y-110.478
X153.949Y-113.018
X154.203Y-88.158
X154.203Y-90.698
X154.33Y-98.679
X154.33Y-101.219
T7
X112.856Y-126.992
X122.856Y-126.992
X128.096Y-126.992
X138.096Y-126.992
T8
X125.979Y-71.783
T2
X143.185Y-129.088G85X143.185Y-129.738
G05
X150.185Y-129.088G85X150.185Y-129.738
G05
T3
X144.035Y-126.713G85X144.335Y-126.713
G05
X149.035Y-126.713G85X149.335Y-126.713
G05
T0
M30
