%TF.GenerationSoftware,KiCad,Pcbnew,(6.99.0-1698-gc3bed8f6ee)*%
%TF.CreationDate,2022-10-05T21:42:39-05:00*%
%TF.ProjectId,Pneumatics Control Unit V1,506e6575-6d61-4746-9963-7320436f6e74,rev?*%
%TF.SameCoordinates,Original*%
%TF.FileFunction,Copper,L2,Inr*%
%TF.FilePolarity,Positive*%
%FSLAX46Y46*%
G04 Gerber Fmt 4.6, Leading zero omitted, Abs format (unit mm)*
G04 Created by KiCad (PCBNEW (6.99.0-1698-gc3bed8f6ee)) date 2022-10-05 21:42:39*
%MOMM*%
%LPD*%
G01*
G04 APERTURE LIST*
%TA.AperFunction,ComponentPad*%
%ADD10R,1.700000X1.700000*%
%TD*%
%TA.AperFunction,ComponentPad*%
%ADD11O,1.700000X1.700000*%
%TD*%
%TA.AperFunction,ComponentPad*%
%ADD12C,3.000000*%
%TD*%
%TA.AperFunction,ComponentPad*%
%ADD13C,1.200000*%
%TD*%
%TA.AperFunction,ComponentPad*%
%ADD14C,1.440000*%
%TD*%
%TA.AperFunction,ComponentPad*%
%ADD15O,1.300000X0.650000*%
%TD*%
%TA.AperFunction,ComponentPad*%
%ADD16O,0.775000X1.550000*%
%TD*%
%TA.AperFunction,ComponentPad*%
%ADD17C,6.000000*%
%TD*%
%TA.AperFunction,ViaPad*%
%ADD18C,0.800000*%
%TD*%
G04 APERTURE END LIST*
D10*
%TO.N,Net-(D9-A2)*%
%TO.C,J10*%
X153948999Y-110478249D03*
D11*
%TO.N,/solenoid_power_2*%
X153948999Y-113018249D03*
%TD*%
D10*
%TO.N,Net-(D10-A2)*%
%TO.C,J11*%
X154202999Y-88157999D03*
D11*
%TO.N,/solenoid_power_2*%
X154202999Y-90697999D03*
%TD*%
D10*
%TO.N,Net-(D4-A2)*%
%TO.C,J5*%
X106704999Y-76473999D03*
D11*
%TO.N,/solenoid_power*%
X106704999Y-79013999D03*
%TD*%
D12*
%TO.N,*%
%TO.C,J1*%
X112856000Y-126992000D03*
X122856000Y-126992000D03*
D13*
%TO.N,Net-(D1-A2)*%
X119386000Y-124692000D03*
%TO.N,Net-(D1-A1)*%
X118366000Y-122152000D03*
%TO.N,GND*%
X117346000Y-124692000D03*
%TO.N,/RS485_B_12V*%
X116326000Y-122152000D03*
%TD*%
D14*
%TO.N,Net-(J14-Pin_1)*%
%TO.C,J14*%
X145161000Y-108077000D03*
%TO.N,/solenoid_power_2*%
X145161000Y-110617000D03*
%TO.N,/RS485_B_12V*%
X145161000Y-113157000D03*
%TD*%
D15*
%TO.N,GND*%
%TO.C,J12*%
X144184999Y-126712999D03*
X149184999Y-126712999D03*
D16*
X143184999Y-129412999D03*
X150184999Y-129412999D03*
%TD*%
D10*
%TO.N,Net-(D3-A2)*%
%TO.C,J4*%
X106806999Y-87522999D03*
D11*
%TO.N,/solenoid_power*%
X106806999Y-90062999D03*
%TD*%
D10*
%TO.N,Net-(D8-A2)*%
%TO.C,J9*%
X153948999Y-76061249D03*
D11*
%TO.N,/solenoid_power_2*%
X153948999Y-78601249D03*
%TD*%
D14*
%TO.N,Net-(J13-Pin_1)*%
%TO.C,J13*%
X108331000Y-117602000D03*
%TO.N,/solenoid_power*%
X108331000Y-120142000D03*
%TO.N,/RS485_B_12V*%
X108331000Y-122682000D03*
%TD*%
D10*
%TO.N,Net-(D6-A2)*%
%TO.C,J7*%
X154329999Y-98678999D03*
D11*
%TO.N,/solenoid_power_2*%
X154329999Y-101218999D03*
%TD*%
D10*
%TO.N,Net-(D5-A2)*%
%TO.C,J6*%
X106577999Y-100095999D03*
D11*
%TO.N,/solenoid_power*%
X106577999Y-102635999D03*
%TD*%
D10*
%TO.N,Net-(D7-A2)*%
%TO.C,J8*%
X106704999Y-109473999D03*
D11*
%TO.N,/solenoid_power*%
X106704999Y-112013999D03*
%TD*%
D12*
%TO.N,*%
%TO.C,J2*%
X128096000Y-126992000D03*
X138096000Y-126992000D03*
D13*
%TO.N,Net-(D2-A2)*%
X134626000Y-124692000D03*
%TO.N,Net-(D2-A1)*%
X133606000Y-122152000D03*
%TO.N,GND*%
X132586000Y-124692000D03*
%TO.N,/RS485_A_12V*%
X131566000Y-122152000D03*
%TD*%
D17*
%TO.N,GND*%
%TO.C,H5*%
X125979500Y-71783250D03*
%TD*%
D18*
%TO.N,GND*%
X131191000Y-99187000D03*
X109728000Y-83566000D03*
X114046000Y-76835000D03*
X121031000Y-120777000D03*
X150622000Y-83820000D03*
X138176000Y-112649000D03*
X139954000Y-106299000D03*
X138938000Y-95504000D03*
X129286000Y-87630000D03*
X118364000Y-105537000D03*
X122682000Y-103378000D03*
X144780000Y-78613000D03*
X149225000Y-105537000D03*
X105791000Y-120777000D03*
X116459000Y-126746000D03*
X132842000Y-116840000D03*
X120015000Y-99060000D03*
X120396000Y-82931000D03*
X134747000Y-108458000D03*
X132080000Y-87249000D03*
X129413000Y-118110000D03*
X129921000Y-102870000D03*
X130937000Y-114008500D03*
X117221000Y-90805000D03*
X149098000Y-100203000D03*
X148336000Y-124079000D03*
X117602000Y-117602000D03*
X146812000Y-92075000D03*
X130556000Y-80264000D03*
X132588000Y-127254000D03*
X117475000Y-110744000D03*
X119888000Y-90043000D03*
X132588000Y-93980000D03*
X135128000Y-102870000D03*
X138430000Y-86233000D03*
X116205000Y-92964000D03*
X142621000Y-113157000D03*
X107823000Y-94234000D03*
%TO.N,Net-(C10-Pad1)*%
X125984000Y-103188500D03*
X123952000Y-103251000D03*
X135763000Y-120358500D03*
%TO.N,/220uF*%
X122809000Y-87630000D03*
X134620000Y-86868000D03*
X122809000Y-95631000D03*
%TO.N,/GPIO_7*%
X137033000Y-93255500D03*
X140176021Y-89916000D03*
%TO.N,/USB_D+*%
X121026000Y-102489000D03*
%TO.N,/USB_D-*%
X121544954Y-111187970D03*
%TO.N,Net-(U2-COMP)*%
X127277845Y-86129845D03*
X137926299Y-94991701D03*
X138430000Y-93255500D03*
X129794000Y-84582000D03*
X127127000Y-89881261D03*
X139065000Y-84201000D03*
%TO.N,Net-(U3-OUTPUT)*%
X136906000Y-102997000D03*
%TD*%
%TA.AperFunction,Conductor*%
%TO.N,GND*%
G36*
X157094621Y-65625502D02*
G01*
X157141114Y-65679158D01*
X157152500Y-65731500D01*
X157152500Y-130483500D01*
X157132498Y-130551621D01*
X157078842Y-130598114D01*
X157026500Y-130609500D01*
X150944588Y-130609500D01*
X150876467Y-130589498D01*
X150829974Y-130535842D01*
X150819870Y-130465568D01*
X150850952Y-130399189D01*
X150909047Y-130334669D01*
X150916769Y-130324041D01*
X151004282Y-130172462D01*
X151009628Y-130160454D01*
X151063716Y-129993990D01*
X151066446Y-129981147D01*
X151080156Y-129850703D01*
X151080500Y-129844144D01*
X151080500Y-129685115D01*
X151076025Y-129669876D01*
X151074635Y-129668671D01*
X151066952Y-129667000D01*
X149307615Y-129667000D01*
X149292376Y-129671475D01*
X149291171Y-129672865D01*
X149289500Y-129680548D01*
X149289500Y-129844144D01*
X149289844Y-129850703D01*
X149303554Y-129981147D01*
X149306284Y-129993990D01*
X149360372Y-130160454D01*
X149365718Y-130172462D01*
X149453231Y-130324041D01*
X149460953Y-130334669D01*
X149519048Y-130399189D01*
X149549765Y-130463196D01*
X149541002Y-130533650D01*
X149495539Y-130588181D01*
X149425412Y-130609500D01*
X143944588Y-130609500D01*
X143876467Y-130589498D01*
X143829974Y-130535842D01*
X143819870Y-130465568D01*
X143850952Y-130399189D01*
X143909047Y-130334669D01*
X143916769Y-130324041D01*
X144004282Y-130172462D01*
X144009628Y-130160454D01*
X144063716Y-129993990D01*
X144066446Y-129981147D01*
X144080156Y-129850703D01*
X144080500Y-129844144D01*
X144080500Y-129685115D01*
X144076025Y-129669876D01*
X144074635Y-129668671D01*
X144066952Y-129667000D01*
X142307615Y-129667000D01*
X142292376Y-129671475D01*
X142291171Y-129672865D01*
X142289500Y-129680548D01*
X142289500Y-129844144D01*
X142289844Y-129850703D01*
X142303554Y-129981147D01*
X142306284Y-129993990D01*
X142360372Y-130160454D01*
X142365718Y-130172462D01*
X142453231Y-130324041D01*
X142460953Y-130334669D01*
X142519048Y-130399189D01*
X142549765Y-130463196D01*
X142541002Y-130533650D01*
X142495539Y-130588181D01*
X142425412Y-130609500D01*
X104085500Y-130609500D01*
X104017379Y-130589498D01*
X103970886Y-130535842D01*
X103959500Y-130483500D01*
X103959500Y-127000000D01*
X104716480Y-127000000D01*
X104736538Y-127306021D01*
X104737342Y-127310061D01*
X104737342Y-127310064D01*
X104783941Y-127544329D01*
X104796368Y-127606806D01*
X104894946Y-127897209D01*
X104896770Y-127900907D01*
X105028369Y-128167764D01*
X105030586Y-128172260D01*
X105032880Y-128175693D01*
X105092987Y-128265649D01*
X105200967Y-128427253D01*
X105403174Y-128657826D01*
X105633747Y-128860033D01*
X105637173Y-128862322D01*
X105637178Y-128862326D01*
X105806252Y-128975297D01*
X105888740Y-129030414D01*
X105892439Y-129032238D01*
X105892444Y-129032241D01*
X106033693Y-129101897D01*
X106163791Y-129166054D01*
X106167696Y-129167379D01*
X106167697Y-129167380D01*
X106450287Y-129263306D01*
X106450290Y-129263307D01*
X106454194Y-129264632D01*
X106458233Y-129265435D01*
X106458239Y-129265437D01*
X106750936Y-129323658D01*
X106750939Y-129323658D01*
X106754979Y-129324462D01*
X106759090Y-129324731D01*
X106759094Y-129324732D01*
X106982362Y-129339366D01*
X106982371Y-129339366D01*
X106984411Y-129339500D01*
X107137589Y-129339500D01*
X107139629Y-129339366D01*
X107139638Y-129339366D01*
X107362906Y-129324732D01*
X107362910Y-129324731D01*
X107367021Y-129324462D01*
X107371061Y-129323658D01*
X107371064Y-129323658D01*
X107663761Y-129265437D01*
X107663767Y-129265435D01*
X107667806Y-129264632D01*
X107671710Y-129263307D01*
X107671713Y-129263306D01*
X107954303Y-129167380D01*
X107954304Y-129167379D01*
X107958209Y-129166054D01*
X108009247Y-129140885D01*
X142289500Y-129140885D01*
X142293975Y-129156124D01*
X142295365Y-129157329D01*
X142303048Y-129159000D01*
X142912885Y-129159000D01*
X142928124Y-129154525D01*
X142929329Y-129153135D01*
X142931000Y-129145452D01*
X142931000Y-129140885D01*
X143439000Y-129140885D01*
X143443475Y-129156124D01*
X143444865Y-129157329D01*
X143452548Y-129159000D01*
X144062385Y-129159000D01*
X144077624Y-129154525D01*
X144078829Y-129153135D01*
X144080500Y-129145452D01*
X144080500Y-129140885D01*
X149289500Y-129140885D01*
X149293975Y-129156124D01*
X149295365Y-129157329D01*
X149303048Y-129159000D01*
X149912885Y-129159000D01*
X149928124Y-129154525D01*
X149929329Y-129153135D01*
X149931000Y-129145452D01*
X149931000Y-129140885D01*
X150439000Y-129140885D01*
X150443475Y-129156124D01*
X150444865Y-129157329D01*
X150452548Y-129159000D01*
X151062385Y-129159000D01*
X151077624Y-129154525D01*
X151078829Y-129153135D01*
X151080500Y-129145452D01*
X151080500Y-128981856D01*
X151080156Y-128975297D01*
X151066446Y-128844853D01*
X151063716Y-128832010D01*
X151009628Y-128665546D01*
X151004282Y-128653538D01*
X150916769Y-128501959D01*
X150909047Y-128491331D01*
X150791922Y-128361251D01*
X150782168Y-128352469D01*
X150640559Y-128249583D01*
X150629187Y-128243017D01*
X150469281Y-128171823D01*
X150456788Y-128167764D01*
X150456721Y-128167750D01*
X150442658Y-128168823D01*
X150439000Y-128178776D01*
X150439000Y-129140885D01*
X149931000Y-129140885D01*
X149931000Y-128182098D01*
X149927027Y-128168567D01*
X149916531Y-128167058D01*
X149913212Y-128167764D01*
X149900719Y-128171823D01*
X149740814Y-128243017D01*
X149729442Y-128249583D01*
X149587832Y-128352469D01*
X149578078Y-128361251D01*
X149460953Y-128491331D01*
X149453231Y-128501959D01*
X149365718Y-128653538D01*
X149360372Y-128665546D01*
X149306284Y-128832010D01*
X149303554Y-128844853D01*
X149289844Y-128975297D01*
X149289500Y-128981856D01*
X149289500Y-129140885D01*
X144080500Y-129140885D01*
X144080500Y-128981856D01*
X144080156Y-128975297D01*
X144066446Y-128844853D01*
X144063716Y-128832010D01*
X144009628Y-128665546D01*
X144004282Y-128653538D01*
X143916769Y-128501959D01*
X143909047Y-128491331D01*
X143791922Y-128361251D01*
X143782168Y-128352469D01*
X143640559Y-128249583D01*
X143629187Y-128243017D01*
X143469281Y-128171823D01*
X143456788Y-128167764D01*
X143456721Y-128167750D01*
X143442658Y-128168823D01*
X143439000Y-128178776D01*
X143439000Y-129140885D01*
X142931000Y-129140885D01*
X142931000Y-128182098D01*
X142927027Y-128168567D01*
X142916531Y-128167058D01*
X142913212Y-128167764D01*
X142900719Y-128171823D01*
X142740814Y-128243017D01*
X142729442Y-128249583D01*
X142587832Y-128352469D01*
X142578078Y-128361251D01*
X142460953Y-128491331D01*
X142453231Y-128501959D01*
X142365718Y-128653538D01*
X142360372Y-128665546D01*
X142306284Y-128832010D01*
X142303554Y-128844853D01*
X142289844Y-128975297D01*
X142289500Y-128981856D01*
X142289500Y-129140885D01*
X108009247Y-129140885D01*
X108088307Y-129101897D01*
X108229556Y-129032241D01*
X108229561Y-129032238D01*
X108233260Y-129030414D01*
X108315748Y-128975297D01*
X108484822Y-128862326D01*
X108484827Y-128862322D01*
X108488253Y-128860033D01*
X108718826Y-128657826D01*
X108921033Y-128427253D01*
X109029014Y-128265649D01*
X109089120Y-128175693D01*
X109091414Y-128172260D01*
X109093632Y-128167764D01*
X109225230Y-127900907D01*
X109227054Y-127897209D01*
X109325632Y-127606806D01*
X109338060Y-127544329D01*
X109384658Y-127310064D01*
X109384658Y-127310061D01*
X109385462Y-127306021D01*
X109405520Y-127000000D01*
X109404996Y-126992000D01*
X110842807Y-126992000D01*
X110843101Y-126996298D01*
X110860441Y-127249797D01*
X110861558Y-127266130D01*
X110862431Y-127270332D01*
X110862432Y-127270338D01*
X110871944Y-127316111D01*
X110917462Y-127535153D01*
X111009477Y-127794058D01*
X111135889Y-128038023D01*
X111294343Y-128262502D01*
X111297281Y-128265648D01*
X111297282Y-128265649D01*
X111478952Y-128460170D01*
X111478957Y-128460175D01*
X111481889Y-128463314D01*
X111695031Y-128636718D01*
X111698700Y-128638949D01*
X111698704Y-128638952D01*
X111926123Y-128777248D01*
X111929800Y-128779484D01*
X111933746Y-128781198D01*
X112108983Y-128857314D01*
X112181823Y-128888953D01*
X112446404Y-128963085D01*
X112718615Y-129000500D01*
X112993385Y-129000500D01*
X113265596Y-128963085D01*
X113530177Y-128888953D01*
X113603018Y-128857314D01*
X113778254Y-128781198D01*
X113782200Y-128779484D01*
X113785877Y-128777248D01*
X114013296Y-128638952D01*
X114013300Y-128638949D01*
X114016969Y-128636718D01*
X114230111Y-128463314D01*
X114233043Y-128460175D01*
X114233048Y-128460170D01*
X114414718Y-128265649D01*
X114414719Y-128265648D01*
X114417657Y-128262502D01*
X114576111Y-128038023D01*
X114702523Y-127794058D01*
X114794538Y-127535153D01*
X114840056Y-127316111D01*
X114849568Y-127270338D01*
X114849569Y-127270332D01*
X114850442Y-127266130D01*
X114851560Y-127249797D01*
X114868899Y-126996298D01*
X114869193Y-126992000D01*
X120842807Y-126992000D01*
X120843101Y-126996298D01*
X120860441Y-127249797D01*
X120861558Y-127266130D01*
X120862431Y-127270332D01*
X120862432Y-127270338D01*
X120871944Y-127316111D01*
X120917462Y-127535153D01*
X121009477Y-127794058D01*
X121135889Y-128038023D01*
X121294343Y-128262502D01*
X121297281Y-128265648D01*
X121297282Y-128265649D01*
X121478952Y-128460170D01*
X121478957Y-128460175D01*
X121481889Y-128463314D01*
X121695031Y-128636718D01*
X121698700Y-128638949D01*
X121698704Y-128638952D01*
X121926123Y-128777248D01*
X121929800Y-128779484D01*
X121933746Y-128781198D01*
X122108983Y-128857314D01*
X122181823Y-128888953D01*
X122446404Y-128963085D01*
X122718615Y-129000500D01*
X122993385Y-129000500D01*
X123265596Y-128963085D01*
X123530177Y-128888953D01*
X123603018Y-128857314D01*
X123778254Y-128781198D01*
X123782200Y-128779484D01*
X123785877Y-128777248D01*
X124013296Y-128638952D01*
X124013300Y-128638949D01*
X124016969Y-128636718D01*
X124230111Y-128463314D01*
X124233043Y-128460175D01*
X124233048Y-128460170D01*
X124414718Y-128265649D01*
X124414719Y-128265648D01*
X124417657Y-128262502D01*
X124576111Y-128038023D01*
X124702523Y-127794058D01*
X124794538Y-127535153D01*
X124840056Y-127316111D01*
X124849568Y-127270338D01*
X124849569Y-127270332D01*
X124850442Y-127266130D01*
X124851560Y-127249797D01*
X124868899Y-126996298D01*
X124869193Y-126992000D01*
X126082807Y-126992000D01*
X126083101Y-126996298D01*
X126100441Y-127249797D01*
X126101558Y-127266130D01*
X126102431Y-127270332D01*
X126102432Y-127270338D01*
X126111944Y-127316111D01*
X126157462Y-127535153D01*
X126249477Y-127794058D01*
X126375889Y-128038023D01*
X126534343Y-128262502D01*
X126537281Y-128265648D01*
X126537282Y-128265649D01*
X126718952Y-128460170D01*
X126718957Y-128460175D01*
X126721889Y-128463314D01*
X126935031Y-128636718D01*
X126938700Y-128638949D01*
X126938704Y-128638952D01*
X127166123Y-128777248D01*
X127169800Y-128779484D01*
X127173746Y-128781198D01*
X127348983Y-128857314D01*
X127421823Y-128888953D01*
X127686404Y-128963085D01*
X127958615Y-129000500D01*
X128233385Y-129000500D01*
X128505596Y-128963085D01*
X128770177Y-128888953D01*
X128843018Y-128857314D01*
X129018254Y-128781198D01*
X129022200Y-128779484D01*
X129025877Y-128777248D01*
X129253296Y-128638952D01*
X129253300Y-128638949D01*
X129256969Y-128636718D01*
X129470111Y-128463314D01*
X129473043Y-128460175D01*
X129473048Y-128460170D01*
X129654718Y-128265649D01*
X129654719Y-128265648D01*
X129657657Y-128262502D01*
X129816111Y-128038023D01*
X129942523Y-127794058D01*
X130034538Y-127535153D01*
X130080056Y-127316111D01*
X130089568Y-127270338D01*
X130089569Y-127270332D01*
X130090442Y-127266130D01*
X130091560Y-127249797D01*
X130108899Y-126996298D01*
X130109193Y-126992000D01*
X136082807Y-126992000D01*
X136083101Y-126996298D01*
X136100441Y-127249797D01*
X136101558Y-127266130D01*
X136102431Y-127270332D01*
X136102432Y-127270338D01*
X136111944Y-127316111D01*
X136157462Y-127535153D01*
X136249477Y-127794058D01*
X136375889Y-128038023D01*
X136534343Y-128262502D01*
X136537281Y-128265648D01*
X136537282Y-128265649D01*
X136718952Y-128460170D01*
X136718957Y-128460175D01*
X136721889Y-128463314D01*
X136935031Y-128636718D01*
X136938700Y-128638949D01*
X136938704Y-128638952D01*
X137166123Y-128777248D01*
X137169800Y-128779484D01*
X137173746Y-128781198D01*
X137348983Y-128857314D01*
X137421823Y-128888953D01*
X137686404Y-128963085D01*
X137958615Y-129000500D01*
X138233385Y-129000500D01*
X138505596Y-128963085D01*
X138770177Y-128888953D01*
X138843018Y-128857314D01*
X139018254Y-128781198D01*
X139022200Y-128779484D01*
X139025877Y-128777248D01*
X139253296Y-128638952D01*
X139253300Y-128638949D01*
X139256969Y-128636718D01*
X139470111Y-128463314D01*
X139473043Y-128460175D01*
X139473048Y-128460170D01*
X139654718Y-128265649D01*
X139654719Y-128265648D01*
X139657657Y-128262502D01*
X139816111Y-128038023D01*
X139942523Y-127794058D01*
X140034538Y-127535153D01*
X140080056Y-127316111D01*
X140089568Y-127270338D01*
X140089569Y-127270332D01*
X140090442Y-127266130D01*
X140091560Y-127249797D01*
X140108899Y-126996298D01*
X140109193Y-126992000D01*
X140108320Y-126979233D01*
X143069408Y-126979233D01*
X143079770Y-127016557D01*
X143084800Y-127029180D01*
X143163269Y-127177189D01*
X143170893Y-127188433D01*
X143279344Y-127316111D01*
X143289207Y-127325455D01*
X143422571Y-127426836D01*
X143434216Y-127433842D01*
X143586249Y-127504180D01*
X143599128Y-127508519D01*
X143762735Y-127544532D01*
X143776236Y-127546000D01*
X143912885Y-127546000D01*
X143928124Y-127541525D01*
X143929329Y-127540135D01*
X143931000Y-127532452D01*
X143931000Y-127527885D01*
X144439000Y-127527885D01*
X144443475Y-127543124D01*
X144444865Y-127544329D01*
X144452548Y-127546000D01*
X144551750Y-127546000D01*
X144558563Y-127545630D01*
X144683333Y-127532061D01*
X144696600Y-127529141D01*
X144855358Y-127475649D01*
X144867683Y-127469947D01*
X145011227Y-127383579D01*
X145022042Y-127375359D01*
X145143666Y-127260151D01*
X145152460Y-127249797D01*
X145246470Y-127111142D01*
X145252834Y-127099137D01*
X145298778Y-126983829D01*
X145299209Y-126979233D01*
X148069408Y-126979233D01*
X148079770Y-127016557D01*
X148084800Y-127029180D01*
X148163269Y-127177189D01*
X148170893Y-127188433D01*
X148279344Y-127316111D01*
X148289207Y-127325455D01*
X148422571Y-127426836D01*
X148434216Y-127433842D01*
X148586249Y-127504180D01*
X148599128Y-127508519D01*
X148762735Y-127544532D01*
X148776236Y-127546000D01*
X148912885Y-127546000D01*
X148928124Y-127541525D01*
X148929329Y-127540135D01*
X148931000Y-127532452D01*
X148931000Y-127527885D01*
X149439000Y-127527885D01*
X149443475Y-127543124D01*
X149444865Y-127544329D01*
X149452548Y-127546000D01*
X149551750Y-127546000D01*
X149558563Y-127545630D01*
X149683333Y-127532061D01*
X149696600Y-127529141D01*
X149855358Y-127475649D01*
X149867683Y-127469947D01*
X150011227Y-127383579D01*
X150022042Y-127375359D01*
X150143666Y-127260151D01*
X150152460Y-127249797D01*
X150246470Y-127111142D01*
X150252834Y-127099137D01*
X150292335Y-127000000D01*
X151706480Y-127000000D01*
X151726538Y-127306021D01*
X151727342Y-127310061D01*
X151727342Y-127310064D01*
X151773941Y-127544329D01*
X151786368Y-127606806D01*
X151884946Y-127897209D01*
X151886770Y-127900907D01*
X152018369Y-128167764D01*
X152020586Y-128172260D01*
X152022880Y-128175693D01*
X152082987Y-128265649D01*
X152190967Y-128427253D01*
X152393174Y-128657826D01*
X152623747Y-128860033D01*
X152627173Y-128862322D01*
X152627178Y-128862326D01*
X152796252Y-128975297D01*
X152878740Y-129030414D01*
X152882439Y-129032238D01*
X152882444Y-129032241D01*
X153023693Y-129101897D01*
X153153791Y-129166054D01*
X153157696Y-129167379D01*
X153157697Y-129167380D01*
X153440287Y-129263306D01*
X153440290Y-129263307D01*
X153444194Y-129264632D01*
X153448233Y-129265435D01*
X153448239Y-129265437D01*
X153740936Y-129323658D01*
X153740939Y-129323658D01*
X153744979Y-129324462D01*
X153749090Y-129324731D01*
X153749094Y-129324732D01*
X153972362Y-129339366D01*
X153972371Y-129339366D01*
X153974411Y-129339500D01*
X154127589Y-129339500D01*
X154129629Y-129339366D01*
X154129638Y-129339366D01*
X154352906Y-129324732D01*
X154352910Y-129324731D01*
X154357021Y-129324462D01*
X154361061Y-129323658D01*
X154361064Y-129323658D01*
X154653761Y-129265437D01*
X154653767Y-129265435D01*
X154657806Y-129264632D01*
X154661710Y-129263307D01*
X154661713Y-129263306D01*
X154944303Y-129167380D01*
X154944304Y-129167379D01*
X154948209Y-129166054D01*
X155078307Y-129101897D01*
X155219556Y-129032241D01*
X155219561Y-129032238D01*
X155223260Y-129030414D01*
X155305748Y-128975297D01*
X155474822Y-128862326D01*
X155474827Y-128862322D01*
X155478253Y-128860033D01*
X155708826Y-128657826D01*
X155911033Y-128427253D01*
X156019014Y-128265649D01*
X156079120Y-128175693D01*
X156081414Y-128172260D01*
X156083632Y-128167764D01*
X156215230Y-127900907D01*
X156217054Y-127897209D01*
X156315632Y-127606806D01*
X156328060Y-127544329D01*
X156374658Y-127310064D01*
X156374658Y-127310061D01*
X156375462Y-127306021D01*
X156395520Y-127000000D01*
X156393357Y-126967000D01*
X156375732Y-126698094D01*
X156375731Y-126698090D01*
X156375462Y-126693979D01*
X156328722Y-126459000D01*
X156316437Y-126397239D01*
X156316435Y-126397233D01*
X156315632Y-126393194D01*
X156219464Y-126109889D01*
X156218380Y-126106697D01*
X156218379Y-126106696D01*
X156217054Y-126102791D01*
X156081414Y-125827740D01*
X155989509Y-125690195D01*
X155913326Y-125576178D01*
X155913322Y-125576173D01*
X155911033Y-125572747D01*
X155708826Y-125342174D01*
X155478253Y-125139967D01*
X155474827Y-125137678D01*
X155474822Y-125137674D01*
X155226693Y-124971880D01*
X155223260Y-124969586D01*
X155219561Y-124967762D01*
X155219556Y-124967759D01*
X155063216Y-124890661D01*
X154948209Y-124833946D01*
X154944303Y-124832620D01*
X154661713Y-124736694D01*
X154661710Y-124736693D01*
X154657806Y-124735368D01*
X154653767Y-124734565D01*
X154653761Y-124734563D01*
X154361064Y-124676342D01*
X154361061Y-124676342D01*
X154357021Y-124675538D01*
X154352910Y-124675269D01*
X154352906Y-124675268D01*
X154129638Y-124660634D01*
X154129629Y-124660634D01*
X154127589Y-124660500D01*
X153974411Y-124660500D01*
X153972371Y-124660634D01*
X153972362Y-124660634D01*
X153749094Y-124675268D01*
X153749090Y-124675269D01*
X153744979Y-124675538D01*
X153740939Y-124676342D01*
X153740936Y-124676342D01*
X153448239Y-124734563D01*
X153448233Y-124734565D01*
X153444194Y-124735368D01*
X153440290Y-124736693D01*
X153440287Y-124736694D01*
X153157697Y-124832620D01*
X153153791Y-124833946D01*
X153038784Y-124890661D01*
X152882444Y-124967759D01*
X152882439Y-124967762D01*
X152878740Y-124969586D01*
X152875307Y-124971880D01*
X152627178Y-125137674D01*
X152627173Y-125137678D01*
X152623747Y-125139967D01*
X152393174Y-125342174D01*
X152190967Y-125572747D01*
X152188678Y-125576173D01*
X152188674Y-125576178D01*
X152112491Y-125690195D01*
X152020586Y-125827740D01*
X151884946Y-126102791D01*
X151883621Y-126106696D01*
X151883620Y-126106697D01*
X151882537Y-126109889D01*
X151786368Y-126393194D01*
X151785565Y-126397233D01*
X151785563Y-126397239D01*
X151773278Y-126459000D01*
X151726538Y-126693979D01*
X151726269Y-126698090D01*
X151726268Y-126698094D01*
X151708643Y-126967000D01*
X151706480Y-127000000D01*
X150292335Y-127000000D01*
X150298778Y-126983829D01*
X150300095Y-126969789D01*
X150295246Y-126967000D01*
X149457115Y-126967000D01*
X149441876Y-126971475D01*
X149440671Y-126972865D01*
X149439000Y-126980548D01*
X149439000Y-127527885D01*
X148931000Y-127527885D01*
X148931000Y-126985115D01*
X148926525Y-126969876D01*
X148925135Y-126968671D01*
X148917452Y-126967000D01*
X148084126Y-126967000D01*
X148070595Y-126970973D01*
X148069408Y-126979233D01*
X145299209Y-126979233D01*
X145300095Y-126969789D01*
X145295246Y-126967000D01*
X144457115Y-126967000D01*
X144441876Y-126971475D01*
X144440671Y-126972865D01*
X144439000Y-126980548D01*
X144439000Y-127527885D01*
X143931000Y-127527885D01*
X143931000Y-126985115D01*
X143926525Y-126969876D01*
X143925135Y-126968671D01*
X143917452Y-126967000D01*
X143084126Y-126967000D01*
X143070595Y-126970973D01*
X143069408Y-126979233D01*
X140108320Y-126979233D01*
X140090442Y-126717870D01*
X140086333Y-126698094D01*
X140036068Y-126456211D01*
X143069905Y-126456211D01*
X143074754Y-126459000D01*
X143912885Y-126459000D01*
X143928124Y-126454525D01*
X143929329Y-126453135D01*
X143931000Y-126445452D01*
X143931000Y-126440885D01*
X144439000Y-126440885D01*
X144443475Y-126456124D01*
X144444865Y-126457329D01*
X144452548Y-126459000D01*
X145285874Y-126459000D01*
X145295373Y-126456211D01*
X148069905Y-126456211D01*
X148074754Y-126459000D01*
X148912885Y-126459000D01*
X148928124Y-126454525D01*
X148929329Y-126453135D01*
X148931000Y-126445452D01*
X148931000Y-126440885D01*
X149439000Y-126440885D01*
X149443475Y-126456124D01*
X149444865Y-126457329D01*
X149452548Y-126459000D01*
X150285874Y-126459000D01*
X150299405Y-126455027D01*
X150300592Y-126446767D01*
X150290230Y-126409443D01*
X150285200Y-126396820D01*
X150206731Y-126248811D01*
X150199107Y-126237567D01*
X150090656Y-126109889D01*
X150080793Y-126100545D01*
X149947429Y-125999164D01*
X149935784Y-125992158D01*
X149783751Y-125921820D01*
X149770872Y-125917481D01*
X149607265Y-125881468D01*
X149593764Y-125880000D01*
X149457115Y-125880000D01*
X149441876Y-125884475D01*
X149440671Y-125885865D01*
X149439000Y-125893548D01*
X149439000Y-126440885D01*
X148931000Y-126440885D01*
X148931000Y-125898115D01*
X148926525Y-125882876D01*
X148925135Y-125881671D01*
X148917452Y-125880000D01*
X148818250Y-125880000D01*
X148811437Y-125880370D01*
X148686667Y-125893939D01*
X148673400Y-125896859D01*
X148514642Y-125950351D01*
X148502317Y-125956053D01*
X148358773Y-126042421D01*
X148347958Y-126050641D01*
X148226334Y-126165849D01*
X148217540Y-126176203D01*
X148123530Y-126314858D01*
X148117166Y-126326863D01*
X148071222Y-126442171D01*
X148069905Y-126456211D01*
X145295373Y-126456211D01*
X145299405Y-126455027D01*
X145300592Y-126446767D01*
X145290230Y-126409443D01*
X145285200Y-126396820D01*
X145206731Y-126248811D01*
X145199107Y-126237567D01*
X145090656Y-126109889D01*
X145080793Y-126100545D01*
X144947429Y-125999164D01*
X144935784Y-125992158D01*
X144783751Y-125921820D01*
X144770872Y-125917481D01*
X144607265Y-125881468D01*
X144593764Y-125880000D01*
X144457115Y-125880000D01*
X144441876Y-125884475D01*
X144440671Y-125885865D01*
X144439000Y-125893548D01*
X144439000Y-126440885D01*
X143931000Y-126440885D01*
X143931000Y-125898115D01*
X143926525Y-125882876D01*
X143925135Y-125881671D01*
X143917452Y-125880000D01*
X143818250Y-125880000D01*
X143811437Y-125880370D01*
X143686667Y-125893939D01*
X143673400Y-125896859D01*
X143514642Y-125950351D01*
X143502317Y-125956053D01*
X143358773Y-126042421D01*
X143347958Y-126050641D01*
X143226334Y-126165849D01*
X143217540Y-126176203D01*
X143123530Y-126314858D01*
X143117166Y-126326863D01*
X143071222Y-126442171D01*
X143069905Y-126456211D01*
X140036068Y-126456211D01*
X140035413Y-126453057D01*
X140035412Y-126453055D01*
X140034538Y-126448847D01*
X139942523Y-126189942D01*
X139816111Y-125945977D01*
X139657657Y-125721498D01*
X139566909Y-125624331D01*
X139473048Y-125523830D01*
X139473043Y-125523825D01*
X139470111Y-125520686D01*
X139256969Y-125347282D01*
X139253300Y-125345051D01*
X139253296Y-125345048D01*
X139025877Y-125206752D01*
X139022200Y-125204516D01*
X138879853Y-125142686D01*
X138774112Y-125096756D01*
X138774109Y-125096755D01*
X138770177Y-125095047D01*
X138505596Y-125020915D01*
X138233385Y-124983500D01*
X137958615Y-124983500D01*
X137686404Y-125020915D01*
X137421823Y-125095047D01*
X137417891Y-125096755D01*
X137417888Y-125096756D01*
X137312147Y-125142686D01*
X137169800Y-125204516D01*
X137166123Y-125206752D01*
X136938704Y-125345048D01*
X136938700Y-125345051D01*
X136935031Y-125347282D01*
X136721889Y-125520686D01*
X136718957Y-125523825D01*
X136718952Y-125523830D01*
X136625091Y-125624331D01*
X136534343Y-125721498D01*
X136375889Y-125945977D01*
X136249477Y-126189942D01*
X136157462Y-126448847D01*
X136156588Y-126453055D01*
X136156587Y-126453057D01*
X136105668Y-126698094D01*
X136101558Y-126717870D01*
X136082807Y-126992000D01*
X130109193Y-126992000D01*
X130090442Y-126717870D01*
X130086333Y-126698094D01*
X130035413Y-126453057D01*
X130035412Y-126453055D01*
X130034538Y-126448847D01*
X129942523Y-126189942D01*
X129816111Y-125945977D01*
X129657657Y-125721498D01*
X129575736Y-125633782D01*
X132009047Y-125633782D01*
X132014879Y-125641573D01*
X132085053Y-125685023D01*
X132095439Y-125690195D01*
X132276049Y-125760164D01*
X132287206Y-125763339D01*
X132477602Y-125798929D01*
X132489157Y-125800000D01*
X132682843Y-125800000D01*
X132694398Y-125798929D01*
X132884794Y-125763339D01*
X132895951Y-125760164D01*
X133076561Y-125690195D01*
X133086947Y-125685023D01*
X133153602Y-125643752D01*
X133163014Y-125633251D01*
X133159120Y-125624331D01*
X132598811Y-125064021D01*
X132584868Y-125056408D01*
X132583034Y-125056539D01*
X132576420Y-125060790D01*
X132015804Y-125621407D01*
X132009047Y-125633782D01*
X129575736Y-125633782D01*
X129566909Y-125624331D01*
X129473048Y-125523830D01*
X129473043Y-125523825D01*
X129470111Y-125520686D01*
X129256969Y-125347282D01*
X129253300Y-125345051D01*
X129253296Y-125345048D01*
X129025877Y-125206752D01*
X129022200Y-125204516D01*
X128879853Y-125142686D01*
X128774112Y-125096756D01*
X128774109Y-125096755D01*
X128770177Y-125095047D01*
X128505596Y-125020915D01*
X128233385Y-124983500D01*
X127958615Y-124983500D01*
X127686404Y-125020915D01*
X127421823Y-125095047D01*
X127417891Y-125096755D01*
X127417888Y-125096756D01*
X127312147Y-125142686D01*
X127169800Y-125204516D01*
X127166123Y-125206752D01*
X126938704Y-125345048D01*
X126938700Y-125345051D01*
X126935031Y-125347282D01*
X126721889Y-125520686D01*
X126718957Y-125523825D01*
X126718952Y-125523830D01*
X126625091Y-125624331D01*
X126534343Y-125721498D01*
X126375889Y-125945977D01*
X126249477Y-126189942D01*
X126157462Y-126448847D01*
X126156588Y-126453055D01*
X126156587Y-126453057D01*
X126105668Y-126698094D01*
X126101558Y-126717870D01*
X126082807Y-126992000D01*
X124869193Y-126992000D01*
X124850442Y-126717870D01*
X124846333Y-126698094D01*
X124795413Y-126453057D01*
X124795412Y-126453055D01*
X124794538Y-126448847D01*
X124702523Y-126189942D01*
X124576111Y-125945977D01*
X124417657Y-125721498D01*
X124326909Y-125624331D01*
X124233048Y-125523830D01*
X124233043Y-125523825D01*
X124230111Y-125520686D01*
X124016969Y-125347282D01*
X124013300Y-125345051D01*
X124013296Y-125345048D01*
X123785877Y-125206752D01*
X123782200Y-125204516D01*
X123639853Y-125142686D01*
X123534112Y-125096756D01*
X123534109Y-125096755D01*
X123530177Y-125095047D01*
X123265596Y-125020915D01*
X122993385Y-124983500D01*
X122718615Y-124983500D01*
X122446404Y-125020915D01*
X122181823Y-125095047D01*
X122177891Y-125096755D01*
X122177888Y-125096756D01*
X122072147Y-125142686D01*
X121929800Y-125204516D01*
X121926123Y-125206752D01*
X121698704Y-125345048D01*
X121698700Y-125345051D01*
X121695031Y-125347282D01*
X121481889Y-125520686D01*
X121478957Y-125523825D01*
X121478952Y-125523830D01*
X121385091Y-125624331D01*
X121294343Y-125721498D01*
X121135889Y-125945977D01*
X121009477Y-126189942D01*
X120917462Y-126448847D01*
X120916588Y-126453055D01*
X120916587Y-126453057D01*
X120865668Y-126698094D01*
X120861558Y-126717870D01*
X120842807Y-126992000D01*
X114869193Y-126992000D01*
X114850442Y-126717870D01*
X114846333Y-126698094D01*
X114795413Y-126453057D01*
X114795412Y-126453055D01*
X114794538Y-126448847D01*
X114702523Y-126189942D01*
X114576111Y-125945977D01*
X114417657Y-125721498D01*
X114335736Y-125633782D01*
X116769047Y-125633782D01*
X116774879Y-125641573D01*
X116845053Y-125685023D01*
X116855439Y-125690195D01*
X117036049Y-125760164D01*
X117047206Y-125763339D01*
X117237602Y-125798929D01*
X117249157Y-125800000D01*
X117442843Y-125800000D01*
X117454398Y-125798929D01*
X117644794Y-125763339D01*
X117655951Y-125760164D01*
X117836561Y-125690195D01*
X117846947Y-125685023D01*
X117913602Y-125643752D01*
X117923014Y-125633251D01*
X117919120Y-125624331D01*
X117358811Y-125064021D01*
X117344868Y-125056408D01*
X117343034Y-125056539D01*
X117336420Y-125060790D01*
X116775804Y-125621407D01*
X116769047Y-125633782D01*
X114335736Y-125633782D01*
X114326909Y-125624331D01*
X114233048Y-125523830D01*
X114233043Y-125523825D01*
X114230111Y-125520686D01*
X114016969Y-125347282D01*
X114013300Y-125345051D01*
X114013296Y-125345048D01*
X113785877Y-125206752D01*
X113782200Y-125204516D01*
X113639853Y-125142686D01*
X113534112Y-125096756D01*
X113534109Y-125096755D01*
X113530177Y-125095047D01*
X113265596Y-125020915D01*
X112993385Y-124983500D01*
X112718615Y-124983500D01*
X112446404Y-125020915D01*
X112181823Y-125095047D01*
X112177891Y-125096755D01*
X112177888Y-125096756D01*
X112072147Y-125142686D01*
X111929800Y-125204516D01*
X111926123Y-125206752D01*
X111698704Y-125345048D01*
X111698700Y-125345051D01*
X111695031Y-125347282D01*
X111481889Y-125520686D01*
X111478957Y-125523825D01*
X111478952Y-125523830D01*
X111385091Y-125624331D01*
X111294343Y-125721498D01*
X111135889Y-125945977D01*
X111009477Y-126189942D01*
X110917462Y-126448847D01*
X110916588Y-126453055D01*
X110916587Y-126453057D01*
X110865668Y-126698094D01*
X110861558Y-126717870D01*
X110842807Y-126992000D01*
X109404996Y-126992000D01*
X109403357Y-126967000D01*
X109385732Y-126698094D01*
X109385731Y-126698090D01*
X109385462Y-126693979D01*
X109338722Y-126459000D01*
X109326437Y-126397239D01*
X109326435Y-126397233D01*
X109325632Y-126393194D01*
X109229464Y-126109889D01*
X109228380Y-126106697D01*
X109228379Y-126106696D01*
X109227054Y-126102791D01*
X109091414Y-125827740D01*
X108999509Y-125690195D01*
X108923326Y-125576178D01*
X108923322Y-125576173D01*
X108921033Y-125572747D01*
X108718826Y-125342174D01*
X108488253Y-125139967D01*
X108484827Y-125137678D01*
X108484822Y-125137674D01*
X108236693Y-124971880D01*
X108233260Y-124969586D01*
X108229561Y-124967762D01*
X108229556Y-124967759D01*
X108073216Y-124890661D01*
X107958209Y-124833946D01*
X107954303Y-124832620D01*
X107671713Y-124736694D01*
X107671710Y-124736693D01*
X107667806Y-124735368D01*
X107663767Y-124734565D01*
X107663761Y-124734563D01*
X107478971Y-124697806D01*
X116233791Y-124697806D01*
X116251662Y-124890661D01*
X116253795Y-124902074D01*
X116306799Y-125088366D01*
X116310990Y-125099185D01*
X116395122Y-125268145D01*
X116400874Y-125272408D01*
X116413089Y-125265700D01*
X116973979Y-124704811D01*
X116980356Y-124693132D01*
X117710408Y-124693132D01*
X117710539Y-124694966D01*
X117714790Y-124701580D01*
X118278804Y-125265593D01*
X118292742Y-125273204D01*
X118298566Y-125272787D01*
X118349600Y-125253892D01*
X118418937Y-125269150D01*
X118458836Y-125303659D01*
X118563299Y-125441991D01*
X118715118Y-125580392D01*
X118720066Y-125583455D01*
X118720069Y-125583458D01*
X118800488Y-125633251D01*
X118889782Y-125688540D01*
X118895216Y-125690645D01*
X118983939Y-125725016D01*
X119081345Y-125762751D01*
X119087063Y-125763820D01*
X119087067Y-125763821D01*
X119277557Y-125799430D01*
X119277559Y-125799430D01*
X119283282Y-125800500D01*
X119488718Y-125800500D01*
X119494441Y-125799430D01*
X119494443Y-125799430D01*
X119684933Y-125763821D01*
X119684937Y-125763820D01*
X119690655Y-125762751D01*
X119788062Y-125725016D01*
X119876784Y-125690645D01*
X119882218Y-125688540D01*
X119971512Y-125633251D01*
X120051931Y-125583458D01*
X120051934Y-125583455D01*
X120056882Y-125580392D01*
X120208701Y-125441991D01*
X120332503Y-125278050D01*
X120335313Y-125272408D01*
X120421476Y-125099369D01*
X120424074Y-125094152D01*
X120455557Y-124983500D01*
X120478701Y-124902159D01*
X120478702Y-124902156D01*
X120480294Y-124896559D01*
X120498711Y-124697806D01*
X131473791Y-124697806D01*
X131491662Y-124890661D01*
X131493795Y-124902074D01*
X131546799Y-125088366D01*
X131550990Y-125099185D01*
X131635122Y-125268145D01*
X131640874Y-125272408D01*
X131653089Y-125265700D01*
X132213979Y-124704811D01*
X132220356Y-124693132D01*
X132950408Y-124693132D01*
X132950539Y-124694966D01*
X132954790Y-124701580D01*
X133518804Y-125265593D01*
X133532742Y-125273204D01*
X133538566Y-125272787D01*
X133589600Y-125253892D01*
X133658937Y-125269150D01*
X133698836Y-125303659D01*
X133803299Y-125441991D01*
X133955118Y-125580392D01*
X133960066Y-125583455D01*
X133960069Y-125583458D01*
X134040488Y-125633251D01*
X134129782Y-125688540D01*
X134135216Y-125690645D01*
X134223939Y-125725016D01*
X134321345Y-125762751D01*
X134327063Y-125763820D01*
X134327067Y-125763821D01*
X134517557Y-125799430D01*
X134517559Y-125799430D01*
X134523282Y-125800500D01*
X134728718Y-125800500D01*
X134734441Y-125799430D01*
X134734443Y-125799430D01*
X134924933Y-125763821D01*
X134924937Y-125763820D01*
X134930655Y-125762751D01*
X135028062Y-125725016D01*
X135116784Y-125690645D01*
X135122218Y-125688540D01*
X135211512Y-125633251D01*
X135291931Y-125583458D01*
X135291934Y-125583455D01*
X135296882Y-125580392D01*
X135448701Y-125441991D01*
X135572503Y-125278050D01*
X135575313Y-125272408D01*
X135661476Y-125099369D01*
X135664074Y-125094152D01*
X135695557Y-124983500D01*
X135718701Y-124902159D01*
X135718702Y-124902156D01*
X135720294Y-124896559D01*
X135739249Y-124692000D01*
X135720294Y-124487441D01*
X135664074Y-124289848D01*
X135578653Y-124118300D01*
X135575101Y-124111167D01*
X135575100Y-124111165D01*
X135572503Y-124105950D01*
X135448701Y-123942009D01*
X135296882Y-123803608D01*
X135291934Y-123800545D01*
X135291931Y-123800542D01*
X135127898Y-123698977D01*
X135122218Y-123695460D01*
X135045571Y-123665767D01*
X134936084Y-123623352D01*
X134936082Y-123623352D01*
X134930655Y-123621249D01*
X134924937Y-123620180D01*
X134924933Y-123620179D01*
X134734443Y-123584570D01*
X134734441Y-123584570D01*
X134728718Y-123583500D01*
X134523282Y-123583500D01*
X134517559Y-123584570D01*
X134517557Y-123584570D01*
X134327067Y-123620179D01*
X134327063Y-123620180D01*
X134321345Y-123621249D01*
X134315918Y-123623352D01*
X134315916Y-123623352D01*
X134206429Y-123665767D01*
X134129782Y-123695460D01*
X134124102Y-123698977D01*
X133960069Y-123800542D01*
X133960066Y-123800545D01*
X133955118Y-123803608D01*
X133803299Y-123942009D01*
X133799787Y-123946660D01*
X133698775Y-124080421D01*
X133641761Y-124122729D01*
X133570925Y-124127496D01*
X133534585Y-124110913D01*
X133532603Y-124110781D01*
X133518911Y-124118300D01*
X132958021Y-124679189D01*
X132950408Y-124693132D01*
X132220356Y-124693132D01*
X132221592Y-124690868D01*
X132221461Y-124689034D01*
X132217210Y-124682420D01*
X131653196Y-124118407D01*
X131640732Y-124111601D01*
X131635182Y-124115735D01*
X131550990Y-124284815D01*
X131546799Y-124295634D01*
X131493795Y-124481926D01*
X131491662Y-124493339D01*
X131473791Y-124686194D01*
X131473791Y-124697806D01*
X120498711Y-124697806D01*
X120499249Y-124692000D01*
X120480294Y-124487441D01*
X120424074Y-124289848D01*
X120338653Y-124118300D01*
X120335101Y-124111167D01*
X120335100Y-124111165D01*
X120332503Y-124105950D01*
X120208701Y-123942009D01*
X120056882Y-123803608D01*
X120051934Y-123800545D01*
X120051931Y-123800542D01*
X119971513Y-123750749D01*
X132008986Y-123750749D01*
X132012880Y-123759669D01*
X132573189Y-124319979D01*
X132587132Y-124327592D01*
X132588966Y-124327461D01*
X132595580Y-124323210D01*
X133156196Y-123762593D01*
X133162953Y-123750218D01*
X133157121Y-123742427D01*
X133086947Y-123698977D01*
X133076561Y-123693805D01*
X132895951Y-123623836D01*
X132884794Y-123620661D01*
X132694398Y-123585071D01*
X132682843Y-123584000D01*
X132489157Y-123584000D01*
X132477602Y-123585071D01*
X132287206Y-123620661D01*
X132276049Y-123623836D01*
X132095439Y-123693805D01*
X132085053Y-123698977D01*
X132018398Y-123740248D01*
X132008986Y-123750749D01*
X119971513Y-123750749D01*
X119887898Y-123698977D01*
X119882218Y-123695460D01*
X119805571Y-123665767D01*
X119696084Y-123623352D01*
X119696082Y-123623352D01*
X119690655Y-123621249D01*
X119684937Y-123620180D01*
X119684933Y-123620179D01*
X119494443Y-123584570D01*
X119494441Y-123584570D01*
X119488718Y-123583500D01*
X119283282Y-123583500D01*
X119277559Y-123584570D01*
X119277557Y-123584570D01*
X119087067Y-123620179D01*
X119087063Y-123620180D01*
X119081345Y-123621249D01*
X119075918Y-123623352D01*
X119075916Y-123623352D01*
X118966429Y-123665767D01*
X118889782Y-123695460D01*
X118884102Y-123698977D01*
X118720069Y-123800542D01*
X118720066Y-123800545D01*
X118715118Y-123803608D01*
X118563299Y-123942009D01*
X118559787Y-123946660D01*
X118458775Y-124080421D01*
X118401761Y-124122729D01*
X118330925Y-124127496D01*
X118294585Y-124110913D01*
X118292603Y-124110781D01*
X118278911Y-124118300D01*
X117718021Y-124679189D01*
X117710408Y-124693132D01*
X116980356Y-124693132D01*
X116981592Y-124690868D01*
X116981461Y-124689034D01*
X116977210Y-124682420D01*
X116413196Y-124118407D01*
X116400732Y-124111601D01*
X116395182Y-124115735D01*
X116310990Y-124284815D01*
X116306799Y-124295634D01*
X116253795Y-124481926D01*
X116251662Y-124493339D01*
X116233791Y-124686194D01*
X116233791Y-124697806D01*
X107478971Y-124697806D01*
X107371064Y-124676342D01*
X107371061Y-124676342D01*
X107367021Y-124675538D01*
X107362910Y-124675269D01*
X107362906Y-124675268D01*
X107139638Y-124660634D01*
X107139629Y-124660634D01*
X107137589Y-124660500D01*
X106984411Y-124660500D01*
X106982371Y-124660634D01*
X106982362Y-124660634D01*
X106759094Y-124675268D01*
X106759090Y-124675269D01*
X106754979Y-124675538D01*
X106750939Y-124676342D01*
X106750936Y-124676342D01*
X106458239Y-124734563D01*
X106458233Y-124734565D01*
X106454194Y-124735368D01*
X106450290Y-124736693D01*
X106450287Y-124736694D01*
X106167697Y-124832620D01*
X106163791Y-124833946D01*
X106048784Y-124890661D01*
X105892444Y-124967759D01*
X105892439Y-124967762D01*
X105888740Y-124969586D01*
X105885307Y-124971880D01*
X105637178Y-125137674D01*
X105637173Y-125137678D01*
X105633747Y-125139967D01*
X105403174Y-125342174D01*
X105200967Y-125572747D01*
X105198678Y-125576173D01*
X105198674Y-125576178D01*
X105122491Y-125690195D01*
X105030586Y-125827740D01*
X104894946Y-126102791D01*
X104893621Y-126106696D01*
X104893620Y-126106697D01*
X104892537Y-126109889D01*
X104796368Y-126393194D01*
X104795565Y-126397233D01*
X104795563Y-126397239D01*
X104783278Y-126459000D01*
X104736538Y-126693979D01*
X104736269Y-126698090D01*
X104736268Y-126698094D01*
X104718643Y-126967000D01*
X104716480Y-127000000D01*
X103959500Y-127000000D01*
X103959500Y-122682000D01*
X107097807Y-122682000D01*
X107116542Y-122896142D01*
X107172178Y-123103777D01*
X107263024Y-123298597D01*
X107386319Y-123474681D01*
X107538319Y-123626681D01*
X107714403Y-123749976D01*
X107719381Y-123752297D01*
X107719384Y-123752299D01*
X107741460Y-123762593D01*
X107909223Y-123840822D01*
X107914531Y-123842244D01*
X107914533Y-123842245D01*
X108111543Y-123895034D01*
X108111545Y-123895034D01*
X108116858Y-123896458D01*
X108331000Y-123915193D01*
X108545142Y-123896458D01*
X108550455Y-123895034D01*
X108550457Y-123895034D01*
X108747467Y-123842245D01*
X108747469Y-123842244D01*
X108752777Y-123840822D01*
X108920540Y-123762593D01*
X108942616Y-123752299D01*
X108942619Y-123752297D01*
X108945939Y-123750749D01*
X116768986Y-123750749D01*
X116772880Y-123759669D01*
X117333189Y-124319979D01*
X117347132Y-124327592D01*
X117348966Y-124327461D01*
X117355580Y-124323210D01*
X117916196Y-123762593D01*
X117922953Y-123750218D01*
X117917121Y-123742427D01*
X117846947Y-123698977D01*
X117836561Y-123693805D01*
X117655951Y-123623836D01*
X117644794Y-123620661D01*
X117454398Y-123585071D01*
X117442843Y-123584000D01*
X117249157Y-123584000D01*
X117237602Y-123585071D01*
X117047206Y-123620661D01*
X117036049Y-123623836D01*
X116855439Y-123693805D01*
X116845053Y-123698977D01*
X116778398Y-123740248D01*
X116768986Y-123750749D01*
X108945939Y-123750749D01*
X108947597Y-123749976D01*
X109123681Y-123626681D01*
X109275681Y-123474681D01*
X109398976Y-123298597D01*
X109489822Y-123103777D01*
X109545458Y-122896142D01*
X109564193Y-122682000D01*
X109545458Y-122467858D01*
X109489822Y-122260223D01*
X109439357Y-122152000D01*
X115212751Y-122152000D01*
X115231706Y-122356559D01*
X115287926Y-122554152D01*
X115290524Y-122559369D01*
X115373895Y-122726799D01*
X115379497Y-122738050D01*
X115503299Y-122901991D01*
X115655118Y-123040392D01*
X115660066Y-123043455D01*
X115660069Y-123043458D01*
X115748912Y-123098467D01*
X115829782Y-123148540D01*
X116021345Y-123222751D01*
X116027063Y-123223820D01*
X116027067Y-123223821D01*
X116217557Y-123259430D01*
X116217559Y-123259430D01*
X116223282Y-123260500D01*
X116428718Y-123260500D01*
X116434441Y-123259430D01*
X116434443Y-123259430D01*
X116624933Y-123223821D01*
X116624937Y-123223820D01*
X116630655Y-123222751D01*
X116822218Y-123148540D01*
X116903088Y-123098467D01*
X116991931Y-123043458D01*
X116991934Y-123043455D01*
X116996882Y-123040392D01*
X117148701Y-122901991D01*
X117245450Y-122773874D01*
X117302463Y-122731567D01*
X117373300Y-122726799D01*
X117435469Y-122761085D01*
X117446549Y-122773873D01*
X117543299Y-122901991D01*
X117695118Y-123040392D01*
X117700066Y-123043455D01*
X117700069Y-123043458D01*
X117788912Y-123098467D01*
X117869782Y-123148540D01*
X118061345Y-123222751D01*
X118067063Y-123223820D01*
X118067067Y-123223821D01*
X118257557Y-123259430D01*
X118257559Y-123259430D01*
X118263282Y-123260500D01*
X118468718Y-123260500D01*
X118474441Y-123259430D01*
X118474443Y-123259430D01*
X118664933Y-123223821D01*
X118664937Y-123223820D01*
X118670655Y-123222751D01*
X118862218Y-123148540D01*
X118943088Y-123098467D01*
X119031931Y-123043458D01*
X119031934Y-123043455D01*
X119036882Y-123040392D01*
X119188701Y-122901991D01*
X119312503Y-122738050D01*
X119318106Y-122726799D01*
X119401476Y-122559369D01*
X119404074Y-122554152D01*
X119460294Y-122356559D01*
X119479249Y-122152000D01*
X130452751Y-122152000D01*
X130471706Y-122356559D01*
X130527926Y-122554152D01*
X130530524Y-122559369D01*
X130613895Y-122726799D01*
X130619497Y-122738050D01*
X130743299Y-122901991D01*
X130895118Y-123040392D01*
X130900066Y-123043455D01*
X130900069Y-123043458D01*
X130988912Y-123098467D01*
X131069782Y-123148540D01*
X131261345Y-123222751D01*
X131267063Y-123223820D01*
X131267067Y-123223821D01*
X131457557Y-123259430D01*
X131457559Y-123259430D01*
X131463282Y-123260500D01*
X131668718Y-123260500D01*
X131674441Y-123259430D01*
X131674443Y-123259430D01*
X131864933Y-123223821D01*
X131864937Y-123223820D01*
X131870655Y-123222751D01*
X132062218Y-123148540D01*
X132143088Y-123098467D01*
X132231931Y-123043458D01*
X132231934Y-123043455D01*
X132236882Y-123040392D01*
X132388701Y-122901991D01*
X132485450Y-122773874D01*
X132542463Y-122731567D01*
X132613300Y-122726799D01*
X132675469Y-122761085D01*
X132686549Y-122773873D01*
X132783299Y-122901991D01*
X132935118Y-123040392D01*
X132940066Y-123043455D01*
X132940069Y-123043458D01*
X133028912Y-123098467D01*
X133109782Y-123148540D01*
X133301345Y-123222751D01*
X133307063Y-123223820D01*
X133307067Y-123223821D01*
X133497557Y-123259430D01*
X133497559Y-123259430D01*
X133503282Y-123260500D01*
X133708718Y-123260500D01*
X133714441Y-123259430D01*
X133714443Y-123259430D01*
X133904933Y-123223821D01*
X133904937Y-123223820D01*
X133910655Y-123222751D01*
X134102218Y-123148540D01*
X134183088Y-123098467D01*
X134271931Y-123043458D01*
X134271934Y-123043455D01*
X134276882Y-123040392D01*
X134428701Y-122901991D01*
X134552503Y-122738050D01*
X134558106Y-122726799D01*
X134641476Y-122559369D01*
X134644074Y-122554152D01*
X134700294Y-122356559D01*
X134719249Y-122152000D01*
X134700294Y-121947441D01*
X134644074Y-121749848D01*
X134576441Y-121614024D01*
X134555101Y-121571167D01*
X134555100Y-121571165D01*
X134552503Y-121565950D01*
X134428701Y-121402009D01*
X134276882Y-121263608D01*
X134271934Y-121260545D01*
X134271931Y-121260542D01*
X134179796Y-121203494D01*
X134102218Y-121155460D01*
X134025571Y-121125767D01*
X133916084Y-121083352D01*
X133916082Y-121083352D01*
X133910655Y-121081249D01*
X133904937Y-121080180D01*
X133904933Y-121080179D01*
X133714443Y-121044570D01*
X133714441Y-121044570D01*
X133708718Y-121043500D01*
X133503282Y-121043500D01*
X133497559Y-121044570D01*
X133497557Y-121044570D01*
X133307067Y-121080179D01*
X133307063Y-121080180D01*
X133301345Y-121081249D01*
X133295918Y-121083352D01*
X133295916Y-121083352D01*
X133186429Y-121125767D01*
X133109782Y-121155460D01*
X133032204Y-121203494D01*
X132940069Y-121260542D01*
X132940066Y-121260545D01*
X132935118Y-121263608D01*
X132783299Y-121402009D01*
X132686550Y-121530126D01*
X132629537Y-121572433D01*
X132558700Y-121577201D01*
X132496531Y-121542915D01*
X132485450Y-121530126D01*
X132388701Y-121402009D01*
X132236882Y-121263608D01*
X132231934Y-121260545D01*
X132231931Y-121260542D01*
X132139796Y-121203494D01*
X132062218Y-121155460D01*
X131985571Y-121125767D01*
X131876084Y-121083352D01*
X131876082Y-121083352D01*
X131870655Y-121081249D01*
X131864937Y-121080180D01*
X131864933Y-121080179D01*
X131674443Y-121044570D01*
X131674441Y-121044570D01*
X131668718Y-121043500D01*
X131463282Y-121043500D01*
X131457559Y-121044570D01*
X131457557Y-121044570D01*
X131267067Y-121080179D01*
X131267063Y-121080180D01*
X131261345Y-121081249D01*
X131255918Y-121083352D01*
X131255916Y-121083352D01*
X131146429Y-121125767D01*
X131069782Y-121155460D01*
X130992204Y-121203494D01*
X130900069Y-121260542D01*
X130900066Y-121260545D01*
X130895118Y-121263608D01*
X130743299Y-121402009D01*
X130619497Y-121565950D01*
X130616900Y-121571165D01*
X130616899Y-121571167D01*
X130595559Y-121614024D01*
X130527926Y-121749848D01*
X130471706Y-121947441D01*
X130452751Y-122152000D01*
X119479249Y-122152000D01*
X119460294Y-121947441D01*
X119404074Y-121749848D01*
X119336441Y-121614024D01*
X119315101Y-121571167D01*
X119315100Y-121571165D01*
X119312503Y-121565950D01*
X119188701Y-121402009D01*
X119036882Y-121263608D01*
X119031934Y-121260545D01*
X119031931Y-121260542D01*
X118939796Y-121203494D01*
X118862218Y-121155460D01*
X118785571Y-121125767D01*
X118676084Y-121083352D01*
X118676082Y-121083352D01*
X118670655Y-121081249D01*
X118664937Y-121080180D01*
X118664933Y-121080179D01*
X118474443Y-121044570D01*
X118474441Y-121044570D01*
X118468718Y-121043500D01*
X118263282Y-121043500D01*
X118257559Y-121044570D01*
X118257557Y-121044570D01*
X118067067Y-121080179D01*
X118067063Y-121080180D01*
X118061345Y-121081249D01*
X118055918Y-121083352D01*
X118055916Y-121083352D01*
X117946429Y-121125767D01*
X117869782Y-121155460D01*
X117792204Y-121203494D01*
X117700069Y-121260542D01*
X117700066Y-121260545D01*
X117695118Y-121263608D01*
X117543299Y-121402009D01*
X117446550Y-121530126D01*
X117389537Y-121572433D01*
X117318700Y-121577201D01*
X117256531Y-121542915D01*
X117245450Y-121530126D01*
X117148701Y-121402009D01*
X116996882Y-121263608D01*
X116991934Y-121260545D01*
X116991931Y-121260542D01*
X116899796Y-121203494D01*
X116822218Y-121155460D01*
X116745571Y-121125767D01*
X116636084Y-121083352D01*
X116636082Y-121083352D01*
X116630655Y-121081249D01*
X116624937Y-121080180D01*
X116624933Y-121080179D01*
X116434443Y-121044570D01*
X116434441Y-121044570D01*
X116428718Y-121043500D01*
X116223282Y-121043500D01*
X116217559Y-121044570D01*
X116217557Y-121044570D01*
X116027067Y-121080179D01*
X116027063Y-121080180D01*
X116021345Y-121081249D01*
X116015918Y-121083352D01*
X116015916Y-121083352D01*
X115906429Y-121125767D01*
X115829782Y-121155460D01*
X115752204Y-121203494D01*
X115660069Y-121260542D01*
X115660066Y-121260545D01*
X115655118Y-121263608D01*
X115503299Y-121402009D01*
X115379497Y-121565950D01*
X115376900Y-121571165D01*
X115376899Y-121571167D01*
X115355559Y-121614024D01*
X115287926Y-121749848D01*
X115231706Y-121947441D01*
X115212751Y-122152000D01*
X109439357Y-122152000D01*
X109401299Y-122070385D01*
X109401297Y-122070382D01*
X109398976Y-122065404D01*
X109275681Y-121889319D01*
X109123681Y-121737319D01*
X108947597Y-121614024D01*
X108942619Y-121611703D01*
X108942616Y-121611701D01*
X108759247Y-121526195D01*
X108705962Y-121479278D01*
X108686501Y-121411000D01*
X108707043Y-121343041D01*
X108759247Y-121297805D01*
X108942616Y-121212299D01*
X108942619Y-121212297D01*
X108947597Y-121209976D01*
X109123681Y-121086681D01*
X109275681Y-120934681D01*
X109398976Y-120758597D01*
X109409617Y-120735779D01*
X109487499Y-120568759D01*
X109487500Y-120568758D01*
X109489822Y-120563777D01*
X109495694Y-120541865D01*
X109544034Y-120361457D01*
X109544034Y-120361455D01*
X109544826Y-120358500D01*
X134849496Y-120358500D01*
X134869458Y-120548428D01*
X134928473Y-120730056D01*
X135023960Y-120895444D01*
X135151747Y-121037366D01*
X135306248Y-121149618D01*
X135312276Y-121152302D01*
X135312278Y-121152303D01*
X135474681Y-121224609D01*
X135480712Y-121227294D01*
X135574113Y-121247147D01*
X135661056Y-121265628D01*
X135661061Y-121265628D01*
X135667513Y-121267000D01*
X135858487Y-121267000D01*
X135864939Y-121265628D01*
X135864944Y-121265628D01*
X135951887Y-121247147D01*
X136045288Y-121227294D01*
X136051319Y-121224609D01*
X136213722Y-121152303D01*
X136213724Y-121152302D01*
X136219752Y-121149618D01*
X136374253Y-121037366D01*
X136502040Y-120895444D01*
X136597527Y-120730056D01*
X136656542Y-120548428D01*
X136676504Y-120358500D01*
X136656542Y-120168572D01*
X136597527Y-119986944D01*
X136566578Y-119933338D01*
X136505341Y-119827274D01*
X136502040Y-119821556D01*
X136410800Y-119720223D01*
X136378675Y-119684545D01*
X136378674Y-119684544D01*
X136374253Y-119679634D01*
X136219752Y-119567382D01*
X136213724Y-119564698D01*
X136213722Y-119564697D01*
X136051319Y-119492391D01*
X136051318Y-119492391D01*
X136045288Y-119489706D01*
X135951887Y-119469853D01*
X135864944Y-119451372D01*
X135864939Y-119451372D01*
X135858487Y-119450000D01*
X135667513Y-119450000D01*
X135661061Y-119451372D01*
X135661056Y-119451372D01*
X135574113Y-119469853D01*
X135480712Y-119489706D01*
X135474682Y-119492391D01*
X135474681Y-119492391D01*
X135312278Y-119564697D01*
X135312276Y-119564698D01*
X135306248Y-119567382D01*
X135151747Y-119679634D01*
X135147326Y-119684544D01*
X135147325Y-119684545D01*
X135115201Y-119720223D01*
X135023960Y-119821556D01*
X135020659Y-119827274D01*
X134959423Y-119933338D01*
X134928473Y-119986944D01*
X134869458Y-120168572D01*
X134849496Y-120358500D01*
X109544826Y-120358500D01*
X109545458Y-120356142D01*
X109564193Y-120142000D01*
X109545458Y-119927858D01*
X109544034Y-119922543D01*
X109491245Y-119725533D01*
X109491244Y-119725531D01*
X109489822Y-119720223D01*
X109469084Y-119675751D01*
X109401299Y-119530385D01*
X109401297Y-119530382D01*
X109398976Y-119525404D01*
X109275681Y-119349319D01*
X109123681Y-119197319D01*
X108947597Y-119074024D01*
X108942619Y-119071703D01*
X108942616Y-119071701D01*
X108759247Y-118986195D01*
X108705962Y-118939278D01*
X108686501Y-118871000D01*
X108707043Y-118803041D01*
X108759247Y-118757805D01*
X108942616Y-118672299D01*
X108942619Y-118672297D01*
X108947597Y-118669976D01*
X109123681Y-118546681D01*
X109275681Y-118394681D01*
X109398976Y-118218597D01*
X109489822Y-118023777D01*
X109545458Y-117816142D01*
X109564193Y-117602000D01*
X109545458Y-117387858D01*
X109489822Y-117180223D01*
X109398976Y-116985404D01*
X109275681Y-116809319D01*
X109123681Y-116657319D01*
X108947597Y-116534024D01*
X108942619Y-116531703D01*
X108942616Y-116531701D01*
X108757759Y-116445501D01*
X108757758Y-116445500D01*
X108752777Y-116443178D01*
X108747469Y-116441756D01*
X108747467Y-116441755D01*
X108550457Y-116388966D01*
X108550455Y-116388966D01*
X108545142Y-116387542D01*
X108331000Y-116368807D01*
X108116858Y-116387542D01*
X108111545Y-116388966D01*
X108111543Y-116388966D01*
X107914533Y-116441755D01*
X107914531Y-116441756D01*
X107909223Y-116443178D01*
X107904243Y-116445500D01*
X107904241Y-116445501D01*
X107719385Y-116531701D01*
X107719382Y-116531703D01*
X107714404Y-116534024D01*
X107538319Y-116657319D01*
X107386319Y-116809319D01*
X107263024Y-116985404D01*
X107172178Y-117180223D01*
X107116542Y-117387858D01*
X107097807Y-117602000D01*
X107116542Y-117816142D01*
X107172178Y-118023777D01*
X107263024Y-118218597D01*
X107386319Y-118394681D01*
X107538319Y-118546681D01*
X107714403Y-118669976D01*
X107719381Y-118672297D01*
X107719384Y-118672299D01*
X107902753Y-118757805D01*
X107956038Y-118804722D01*
X107975499Y-118873000D01*
X107954957Y-118940959D01*
X107902753Y-118986195D01*
X107719385Y-119071701D01*
X107719382Y-119071703D01*
X107714404Y-119074024D01*
X107538319Y-119197319D01*
X107386319Y-119349319D01*
X107263024Y-119525404D01*
X107260703Y-119530382D01*
X107260701Y-119530385D01*
X107192916Y-119675751D01*
X107172178Y-119720223D01*
X107170756Y-119725531D01*
X107170755Y-119725533D01*
X107117966Y-119922543D01*
X107116542Y-119927858D01*
X107097807Y-120142000D01*
X107116542Y-120356142D01*
X107117966Y-120361455D01*
X107117966Y-120361457D01*
X107166307Y-120541865D01*
X107172178Y-120563777D01*
X107174500Y-120568758D01*
X107174501Y-120568759D01*
X107252384Y-120735779D01*
X107263024Y-120758597D01*
X107386319Y-120934681D01*
X107538319Y-121086681D01*
X107714403Y-121209976D01*
X107719381Y-121212297D01*
X107719384Y-121212299D01*
X107902753Y-121297805D01*
X107956038Y-121344722D01*
X107975499Y-121413000D01*
X107954957Y-121480959D01*
X107902753Y-121526195D01*
X107719385Y-121611701D01*
X107719382Y-121611703D01*
X107714404Y-121614024D01*
X107538319Y-121737319D01*
X107386319Y-121889319D01*
X107263024Y-122065404D01*
X107260703Y-122070382D01*
X107260701Y-122070385D01*
X107222643Y-122152000D01*
X107172178Y-122260223D01*
X107116542Y-122467858D01*
X107097807Y-122682000D01*
X103959500Y-122682000D01*
X103959500Y-112014000D01*
X105341844Y-112014000D01*
X105342274Y-112019189D01*
X105358016Y-112209160D01*
X105360436Y-112238368D01*
X105415704Y-112456616D01*
X105417800Y-112461394D01*
X105452457Y-112540404D01*
X105506140Y-112662791D01*
X105629278Y-112851268D01*
X105632803Y-112855097D01*
X105632806Y-112855101D01*
X105713593Y-112942858D01*
X105781760Y-113016906D01*
X105785879Y-113020112D01*
X105954717Y-113151525D01*
X105959424Y-113155189D01*
X106017085Y-113186393D01*
X106111378Y-113237422D01*
X106157426Y-113262342D01*
X106370365Y-113335444D01*
X106375499Y-113336301D01*
X106375504Y-113336302D01*
X106587294Y-113371643D01*
X106587296Y-113371643D01*
X106592431Y-113372500D01*
X106817569Y-113372500D01*
X106822704Y-113371643D01*
X106822706Y-113371643D01*
X107034496Y-113336302D01*
X107034501Y-113336301D01*
X107039635Y-113335444D01*
X107252574Y-113262342D01*
X107298623Y-113237422D01*
X107392915Y-113186393D01*
X107447230Y-113157000D01*
X143927807Y-113157000D01*
X143946542Y-113371142D01*
X143947966Y-113376455D01*
X143947966Y-113376457D01*
X143970584Y-113460866D01*
X144002178Y-113578777D01*
X144093024Y-113773597D01*
X144216319Y-113949681D01*
X144368319Y-114101681D01*
X144544403Y-114224976D01*
X144549381Y-114227297D01*
X144549384Y-114227299D01*
X144734241Y-114313499D01*
X144739223Y-114315822D01*
X144744531Y-114317244D01*
X144744533Y-114317245D01*
X144941543Y-114370034D01*
X144941545Y-114370034D01*
X144946858Y-114371458D01*
X145161000Y-114390193D01*
X145375142Y-114371458D01*
X145380455Y-114370034D01*
X145380457Y-114370034D01*
X145577467Y-114317245D01*
X145577469Y-114317244D01*
X145582777Y-114315822D01*
X145587759Y-114313499D01*
X145772616Y-114227299D01*
X145772619Y-114227297D01*
X145777597Y-114224976D01*
X145953681Y-114101681D01*
X146105681Y-113949681D01*
X146228976Y-113773597D01*
X146319822Y-113578777D01*
X146351417Y-113460866D01*
X146374034Y-113376457D01*
X146374034Y-113376455D01*
X146375458Y-113371142D01*
X146394193Y-113157000D01*
X146382054Y-113018250D01*
X152585844Y-113018250D01*
X152586274Y-113023439D01*
X152597397Y-113157668D01*
X152604436Y-113242618D01*
X152605717Y-113247676D01*
X152605717Y-113247677D01*
X152609860Y-113264035D01*
X152659704Y-113460866D01*
X152750140Y-113667041D01*
X152873278Y-113855518D01*
X152876803Y-113859347D01*
X152876806Y-113859351D01*
X152955808Y-113945169D01*
X153025760Y-114021156D01*
X153203424Y-114159439D01*
X153208005Y-114161918D01*
X153328819Y-114227299D01*
X153401426Y-114266592D01*
X153614365Y-114339694D01*
X153619499Y-114340551D01*
X153619504Y-114340552D01*
X153831294Y-114375893D01*
X153831296Y-114375893D01*
X153836431Y-114376750D01*
X154061569Y-114376750D01*
X154066704Y-114375893D01*
X154066706Y-114375893D01*
X154278496Y-114340552D01*
X154278501Y-114340551D01*
X154283635Y-114339694D01*
X154496574Y-114266592D01*
X154569182Y-114227299D01*
X154689995Y-114161918D01*
X154694576Y-114159439D01*
X154872240Y-114021156D01*
X154942192Y-113945169D01*
X155021194Y-113859351D01*
X155021197Y-113859347D01*
X155024722Y-113855518D01*
X155147860Y-113667041D01*
X155238296Y-113460866D01*
X155288141Y-113264035D01*
X155292283Y-113247677D01*
X155292283Y-113247676D01*
X155293564Y-113242618D01*
X155300604Y-113157668D01*
X155311726Y-113023439D01*
X155312156Y-113018250D01*
X155298637Y-112855101D01*
X155293995Y-112799078D01*
X155293994Y-112799073D01*
X155293564Y-112793882D01*
X155280054Y-112740533D01*
X155239578Y-112580696D01*
X155239578Y-112580695D01*
X155238296Y-112575634D01*
X155147860Y-112369459D01*
X155141958Y-112360424D01*
X155027573Y-112185346D01*
X155024722Y-112180982D01*
X155021197Y-112177153D01*
X155021194Y-112177149D01*
X154881525Y-112025430D01*
X154850104Y-111961765D01*
X154858091Y-111891219D01*
X154902949Y-111836190D01*
X154930191Y-111822037D01*
X155045204Y-111779139D01*
X155053666Y-111772805D01*
X155155050Y-111696909D01*
X155162261Y-111691511D01*
X155249889Y-111574454D01*
X155300989Y-111437451D01*
X155304957Y-111400545D01*
X155307140Y-111380238D01*
X155307140Y-111380235D01*
X155307500Y-111376888D01*
X155307500Y-109579612D01*
X155300989Y-109519049D01*
X155249889Y-109382046D01*
X155224403Y-109348000D01*
X155167659Y-109272200D01*
X155162261Y-109264989D01*
X155045204Y-109177361D01*
X154908201Y-109126261D01*
X154871295Y-109122293D01*
X154850988Y-109120110D01*
X154850985Y-109120110D01*
X154847638Y-109119750D01*
X153050362Y-109119750D01*
X153047015Y-109120110D01*
X153047012Y-109120110D01*
X153026705Y-109122293D01*
X152989799Y-109126261D01*
X152852796Y-109177361D01*
X152735739Y-109264989D01*
X152730341Y-109272200D01*
X152673598Y-109348000D01*
X152648111Y-109382046D01*
X152597011Y-109519049D01*
X152590500Y-109579612D01*
X152590500Y-111376888D01*
X152590860Y-111380235D01*
X152590860Y-111380238D01*
X152593043Y-111400545D01*
X152597011Y-111437451D01*
X152648111Y-111574454D01*
X152735739Y-111691511D01*
X152742950Y-111696909D01*
X152844335Y-111772805D01*
X152852796Y-111779139D01*
X152967808Y-111822037D01*
X153024642Y-111864583D01*
X153049453Y-111931103D01*
X153034361Y-112000477D01*
X153016475Y-112025430D01*
X152876806Y-112177149D01*
X152876803Y-112177153D01*
X152873278Y-112180982D01*
X152870427Y-112185346D01*
X152756043Y-112360424D01*
X152750140Y-112369459D01*
X152659704Y-112575634D01*
X152658422Y-112580695D01*
X152658422Y-112580696D01*
X152617946Y-112740533D01*
X152604436Y-112793882D01*
X152604006Y-112799073D01*
X152604005Y-112799078D01*
X152599363Y-112855101D01*
X152585844Y-113018250D01*
X146382054Y-113018250D01*
X146375458Y-112942858D01*
X146374034Y-112937543D01*
X146321245Y-112740533D01*
X146321244Y-112740531D01*
X146319822Y-112735223D01*
X146228976Y-112540404D01*
X146105681Y-112364319D01*
X145953681Y-112212319D01*
X145777597Y-112089024D01*
X145772619Y-112086703D01*
X145772616Y-112086701D01*
X145589247Y-112001195D01*
X145535962Y-111954278D01*
X145516501Y-111886000D01*
X145537043Y-111818041D01*
X145589247Y-111772805D01*
X145772616Y-111687299D01*
X145772619Y-111687297D01*
X145777597Y-111684976D01*
X145953681Y-111561681D01*
X146105681Y-111409681D01*
X146228976Y-111233597D01*
X146319822Y-111038777D01*
X146328979Y-111004605D01*
X146374034Y-110836457D01*
X146374034Y-110836455D01*
X146375458Y-110831142D01*
X146394193Y-110617000D01*
X146375458Y-110402858D01*
X146319822Y-110195223D01*
X146228976Y-110000404D01*
X146105681Y-109824319D01*
X145953681Y-109672319D01*
X145777597Y-109549024D01*
X145772619Y-109546703D01*
X145772616Y-109546701D01*
X145589247Y-109461195D01*
X145535962Y-109414278D01*
X145516501Y-109346000D01*
X145537043Y-109278041D01*
X145589247Y-109232805D01*
X145772616Y-109147299D01*
X145772619Y-109147297D01*
X145777597Y-109144976D01*
X145953681Y-109021681D01*
X146105681Y-108869681D01*
X146228976Y-108693597D01*
X146319822Y-108498777D01*
X146375458Y-108291142D01*
X146394193Y-108077000D01*
X146375458Y-107862858D01*
X146319822Y-107655223D01*
X146228976Y-107460404D01*
X146105681Y-107284319D01*
X145953681Y-107132319D01*
X145777597Y-107009024D01*
X145772619Y-107006703D01*
X145772616Y-107006701D01*
X145587759Y-106920501D01*
X145587758Y-106920500D01*
X145582777Y-106918178D01*
X145577469Y-106916756D01*
X145577467Y-106916755D01*
X145380457Y-106863966D01*
X145380455Y-106863966D01*
X145375142Y-106862542D01*
X145161000Y-106843807D01*
X144946858Y-106862542D01*
X144941545Y-106863966D01*
X144941543Y-106863966D01*
X144744533Y-106916755D01*
X144744531Y-106916756D01*
X144739223Y-106918178D01*
X144734243Y-106920500D01*
X144734241Y-106920501D01*
X144549385Y-107006701D01*
X144549382Y-107006703D01*
X144544404Y-107009024D01*
X144368319Y-107132319D01*
X144216319Y-107284319D01*
X144093024Y-107460404D01*
X144002178Y-107655223D01*
X143946542Y-107862858D01*
X143927807Y-108077000D01*
X143946542Y-108291142D01*
X144002178Y-108498777D01*
X144093024Y-108693597D01*
X144216319Y-108869681D01*
X144368319Y-109021681D01*
X144544403Y-109144976D01*
X144549381Y-109147297D01*
X144549384Y-109147299D01*
X144732753Y-109232805D01*
X144786038Y-109279722D01*
X144805499Y-109348000D01*
X144784957Y-109415959D01*
X144732753Y-109461195D01*
X144549385Y-109546701D01*
X144549382Y-109546703D01*
X144544404Y-109549024D01*
X144368319Y-109672319D01*
X144216319Y-109824319D01*
X144093024Y-110000404D01*
X144002178Y-110195223D01*
X143946542Y-110402858D01*
X143927807Y-110617000D01*
X143946542Y-110831142D01*
X143947966Y-110836455D01*
X143947966Y-110836457D01*
X143993022Y-111004605D01*
X144002178Y-111038777D01*
X144093024Y-111233597D01*
X144216319Y-111409681D01*
X144368319Y-111561681D01*
X144544403Y-111684976D01*
X144549381Y-111687297D01*
X144549384Y-111687299D01*
X144732753Y-111772805D01*
X144786038Y-111819722D01*
X144805499Y-111888000D01*
X144784957Y-111955959D01*
X144732753Y-112001195D01*
X144549385Y-112086701D01*
X144549382Y-112086703D01*
X144544404Y-112089024D01*
X144368319Y-112212319D01*
X144216319Y-112364319D01*
X144093024Y-112540404D01*
X144002178Y-112735223D01*
X144000756Y-112740531D01*
X144000755Y-112740533D01*
X143947966Y-112937543D01*
X143946542Y-112942858D01*
X143927807Y-113157000D01*
X107447230Y-113157000D01*
X107450576Y-113155189D01*
X107455284Y-113151525D01*
X107624121Y-113020112D01*
X107628240Y-113016906D01*
X107696407Y-112942858D01*
X107777194Y-112855101D01*
X107777197Y-112855097D01*
X107780722Y-112851268D01*
X107903860Y-112662791D01*
X107957544Y-112540404D01*
X107992200Y-112461394D01*
X107994296Y-112456616D01*
X108049564Y-112238368D01*
X108051985Y-112209160D01*
X108067726Y-112019189D01*
X108068156Y-112014000D01*
X108065263Y-111979088D01*
X108049995Y-111794828D01*
X108049994Y-111794823D01*
X108049564Y-111789632D01*
X108023650Y-111687299D01*
X107995578Y-111576446D01*
X107995578Y-111576445D01*
X107994296Y-111571384D01*
X107912180Y-111384176D01*
X107905954Y-111369982D01*
X107905952Y-111369978D01*
X107903860Y-111365209D01*
X107788064Y-111187970D01*
X120631450Y-111187970D01*
X120632140Y-111194535D01*
X120636246Y-111233597D01*
X120651412Y-111377898D01*
X120710427Y-111559526D01*
X120713730Y-111565248D01*
X120713731Y-111565249D01*
X120717273Y-111571384D01*
X120805914Y-111724914D01*
X120810332Y-111729821D01*
X120810333Y-111729822D01*
X120929279Y-111861925D01*
X120933701Y-111866836D01*
X121088202Y-111979088D01*
X121094230Y-111981772D01*
X121094232Y-111981773D01*
X121192288Y-112025430D01*
X121262666Y-112056764D01*
X121356067Y-112076617D01*
X121443010Y-112095098D01*
X121443015Y-112095098D01*
X121449467Y-112096470D01*
X121640441Y-112096470D01*
X121646893Y-112095098D01*
X121646898Y-112095098D01*
X121733842Y-112076617D01*
X121827242Y-112056764D01*
X121897620Y-112025430D01*
X121995676Y-111981773D01*
X121995678Y-111981772D01*
X122001706Y-111979088D01*
X122156207Y-111866836D01*
X122160629Y-111861925D01*
X122279575Y-111729822D01*
X122279576Y-111729821D01*
X122283994Y-111724914D01*
X122372635Y-111571384D01*
X122376177Y-111565249D01*
X122376178Y-111565248D01*
X122379481Y-111559526D01*
X122438496Y-111377898D01*
X122453663Y-111233597D01*
X122457768Y-111194535D01*
X122458458Y-111187970D01*
X122443301Y-111043759D01*
X122439186Y-111004605D01*
X122439186Y-111004603D01*
X122438496Y-110998042D01*
X122379481Y-110816414D01*
X122355507Y-110774889D01*
X122287295Y-110656744D01*
X122283994Y-110651026D01*
X122156207Y-110509104D01*
X122001706Y-110396852D01*
X121995678Y-110394168D01*
X121995676Y-110394167D01*
X121833273Y-110321861D01*
X121833272Y-110321861D01*
X121827242Y-110319176D01*
X121733842Y-110299323D01*
X121646898Y-110280842D01*
X121646893Y-110280842D01*
X121640441Y-110279470D01*
X121449467Y-110279470D01*
X121443015Y-110280842D01*
X121443010Y-110280842D01*
X121356067Y-110299323D01*
X121262666Y-110319176D01*
X121256636Y-110321861D01*
X121256635Y-110321861D01*
X121094232Y-110394167D01*
X121094230Y-110394168D01*
X121088202Y-110396852D01*
X120933701Y-110509104D01*
X120805914Y-110651026D01*
X120802613Y-110656744D01*
X120734402Y-110774889D01*
X120710427Y-110816414D01*
X120651412Y-110998042D01*
X120650722Y-111004603D01*
X120650722Y-111004605D01*
X120646607Y-111043759D01*
X120631450Y-111187970D01*
X107788064Y-111187970D01*
X107780722Y-111176732D01*
X107777197Y-111172903D01*
X107777194Y-111172899D01*
X107637525Y-111021180D01*
X107606104Y-110957515D01*
X107614091Y-110886969D01*
X107658949Y-110831940D01*
X107686191Y-110817787D01*
X107801204Y-110774889D01*
X107918261Y-110687261D01*
X107970858Y-110617000D01*
X108000489Y-110577418D01*
X108000490Y-110577416D01*
X108005889Y-110570204D01*
X108056989Y-110433201D01*
X108063500Y-110372638D01*
X108063500Y-108575362D01*
X108056989Y-108514799D01*
X108005889Y-108377796D01*
X107918261Y-108260739D01*
X107801204Y-108173111D01*
X107664201Y-108122011D01*
X107627295Y-108118043D01*
X107606988Y-108115860D01*
X107606985Y-108115860D01*
X107603638Y-108115500D01*
X105806362Y-108115500D01*
X105803015Y-108115860D01*
X105803012Y-108115860D01*
X105782705Y-108118043D01*
X105745799Y-108122011D01*
X105608796Y-108173111D01*
X105491739Y-108260739D01*
X105404111Y-108377796D01*
X105353011Y-108514799D01*
X105346500Y-108575362D01*
X105346500Y-110372638D01*
X105353011Y-110433201D01*
X105404111Y-110570204D01*
X105409510Y-110577416D01*
X105409511Y-110577418D01*
X105439142Y-110617000D01*
X105491739Y-110687261D01*
X105608796Y-110774889D01*
X105723808Y-110817787D01*
X105780642Y-110860333D01*
X105805453Y-110926853D01*
X105790361Y-110996227D01*
X105772475Y-111021180D01*
X105632806Y-111172899D01*
X105632803Y-111172903D01*
X105629278Y-111176732D01*
X105506140Y-111365209D01*
X105504048Y-111369978D01*
X105504046Y-111369982D01*
X105497820Y-111384176D01*
X105415704Y-111571384D01*
X105414422Y-111576445D01*
X105414422Y-111576446D01*
X105386350Y-111687299D01*
X105360436Y-111789632D01*
X105360006Y-111794823D01*
X105360005Y-111794828D01*
X105344737Y-111979088D01*
X105341844Y-112014000D01*
X103959500Y-112014000D01*
X103959500Y-102636000D01*
X105214844Y-102636000D01*
X105215274Y-102641189D01*
X105232931Y-102854271D01*
X105233436Y-102860368D01*
X105234717Y-102865426D01*
X105234717Y-102865427D01*
X105275366Y-103025944D01*
X105288704Y-103078616D01*
X105290800Y-103083394D01*
X105367198Y-103257565D01*
X105379140Y-103284791D01*
X105381990Y-103289153D01*
X105381992Y-103289157D01*
X105451880Y-103396128D01*
X105502278Y-103473268D01*
X105505803Y-103477097D01*
X105505806Y-103477101D01*
X105562653Y-103538852D01*
X105654760Y-103638906D01*
X105832424Y-103777189D01*
X105837005Y-103779668D01*
X105991191Y-103863109D01*
X106030426Y-103884342D01*
X106243365Y-103957444D01*
X106248499Y-103958301D01*
X106248504Y-103958302D01*
X106460294Y-103993643D01*
X106460296Y-103993643D01*
X106465431Y-103994500D01*
X106690569Y-103994500D01*
X106695704Y-103993643D01*
X106695706Y-103993643D01*
X106907496Y-103958302D01*
X106907501Y-103958301D01*
X106912635Y-103957444D01*
X107125574Y-103884342D01*
X107164810Y-103863109D01*
X107318995Y-103779668D01*
X107323576Y-103777189D01*
X107501240Y-103638906D01*
X107593347Y-103538852D01*
X107650194Y-103477101D01*
X107650197Y-103477097D01*
X107653722Y-103473268D01*
X107704120Y-103396128D01*
X107774008Y-103289157D01*
X107774010Y-103289153D01*
X107776860Y-103284791D01*
X107788803Y-103257565D01*
X107865200Y-103083394D01*
X107867296Y-103078616D01*
X107880635Y-103025944D01*
X107921283Y-102865427D01*
X107921283Y-102865426D01*
X107922564Y-102860368D01*
X107923070Y-102854271D01*
X107940726Y-102641189D01*
X107941156Y-102636000D01*
X107939807Y-102619721D01*
X107928975Y-102489000D01*
X120112496Y-102489000D01*
X120113186Y-102495565D01*
X120128492Y-102641189D01*
X120132458Y-102678928D01*
X120191473Y-102860556D01*
X120286960Y-103025944D01*
X120291378Y-103030851D01*
X120291379Y-103030852D01*
X120318589Y-103061072D01*
X120414747Y-103167866D01*
X120452183Y-103195065D01*
X120538207Y-103257565D01*
X120569248Y-103280118D01*
X120575276Y-103282802D01*
X120575278Y-103282803D01*
X120737681Y-103355109D01*
X120743712Y-103357794D01*
X120837112Y-103377647D01*
X120924056Y-103396128D01*
X120924061Y-103396128D01*
X120930513Y-103397500D01*
X121121487Y-103397500D01*
X121127939Y-103396128D01*
X121127944Y-103396128D01*
X121214888Y-103377647D01*
X121308288Y-103357794D01*
X121314319Y-103355109D01*
X121476722Y-103282803D01*
X121476724Y-103282802D01*
X121482752Y-103280118D01*
X121513794Y-103257565D01*
X121522830Y-103251000D01*
X123038496Y-103251000D01*
X123039186Y-103257565D01*
X123053894Y-103397500D01*
X123058458Y-103440928D01*
X123117473Y-103622556D01*
X123212960Y-103787944D01*
X123340747Y-103929866D01*
X123495248Y-104042118D01*
X123501276Y-104044802D01*
X123501278Y-104044803D01*
X123663681Y-104117109D01*
X123669712Y-104119794D01*
X123763113Y-104139647D01*
X123850056Y-104158128D01*
X123850061Y-104158128D01*
X123856513Y-104159500D01*
X124047487Y-104159500D01*
X124053939Y-104158128D01*
X124053944Y-104158128D01*
X124140887Y-104139647D01*
X124234288Y-104119794D01*
X124240319Y-104117109D01*
X124402722Y-104044803D01*
X124402724Y-104044802D01*
X124408752Y-104042118D01*
X124563253Y-103929866D01*
X124691040Y-103787944D01*
X124786527Y-103622556D01*
X124845542Y-103440928D01*
X124848404Y-103413698D01*
X124875418Y-103348042D01*
X124933640Y-103307413D01*
X125004585Y-103304710D01*
X125065729Y-103340793D01*
X125093546Y-103387933D01*
X125149473Y-103560056D01*
X125244960Y-103725444D01*
X125372747Y-103867366D01*
X125527248Y-103979618D01*
X125533276Y-103982302D01*
X125533278Y-103982303D01*
X125695681Y-104054609D01*
X125701712Y-104057294D01*
X125795113Y-104077147D01*
X125882056Y-104095628D01*
X125882061Y-104095628D01*
X125888513Y-104097000D01*
X126079487Y-104097000D01*
X126085939Y-104095628D01*
X126085944Y-104095628D01*
X126172887Y-104077147D01*
X126266288Y-104057294D01*
X126272319Y-104054609D01*
X126434722Y-103982303D01*
X126434724Y-103982302D01*
X126440752Y-103979618D01*
X126595253Y-103867366D01*
X126723040Y-103725444D01*
X126818527Y-103560056D01*
X126877542Y-103378428D01*
X126879567Y-103359166D01*
X126896814Y-103195065D01*
X126897504Y-103188500D01*
X126891575Y-103132087D01*
X126878232Y-103005135D01*
X126878232Y-103005133D01*
X126877542Y-102998572D01*
X126877031Y-102997000D01*
X135992496Y-102997000D01*
X135993186Y-103003565D01*
X136010863Y-103171749D01*
X136012458Y-103186928D01*
X136071473Y-103368556D01*
X136074776Y-103374278D01*
X136074777Y-103374279D01*
X136080797Y-103384706D01*
X136166960Y-103533944D01*
X136171378Y-103538851D01*
X136171379Y-103538852D01*
X136258013Y-103635069D01*
X136294747Y-103675866D01*
X136355115Y-103719726D01*
X136437618Y-103779668D01*
X136449248Y-103788118D01*
X136455276Y-103790802D01*
X136455278Y-103790803D01*
X136616212Y-103862455D01*
X136623712Y-103865794D01*
X136699301Y-103881861D01*
X136804056Y-103904128D01*
X136804061Y-103904128D01*
X136810513Y-103905500D01*
X137001487Y-103905500D01*
X137007939Y-103904128D01*
X137007944Y-103904128D01*
X137112699Y-103881861D01*
X137188288Y-103865794D01*
X137195788Y-103862455D01*
X137356722Y-103790803D01*
X137356724Y-103790802D01*
X137362752Y-103788118D01*
X137374383Y-103779668D01*
X137456885Y-103719726D01*
X137517253Y-103675866D01*
X137553987Y-103635069D01*
X137640621Y-103538852D01*
X137640622Y-103538851D01*
X137645040Y-103533944D01*
X137731203Y-103384706D01*
X137737223Y-103374279D01*
X137737224Y-103374278D01*
X137740527Y-103368556D01*
X137799542Y-103186928D01*
X137801138Y-103171749D01*
X137818814Y-103003565D01*
X137819504Y-102997000D01*
X137805144Y-102860368D01*
X137800232Y-102813635D01*
X137800232Y-102813633D01*
X137799542Y-102807072D01*
X137740527Y-102625444D01*
X137712847Y-102577500D01*
X137661751Y-102489000D01*
X137645040Y-102460056D01*
X137606118Y-102416828D01*
X137521675Y-102323045D01*
X137521674Y-102323044D01*
X137517253Y-102318134D01*
X137362752Y-102205882D01*
X137356724Y-102203198D01*
X137356722Y-102203197D01*
X137194319Y-102130891D01*
X137194318Y-102130891D01*
X137188288Y-102128206D01*
X137094887Y-102108353D01*
X137007944Y-102089872D01*
X137007939Y-102089872D01*
X137001487Y-102088500D01*
X136810513Y-102088500D01*
X136804061Y-102089872D01*
X136804056Y-102089872D01*
X136717112Y-102108353D01*
X136623712Y-102128206D01*
X136617682Y-102130891D01*
X136617681Y-102130891D01*
X136455278Y-102203197D01*
X136455276Y-102203198D01*
X136449248Y-102205882D01*
X136294747Y-102318134D01*
X136290326Y-102323044D01*
X136290325Y-102323045D01*
X136205883Y-102416828D01*
X136166960Y-102460056D01*
X136150249Y-102489000D01*
X136099154Y-102577500D01*
X136071473Y-102625444D01*
X136012458Y-102807072D01*
X136011768Y-102813633D01*
X136011768Y-102813635D01*
X136006856Y-102860368D01*
X135992496Y-102997000D01*
X126877031Y-102997000D01*
X126818527Y-102816944D01*
X126812828Y-102807072D01*
X126726341Y-102657274D01*
X126723040Y-102651556D01*
X126709034Y-102636000D01*
X126599675Y-102514545D01*
X126599674Y-102514544D01*
X126595253Y-102509634D01*
X126467517Y-102416828D01*
X126446094Y-102401263D01*
X126446093Y-102401262D01*
X126440752Y-102397382D01*
X126434724Y-102394698D01*
X126434722Y-102394697D01*
X126272319Y-102322391D01*
X126272318Y-102322391D01*
X126266288Y-102319706D01*
X126169213Y-102299072D01*
X126085944Y-102281372D01*
X126085939Y-102281372D01*
X126079487Y-102280000D01*
X125888513Y-102280000D01*
X125882061Y-102281372D01*
X125882056Y-102281372D01*
X125798787Y-102299072D01*
X125701712Y-102319706D01*
X125695682Y-102322391D01*
X125695681Y-102322391D01*
X125533278Y-102394697D01*
X125533276Y-102394698D01*
X125527248Y-102397382D01*
X125521907Y-102401262D01*
X125521906Y-102401263D01*
X125500483Y-102416828D01*
X125372747Y-102509634D01*
X125368326Y-102514544D01*
X125368325Y-102514545D01*
X125258967Y-102636000D01*
X125244960Y-102651556D01*
X125241659Y-102657274D01*
X125155173Y-102807072D01*
X125149473Y-102816944D01*
X125090458Y-102998572D01*
X125089769Y-103005131D01*
X125089768Y-103005134D01*
X125087596Y-103025802D01*
X125060582Y-103091458D01*
X125002360Y-103132087D01*
X124931415Y-103134790D01*
X124870271Y-103098707D01*
X124842453Y-103051566D01*
X124826857Y-103003565D01*
X124786527Y-102879444D01*
X124775514Y-102860368D01*
X124694341Y-102719774D01*
X124691040Y-102714056D01*
X124665064Y-102685206D01*
X124567675Y-102577045D01*
X124567674Y-102577044D01*
X124563253Y-102572134D01*
X124448829Y-102489000D01*
X124414094Y-102463763D01*
X124414093Y-102463762D01*
X124408752Y-102459882D01*
X124402724Y-102457198D01*
X124402722Y-102457197D01*
X124240319Y-102384891D01*
X124240318Y-102384891D01*
X124234288Y-102382206D01*
X124130707Y-102360189D01*
X124053944Y-102343872D01*
X124053939Y-102343872D01*
X124047487Y-102342500D01*
X123856513Y-102342500D01*
X123850061Y-102343872D01*
X123850056Y-102343872D01*
X123773293Y-102360189D01*
X123669712Y-102382206D01*
X123663682Y-102384891D01*
X123663681Y-102384891D01*
X123501278Y-102457197D01*
X123501276Y-102457198D01*
X123495248Y-102459882D01*
X123489907Y-102463762D01*
X123489906Y-102463763D01*
X123455171Y-102489000D01*
X123340747Y-102572134D01*
X123336326Y-102577044D01*
X123336325Y-102577045D01*
X123238937Y-102685206D01*
X123212960Y-102714056D01*
X123209659Y-102719774D01*
X123128487Y-102860368D01*
X123117473Y-102879444D01*
X123058458Y-103061072D01*
X123057768Y-103067633D01*
X123057768Y-103067635D01*
X123045920Y-103180365D01*
X123038496Y-103251000D01*
X121522830Y-103251000D01*
X121599817Y-103195065D01*
X121637253Y-103167866D01*
X121733411Y-103061072D01*
X121760621Y-103030852D01*
X121760622Y-103030851D01*
X121765040Y-103025944D01*
X121860527Y-102860556D01*
X121919542Y-102678928D01*
X121923509Y-102641189D01*
X121938814Y-102495565D01*
X121939504Y-102489000D01*
X121929875Y-102397382D01*
X121920232Y-102305635D01*
X121920232Y-102305633D01*
X121919542Y-102299072D01*
X121860527Y-102117444D01*
X121765040Y-101952056D01*
X121637253Y-101810134D01*
X121482752Y-101697882D01*
X121476724Y-101695198D01*
X121476722Y-101695197D01*
X121314319Y-101622891D01*
X121314318Y-101622891D01*
X121308288Y-101620206D01*
X121214887Y-101600353D01*
X121127944Y-101581872D01*
X121127939Y-101581872D01*
X121121487Y-101580500D01*
X120930513Y-101580500D01*
X120924061Y-101581872D01*
X120924056Y-101581872D01*
X120837113Y-101600353D01*
X120743712Y-101620206D01*
X120737682Y-101622891D01*
X120737681Y-101622891D01*
X120575278Y-101695197D01*
X120575276Y-101695198D01*
X120569248Y-101697882D01*
X120414747Y-101810134D01*
X120286960Y-101952056D01*
X120191473Y-102117444D01*
X120132458Y-102299072D01*
X120131768Y-102305633D01*
X120131768Y-102305635D01*
X120122125Y-102397382D01*
X120112496Y-102489000D01*
X107928975Y-102489000D01*
X107922995Y-102416828D01*
X107922994Y-102416823D01*
X107922564Y-102411632D01*
X107919938Y-102401263D01*
X107868578Y-102198446D01*
X107868578Y-102198445D01*
X107867296Y-102193384D01*
X107776860Y-101987209D01*
X107757630Y-101957774D01*
X107656573Y-101803096D01*
X107653722Y-101798732D01*
X107650197Y-101794903D01*
X107650194Y-101794899D01*
X107510525Y-101643180D01*
X107479104Y-101579515D01*
X107487091Y-101508969D01*
X107531949Y-101453940D01*
X107559191Y-101439787D01*
X107674204Y-101396889D01*
X107791261Y-101309261D01*
X107813988Y-101278901D01*
X107858830Y-101219000D01*
X152966844Y-101219000D01*
X152967274Y-101224189D01*
X152981585Y-101396889D01*
X152985436Y-101443368D01*
X152986717Y-101448426D01*
X152986717Y-101448427D01*
X153030218Y-101620206D01*
X153040704Y-101661616D01*
X153042800Y-101666394D01*
X153108004Y-101815045D01*
X153131140Y-101867791D01*
X153133990Y-101872153D01*
X153133992Y-101872157D01*
X153212278Y-101991982D01*
X153254278Y-102056268D01*
X153257803Y-102060097D01*
X153257806Y-102060101D01*
X153310595Y-102117444D01*
X153406760Y-102221906D01*
X153410879Y-102225112D01*
X153535862Y-102322391D01*
X153584424Y-102360189D01*
X153589005Y-102362668D01*
X153775813Y-102463763D01*
X153782426Y-102467342D01*
X153995365Y-102540444D01*
X154000499Y-102541301D01*
X154000504Y-102541302D01*
X154212294Y-102576643D01*
X154212296Y-102576643D01*
X154217431Y-102577500D01*
X154442569Y-102577500D01*
X154447704Y-102576643D01*
X154447706Y-102576643D01*
X154659496Y-102541302D01*
X154659501Y-102541301D01*
X154664635Y-102540444D01*
X154877574Y-102467342D01*
X154884188Y-102463763D01*
X155070995Y-102362668D01*
X155075576Y-102360189D01*
X155124139Y-102322391D01*
X155249121Y-102225112D01*
X155253240Y-102221906D01*
X155349405Y-102117444D01*
X155402194Y-102060101D01*
X155402197Y-102060097D01*
X155405722Y-102056268D01*
X155447722Y-101991982D01*
X155526008Y-101872157D01*
X155526010Y-101872153D01*
X155528860Y-101867791D01*
X155551997Y-101815045D01*
X155617200Y-101666394D01*
X155619296Y-101661616D01*
X155629783Y-101620206D01*
X155673283Y-101448427D01*
X155673283Y-101448426D01*
X155674564Y-101443368D01*
X155678416Y-101396889D01*
X155692726Y-101224189D01*
X155693156Y-101219000D01*
X155674564Y-100994632D01*
X155619296Y-100776384D01*
X155528860Y-100570209D01*
X155405722Y-100381732D01*
X155402197Y-100377903D01*
X155402194Y-100377899D01*
X155262525Y-100226180D01*
X155231104Y-100162515D01*
X155239091Y-100091969D01*
X155283949Y-100036940D01*
X155311191Y-100022787D01*
X155426204Y-99979889D01*
X155543261Y-99892261D01*
X155630889Y-99775204D01*
X155681989Y-99638201D01*
X155688500Y-99577638D01*
X155688500Y-97780362D01*
X155681989Y-97719799D01*
X155630889Y-97582796D01*
X155543261Y-97465739D01*
X155426204Y-97378111D01*
X155289201Y-97327011D01*
X155252295Y-97323043D01*
X155231988Y-97320860D01*
X155231985Y-97320860D01*
X155228638Y-97320500D01*
X153431362Y-97320500D01*
X153428015Y-97320860D01*
X153428012Y-97320860D01*
X153407705Y-97323043D01*
X153370799Y-97327011D01*
X153233796Y-97378111D01*
X153116739Y-97465739D01*
X153029111Y-97582796D01*
X152978011Y-97719799D01*
X152971500Y-97780362D01*
X152971500Y-99577638D01*
X152978011Y-99638201D01*
X153029111Y-99775204D01*
X153116739Y-99892261D01*
X153233796Y-99979889D01*
X153348808Y-100022787D01*
X153405642Y-100065333D01*
X153430453Y-100131853D01*
X153415361Y-100201227D01*
X153397475Y-100226180D01*
X153257806Y-100377899D01*
X153257803Y-100377903D01*
X153254278Y-100381732D01*
X153131140Y-100570209D01*
X153040704Y-100776384D01*
X152985436Y-100994632D01*
X152966844Y-101219000D01*
X107858830Y-101219000D01*
X107873489Y-101199418D01*
X107873490Y-101199416D01*
X107878889Y-101192204D01*
X107929989Y-101055201D01*
X107936500Y-100994638D01*
X107936500Y-99197362D01*
X107929989Y-99136799D01*
X107878889Y-98999796D01*
X107791261Y-98882739D01*
X107674204Y-98795111D01*
X107537201Y-98744011D01*
X107500295Y-98740043D01*
X107479988Y-98737860D01*
X107479985Y-98737860D01*
X107476638Y-98737500D01*
X105679362Y-98737500D01*
X105676015Y-98737860D01*
X105676012Y-98737860D01*
X105655705Y-98740043D01*
X105618799Y-98744011D01*
X105481796Y-98795111D01*
X105364739Y-98882739D01*
X105277111Y-98999796D01*
X105226011Y-99136799D01*
X105219500Y-99197362D01*
X105219500Y-100994638D01*
X105226011Y-101055201D01*
X105277111Y-101192204D01*
X105282510Y-101199416D01*
X105282511Y-101199418D01*
X105342012Y-101278901D01*
X105364739Y-101309261D01*
X105481796Y-101396889D01*
X105596808Y-101439787D01*
X105653642Y-101482333D01*
X105678453Y-101548853D01*
X105663361Y-101618227D01*
X105645475Y-101643180D01*
X105505806Y-101794899D01*
X105505803Y-101794903D01*
X105502278Y-101798732D01*
X105499427Y-101803096D01*
X105398371Y-101957774D01*
X105379140Y-101987209D01*
X105288704Y-102193384D01*
X105287422Y-102198445D01*
X105287422Y-102198446D01*
X105236062Y-102401263D01*
X105233436Y-102411632D01*
X105233006Y-102416823D01*
X105233005Y-102416828D01*
X105216193Y-102619721D01*
X105214844Y-102636000D01*
X103959500Y-102636000D01*
X103959500Y-95631000D01*
X121895496Y-95631000D01*
X121896186Y-95637565D01*
X121911453Y-95782819D01*
X121915458Y-95820928D01*
X121974473Y-96002556D01*
X122069960Y-96167944D01*
X122197747Y-96309866D01*
X122352248Y-96422118D01*
X122358276Y-96424802D01*
X122358278Y-96424803D01*
X122520681Y-96497109D01*
X122526712Y-96499794D01*
X122620112Y-96519647D01*
X122707056Y-96538128D01*
X122707061Y-96538128D01*
X122713513Y-96539500D01*
X122904487Y-96539500D01*
X122910939Y-96538128D01*
X122910944Y-96538128D01*
X122997888Y-96519647D01*
X123091288Y-96499794D01*
X123097319Y-96497109D01*
X123259722Y-96424803D01*
X123259724Y-96424802D01*
X123265752Y-96422118D01*
X123420253Y-96309866D01*
X123548040Y-96167944D01*
X123643527Y-96002556D01*
X123702542Y-95820928D01*
X123706548Y-95782819D01*
X123721814Y-95637565D01*
X123722504Y-95631000D01*
X123702542Y-95441072D01*
X123643527Y-95259444D01*
X123548040Y-95094056D01*
X123461791Y-94998266D01*
X123424675Y-94957045D01*
X123424674Y-94957044D01*
X123420253Y-94952134D01*
X123265752Y-94839882D01*
X123259724Y-94837198D01*
X123259722Y-94837197D01*
X123097319Y-94764891D01*
X123097318Y-94764891D01*
X123091288Y-94762206D01*
X122997888Y-94742353D01*
X122910944Y-94723872D01*
X122910939Y-94723872D01*
X122904487Y-94722500D01*
X122713513Y-94722500D01*
X122707061Y-94723872D01*
X122707056Y-94723872D01*
X122620113Y-94742353D01*
X122526712Y-94762206D01*
X122520682Y-94764891D01*
X122520681Y-94764891D01*
X122358278Y-94837197D01*
X122358276Y-94837198D01*
X122352248Y-94839882D01*
X122197747Y-94952134D01*
X122193326Y-94957044D01*
X122193325Y-94957045D01*
X122156210Y-94998266D01*
X122069960Y-95094056D01*
X121974473Y-95259444D01*
X121915458Y-95441072D01*
X121895496Y-95631000D01*
X103959500Y-95631000D01*
X103959500Y-93255500D01*
X136119496Y-93255500D01*
X136139458Y-93445428D01*
X136198473Y-93627056D01*
X136293960Y-93792444D01*
X136421747Y-93934366D01*
X136576248Y-94046618D01*
X136582276Y-94049302D01*
X136582278Y-94049303D01*
X136744681Y-94121609D01*
X136750712Y-94124294D01*
X136826400Y-94140382D01*
X136931056Y-94162628D01*
X136931061Y-94162628D01*
X136937513Y-94164000D01*
X137128487Y-94164000D01*
X137134944Y-94162628D01*
X137134949Y-94162627D01*
X137145620Y-94160359D01*
X137216411Y-94165762D01*
X137273043Y-94208580D01*
X137297535Y-94275218D01*
X137282113Y-94344519D01*
X137265451Y-94367915D01*
X137187259Y-94454757D01*
X137091772Y-94620145D01*
X137032757Y-94801773D01*
X137032067Y-94808334D01*
X137032067Y-94808336D01*
X137028344Y-94843763D01*
X137012795Y-94991701D01*
X137032757Y-95181629D01*
X137091772Y-95363257D01*
X137187259Y-95528645D01*
X137191677Y-95533552D01*
X137191678Y-95533553D01*
X137279420Y-95631000D01*
X137315046Y-95670567D01*
X137469547Y-95782819D01*
X137475575Y-95785503D01*
X137475577Y-95785504D01*
X137569242Y-95827206D01*
X137644011Y-95860495D01*
X137737411Y-95880348D01*
X137824355Y-95898829D01*
X137824360Y-95898829D01*
X137830812Y-95900201D01*
X138021786Y-95900201D01*
X138028238Y-95898829D01*
X138028243Y-95898829D01*
X138115187Y-95880348D01*
X138208587Y-95860495D01*
X138283356Y-95827206D01*
X138377021Y-95785504D01*
X138377023Y-95785503D01*
X138383051Y-95782819D01*
X138537552Y-95670567D01*
X138573178Y-95631000D01*
X138660920Y-95533553D01*
X138660921Y-95533552D01*
X138665339Y-95528645D01*
X138760826Y-95363257D01*
X138819841Y-95181629D01*
X138839803Y-94991701D01*
X138824254Y-94843763D01*
X138820531Y-94808336D01*
X138820531Y-94808334D01*
X138819841Y-94801773D01*
X138760826Y-94620145D01*
X138665339Y-94454757D01*
X138569160Y-94347939D01*
X138538442Y-94283932D01*
X138547207Y-94213478D01*
X138592670Y-94158947D01*
X138636598Y-94140383D01*
X138712288Y-94124294D01*
X138718319Y-94121609D01*
X138880722Y-94049303D01*
X138880724Y-94049302D01*
X138886752Y-94046618D01*
X139041253Y-93934366D01*
X139169040Y-93792444D01*
X139264527Y-93627056D01*
X139323542Y-93445428D01*
X139343504Y-93255500D01*
X139323542Y-93065572D01*
X139264527Y-92883944D01*
X139245457Y-92850914D01*
X139228719Y-92781919D01*
X139251939Y-92714827D01*
X139307746Y-92670940D01*
X139378421Y-92664191D01*
X139413972Y-92676792D01*
X139492107Y-92718556D01*
X139570008Y-92760195D01*
X139575928Y-92761991D01*
X139575931Y-92761992D01*
X139762860Y-92818696D01*
X139762864Y-92818697D01*
X139768782Y-92820492D01*
X139774945Y-92821099D01*
X139920619Y-92835447D01*
X139920626Y-92835447D01*
X139923699Y-92835750D01*
X140027301Y-92835750D01*
X140030374Y-92835447D01*
X140030381Y-92835447D01*
X140176055Y-92821099D01*
X140182218Y-92820492D01*
X140188136Y-92818697D01*
X140188140Y-92818696D01*
X140375069Y-92761992D01*
X140375072Y-92761991D01*
X140380992Y-92760195D01*
X140564183Y-92662277D01*
X140724752Y-92530502D01*
X140744118Y-92506905D01*
X140852596Y-92374723D01*
X140856527Y-92369933D01*
X140954445Y-92186742D01*
X140972919Y-92125842D01*
X141012946Y-91993890D01*
X141012947Y-91993886D01*
X141014742Y-91987968D01*
X141035102Y-91781250D01*
X141014742Y-91574532D01*
X141003995Y-91539101D01*
X140956242Y-91381681D01*
X140956241Y-91381678D01*
X140954445Y-91375758D01*
X140856527Y-91192567D01*
X140755211Y-91069112D01*
X140728679Y-91036783D01*
X140724752Y-91031998D01*
X140593542Y-90924317D01*
X140553575Y-90865643D01*
X140551674Y-90794671D01*
X140588445Y-90733939D01*
X140622228Y-90711814D01*
X140626735Y-90709807D01*
X140626740Y-90709804D01*
X140632773Y-90707118D01*
X140645323Y-90698000D01*
X152839844Y-90698000D01*
X152840274Y-90703189D01*
X152856927Y-90904154D01*
X152858436Y-90922368D01*
X152859717Y-90927426D01*
X152859717Y-90927427D01*
X152875858Y-90991164D01*
X152913704Y-91140616D01*
X152919263Y-91153290D01*
X152988591Y-91311342D01*
X153004140Y-91346791D01*
X153006990Y-91351153D01*
X153006992Y-91351157D01*
X153028740Y-91384444D01*
X153127278Y-91535268D01*
X153130803Y-91539097D01*
X153130806Y-91539101D01*
X153232360Y-91649417D01*
X153279760Y-91700906D01*
X153283879Y-91704112D01*
X153392016Y-91788279D01*
X153457424Y-91839189D01*
X153655426Y-91946342D01*
X153868365Y-92019444D01*
X153873499Y-92020301D01*
X153873504Y-92020302D01*
X154085294Y-92055643D01*
X154085296Y-92055643D01*
X154090431Y-92056500D01*
X154315569Y-92056500D01*
X154320704Y-92055643D01*
X154320706Y-92055643D01*
X154532496Y-92020302D01*
X154532501Y-92020301D01*
X154537635Y-92019444D01*
X154750574Y-91946342D01*
X154948576Y-91839189D01*
X155013985Y-91788279D01*
X155122121Y-91704112D01*
X155126240Y-91700906D01*
X155173640Y-91649417D01*
X155275194Y-91539101D01*
X155275197Y-91539097D01*
X155278722Y-91535268D01*
X155377260Y-91384444D01*
X155399008Y-91351157D01*
X155399010Y-91351153D01*
X155401860Y-91346791D01*
X155417410Y-91311342D01*
X155486737Y-91153290D01*
X155492296Y-91140616D01*
X155530143Y-90991164D01*
X155546283Y-90927427D01*
X155546283Y-90927426D01*
X155547564Y-90922368D01*
X155549074Y-90904154D01*
X155565726Y-90703189D01*
X155566156Y-90698000D01*
X155555053Y-90564010D01*
X155547995Y-90478828D01*
X155547994Y-90478823D01*
X155547564Y-90473632D01*
X155500443Y-90287556D01*
X155493578Y-90260446D01*
X155493578Y-90260445D01*
X155492296Y-90255384D01*
X155426739Y-90105928D01*
X155403954Y-90053982D01*
X155403952Y-90053978D01*
X155401860Y-90049209D01*
X155319120Y-89922565D01*
X155281573Y-89865096D01*
X155278722Y-89860732D01*
X155275197Y-89856903D01*
X155275194Y-89856899D01*
X155135525Y-89705180D01*
X155104104Y-89641515D01*
X155112091Y-89570969D01*
X155156949Y-89515940D01*
X155184191Y-89501787D01*
X155299204Y-89458889D01*
X155352514Y-89418982D01*
X155409050Y-89376659D01*
X155416261Y-89371261D01*
X155503889Y-89254204D01*
X155554989Y-89117201D01*
X155560044Y-89070180D01*
X155561140Y-89059988D01*
X155561140Y-89059985D01*
X155561500Y-89056638D01*
X155561500Y-87259362D01*
X155554989Y-87198799D01*
X155503889Y-87061796D01*
X155496081Y-87051365D01*
X155421659Y-86951950D01*
X155416261Y-86944739D01*
X155299204Y-86857111D01*
X155162201Y-86806011D01*
X155125295Y-86802043D01*
X155104988Y-86799860D01*
X155104985Y-86799860D01*
X155101638Y-86799500D01*
X153304362Y-86799500D01*
X153301015Y-86799860D01*
X153301012Y-86799860D01*
X153280705Y-86802043D01*
X153243799Y-86806011D01*
X153106796Y-86857111D01*
X152989739Y-86944739D01*
X152984341Y-86951950D01*
X152909920Y-87051365D01*
X152902111Y-87061796D01*
X152851011Y-87198799D01*
X152844500Y-87259362D01*
X152844500Y-89056638D01*
X152844860Y-89059985D01*
X152844860Y-89059988D01*
X152845956Y-89070180D01*
X152851011Y-89117201D01*
X152902111Y-89254204D01*
X152989739Y-89371261D01*
X152996950Y-89376659D01*
X153053487Y-89418982D01*
X153106796Y-89458889D01*
X153221808Y-89501787D01*
X153278642Y-89544333D01*
X153303453Y-89610853D01*
X153288361Y-89680227D01*
X153270475Y-89705180D01*
X153130806Y-89856899D01*
X153130803Y-89856903D01*
X153127278Y-89860732D01*
X153124427Y-89865096D01*
X153086881Y-89922565D01*
X153004140Y-90049209D01*
X153002048Y-90053978D01*
X153002046Y-90053982D01*
X152979261Y-90105928D01*
X152913704Y-90255384D01*
X152912422Y-90260445D01*
X152912422Y-90260446D01*
X152905557Y-90287556D01*
X152858436Y-90473632D01*
X152858006Y-90478823D01*
X152858005Y-90478828D01*
X152850947Y-90564010D01*
X152839844Y-90698000D01*
X140645323Y-90698000D01*
X140787274Y-90594866D01*
X140891755Y-90478828D01*
X140910642Y-90457852D01*
X140910643Y-90457851D01*
X140915061Y-90452944D01*
X141010548Y-90287556D01*
X141069563Y-90105928D01*
X141072555Y-90077467D01*
X141088835Y-89922565D01*
X141089525Y-89916000D01*
X141069563Y-89726072D01*
X141010548Y-89544444D01*
X140994415Y-89516500D01*
X140938112Y-89418982D01*
X140915061Y-89379056D01*
X140908043Y-89371261D01*
X140791696Y-89242045D01*
X140791695Y-89242044D01*
X140787274Y-89237134D01*
X140632773Y-89124882D01*
X140626745Y-89122198D01*
X140626743Y-89122197D01*
X140464340Y-89049891D01*
X140464339Y-89049891D01*
X140458309Y-89047206D01*
X140364908Y-89027353D01*
X140277965Y-89008872D01*
X140277960Y-89008872D01*
X140271508Y-89007500D01*
X140080534Y-89007500D01*
X140074082Y-89008872D01*
X140074077Y-89008872D01*
X139987134Y-89027353D01*
X139893733Y-89047206D01*
X139887703Y-89049891D01*
X139887702Y-89049891D01*
X139725299Y-89122197D01*
X139725297Y-89122198D01*
X139719269Y-89124882D01*
X139564768Y-89237134D01*
X139560347Y-89242044D01*
X139560346Y-89242045D01*
X139444000Y-89371261D01*
X139436981Y-89379056D01*
X139413930Y-89418982D01*
X139357628Y-89516500D01*
X139341494Y-89544444D01*
X139282479Y-89726072D01*
X139262517Y-89916000D01*
X139263207Y-89922565D01*
X139279488Y-90077467D01*
X139282479Y-90105928D01*
X139341494Y-90287556D01*
X139436981Y-90452944D01*
X139441399Y-90457851D01*
X139441400Y-90457852D01*
X139460287Y-90478828D01*
X139564768Y-90594866D01*
X139570112Y-90598749D01*
X139575019Y-90603167D01*
X139573887Y-90604424D01*
X139612100Y-90653973D01*
X139618180Y-90724709D01*
X139585052Y-90787503D01*
X139554084Y-90810816D01*
X139451511Y-90865643D01*
X139386817Y-90900223D01*
X139226248Y-91031998D01*
X139222321Y-91036783D01*
X139195789Y-91069112D01*
X139094473Y-91192567D01*
X138996555Y-91375758D01*
X138994759Y-91381678D01*
X138994758Y-91381681D01*
X138947006Y-91539101D01*
X138936258Y-91574532D01*
X138915898Y-91781250D01*
X138936258Y-91987968D01*
X138938053Y-91993886D01*
X138938054Y-91993890D01*
X138978081Y-92125842D01*
X138996555Y-92186742D01*
X139049622Y-92286022D01*
X139052826Y-92292017D01*
X139067298Y-92361523D01*
X139041894Y-92427819D01*
X138984681Y-92469857D01*
X138913823Y-92474290D01*
X138887016Y-92463788D01*
X138886752Y-92464382D01*
X138718319Y-92389391D01*
X138718318Y-92389391D01*
X138712288Y-92386706D01*
X138618888Y-92366853D01*
X138531944Y-92348372D01*
X138531939Y-92348372D01*
X138525487Y-92347000D01*
X138334513Y-92347000D01*
X138328061Y-92348372D01*
X138328056Y-92348372D01*
X138241113Y-92366853D01*
X138147712Y-92386706D01*
X138141682Y-92389391D01*
X138141681Y-92389391D01*
X137979278Y-92461697D01*
X137979276Y-92461698D01*
X137973248Y-92464382D01*
X137967907Y-92468262D01*
X137967906Y-92468263D01*
X137827131Y-92570543D01*
X137818747Y-92576634D01*
X137815317Y-92580444D01*
X137751804Y-92610924D01*
X137681351Y-92602161D01*
X137647855Y-92580635D01*
X137644253Y-92576634D01*
X137635870Y-92570543D01*
X137495094Y-92468263D01*
X137495093Y-92468262D01*
X137489752Y-92464382D01*
X137483724Y-92461698D01*
X137483722Y-92461697D01*
X137321319Y-92389391D01*
X137321318Y-92389391D01*
X137315288Y-92386706D01*
X137221888Y-92366853D01*
X137134944Y-92348372D01*
X137134939Y-92348372D01*
X137128487Y-92347000D01*
X136937513Y-92347000D01*
X136931061Y-92348372D01*
X136931056Y-92348372D01*
X136844113Y-92366853D01*
X136750712Y-92386706D01*
X136744682Y-92389391D01*
X136744681Y-92389391D01*
X136582278Y-92461697D01*
X136582276Y-92461698D01*
X136576248Y-92464382D01*
X136421747Y-92576634D01*
X136417326Y-92581544D01*
X136417325Y-92581545D01*
X136336834Y-92670940D01*
X136293960Y-92718556D01*
X136198473Y-92883944D01*
X136139458Y-93065572D01*
X136119496Y-93255500D01*
X103959500Y-93255500D01*
X103959500Y-91781250D01*
X119165909Y-91781250D01*
X119166701Y-91788279D01*
X119184231Y-91943861D01*
X119186207Y-91961401D01*
X119188545Y-91968082D01*
X119188545Y-91968083D01*
X119219184Y-92055643D01*
X119246084Y-92132518D01*
X119342536Y-92286022D01*
X119470728Y-92414214D01*
X119476714Y-92417975D01*
X119476715Y-92417976D01*
X119550571Y-92464382D01*
X119624232Y-92510666D01*
X119795349Y-92570543D01*
X119802379Y-92571335D01*
X119802383Y-92571336D01*
X119878426Y-92579903D01*
X119930316Y-92585750D01*
X120020684Y-92585750D01*
X120072574Y-92579903D01*
X120148617Y-92571336D01*
X120148621Y-92571335D01*
X120155651Y-92570543D01*
X120326768Y-92510666D01*
X120400430Y-92464382D01*
X120474285Y-92417976D01*
X120474286Y-92417975D01*
X120480272Y-92414214D01*
X120608464Y-92286022D01*
X120704916Y-92132518D01*
X120731816Y-92055643D01*
X120762455Y-91968083D01*
X120762455Y-91968082D01*
X120764793Y-91961401D01*
X120766770Y-91943861D01*
X120784299Y-91788279D01*
X120785091Y-91781250D01*
X120776400Y-91704112D01*
X120765586Y-91608133D01*
X120765585Y-91608129D01*
X120764793Y-91601099D01*
X120753425Y-91568610D01*
X120707252Y-91436658D01*
X120704916Y-91429982D01*
X120699587Y-91421500D01*
X120612226Y-91282465D01*
X120612225Y-91282464D01*
X120608464Y-91276478D01*
X120480272Y-91148286D01*
X120326768Y-91051834D01*
X120155651Y-90991957D01*
X120148621Y-90991165D01*
X120148617Y-90991164D01*
X120072574Y-90982597D01*
X120020684Y-90976750D01*
X119930316Y-90976750D01*
X119878426Y-90982597D01*
X119802383Y-90991164D01*
X119802379Y-90991165D01*
X119795349Y-90991957D01*
X119624232Y-91051834D01*
X119470728Y-91148286D01*
X119342536Y-91276478D01*
X119338775Y-91282464D01*
X119338774Y-91282465D01*
X119251414Y-91421500D01*
X119246084Y-91429982D01*
X119243748Y-91436658D01*
X119197576Y-91568610D01*
X119186207Y-91601099D01*
X119185415Y-91608129D01*
X119185414Y-91608133D01*
X119174600Y-91704112D01*
X119165909Y-91781250D01*
X103959500Y-91781250D01*
X103959500Y-90063000D01*
X105443844Y-90063000D01*
X105444274Y-90068189D01*
X105461931Y-90281271D01*
X105462436Y-90287368D01*
X105463717Y-90292426D01*
X105463717Y-90292427D01*
X105509605Y-90473632D01*
X105517704Y-90505616D01*
X105519800Y-90510394D01*
X105604367Y-90703189D01*
X105608140Y-90711791D01*
X105610990Y-90716153D01*
X105610992Y-90716157D01*
X105631385Y-90747370D01*
X105731278Y-90900268D01*
X105734803Y-90904097D01*
X105734806Y-90904101D01*
X105801685Y-90976750D01*
X105883760Y-91065906D01*
X105887879Y-91069112D01*
X105996030Y-91153290D01*
X106061424Y-91204189D01*
X106066005Y-91206668D01*
X106206066Y-91282465D01*
X106259426Y-91311342D01*
X106472365Y-91384444D01*
X106477499Y-91385301D01*
X106477504Y-91385302D01*
X106689294Y-91420643D01*
X106689296Y-91420643D01*
X106694431Y-91421500D01*
X106919569Y-91421500D01*
X106924704Y-91420643D01*
X106924706Y-91420643D01*
X107136496Y-91385302D01*
X107136501Y-91385301D01*
X107141635Y-91384444D01*
X107354574Y-91311342D01*
X107407935Y-91282465D01*
X107547995Y-91206668D01*
X107552576Y-91204189D01*
X107617971Y-91153290D01*
X107726121Y-91069112D01*
X107730240Y-91065906D01*
X107812315Y-90976750D01*
X107879194Y-90904101D01*
X107879197Y-90904097D01*
X107882722Y-90900268D01*
X107982615Y-90747370D01*
X108003008Y-90716157D01*
X108003010Y-90716153D01*
X108005860Y-90711791D01*
X108009634Y-90703189D01*
X108094200Y-90510394D01*
X108096296Y-90505616D01*
X108104396Y-90473632D01*
X108150283Y-90292427D01*
X108150283Y-90292426D01*
X108151564Y-90287368D01*
X108152070Y-90281271D01*
X108169726Y-90068189D01*
X108170156Y-90063000D01*
X108157431Y-89909435D01*
X108155097Y-89881261D01*
X126213496Y-89881261D01*
X126233458Y-90071189D01*
X126292473Y-90252817D01*
X126295776Y-90258539D01*
X126295777Y-90258540D01*
X126308901Y-90281271D01*
X126387960Y-90418205D01*
X126392378Y-90423112D01*
X126392379Y-90423113D01*
X126442545Y-90478828D01*
X126515747Y-90560127D01*
X126670248Y-90672379D01*
X126676276Y-90675063D01*
X126676278Y-90675064D01*
X126826638Y-90742008D01*
X126844712Y-90750055D01*
X126938113Y-90769908D01*
X127025056Y-90788389D01*
X127025061Y-90788389D01*
X127031513Y-90789761D01*
X127222487Y-90789761D01*
X127228939Y-90788389D01*
X127228944Y-90788389D01*
X127315887Y-90769908D01*
X127409288Y-90750055D01*
X127427362Y-90742008D01*
X127577722Y-90675064D01*
X127577724Y-90675063D01*
X127583752Y-90672379D01*
X127738253Y-90560127D01*
X127811455Y-90478828D01*
X127861621Y-90423113D01*
X127861622Y-90423112D01*
X127866040Y-90418205D01*
X127945099Y-90281271D01*
X127958223Y-90258540D01*
X127958224Y-90258539D01*
X127961527Y-90252817D01*
X128020542Y-90071189D01*
X128040504Y-89881261D01*
X128038346Y-89860732D01*
X128021232Y-89697896D01*
X128021232Y-89697894D01*
X128020542Y-89691333D01*
X127961527Y-89509705D01*
X127866040Y-89344317D01*
X127791398Y-89261418D01*
X127742675Y-89207306D01*
X127742674Y-89207305D01*
X127738253Y-89202395D01*
X127620994Y-89117201D01*
X127589094Y-89094024D01*
X127589093Y-89094023D01*
X127583752Y-89090143D01*
X127577724Y-89087459D01*
X127577722Y-89087458D01*
X127415319Y-89015152D01*
X127415318Y-89015152D01*
X127409288Y-89012467D01*
X127315888Y-88992614D01*
X127228944Y-88974133D01*
X127228939Y-88974133D01*
X127222487Y-88972761D01*
X127031513Y-88972761D01*
X127025061Y-88974133D01*
X127025056Y-88974133D01*
X126938112Y-88992614D01*
X126844712Y-89012467D01*
X126838682Y-89015152D01*
X126838681Y-89015152D01*
X126676278Y-89087458D01*
X126676276Y-89087459D01*
X126670248Y-89090143D01*
X126664907Y-89094023D01*
X126664906Y-89094024D01*
X126633006Y-89117201D01*
X126515747Y-89202395D01*
X126511326Y-89207305D01*
X126511325Y-89207306D01*
X126462603Y-89261418D01*
X126387960Y-89344317D01*
X126292473Y-89509705D01*
X126233458Y-89691333D01*
X126232768Y-89697894D01*
X126232768Y-89697896D01*
X126215654Y-89860732D01*
X126213496Y-89881261D01*
X108155097Y-89881261D01*
X108151995Y-89843828D01*
X108151994Y-89843823D01*
X108151564Y-89838632D01*
X108096296Y-89620384D01*
X108026839Y-89462037D01*
X108007954Y-89418982D01*
X108007952Y-89418978D01*
X108005860Y-89414209D01*
X107986630Y-89384774D01*
X107885573Y-89230096D01*
X107882722Y-89225732D01*
X107879197Y-89221903D01*
X107879194Y-89221899D01*
X107739525Y-89070180D01*
X107708104Y-89006515D01*
X107716091Y-88935969D01*
X107760949Y-88880940D01*
X107788191Y-88866787D01*
X107903204Y-88823889D01*
X108020261Y-88736261D01*
X108107889Y-88619204D01*
X108158989Y-88482201D01*
X108165500Y-88421638D01*
X108165500Y-87630000D01*
X121895496Y-87630000D01*
X121896186Y-87636565D01*
X121910894Y-87776500D01*
X121915458Y-87819928D01*
X121974473Y-88001556D01*
X122069960Y-88166944D01*
X122197747Y-88308866D01*
X122352248Y-88421118D01*
X122358276Y-88423802D01*
X122358278Y-88423803D01*
X122489443Y-88482201D01*
X122526712Y-88498794D01*
X122620113Y-88518647D01*
X122707056Y-88537128D01*
X122707061Y-88537128D01*
X122713513Y-88538500D01*
X122904487Y-88538500D01*
X122910939Y-88537128D01*
X122910944Y-88537128D01*
X122997887Y-88518647D01*
X123091288Y-88498794D01*
X123128557Y-88482201D01*
X123259722Y-88423803D01*
X123259724Y-88423802D01*
X123265752Y-88421118D01*
X123420253Y-88308866D01*
X123548040Y-88166944D01*
X123643527Y-88001556D01*
X123702542Y-87819928D01*
X123707107Y-87776500D01*
X123721814Y-87636565D01*
X123722504Y-87630000D01*
X123721814Y-87623435D01*
X123703232Y-87446635D01*
X123703232Y-87446633D01*
X123702542Y-87440072D01*
X123643527Y-87258444D01*
X123548040Y-87093056D01*
X123522064Y-87064206D01*
X123424675Y-86956045D01*
X123424674Y-86956044D01*
X123420253Y-86951134D01*
X123305829Y-86868000D01*
X123271094Y-86842763D01*
X123271093Y-86842762D01*
X123265752Y-86838882D01*
X123259724Y-86836198D01*
X123259722Y-86836197D01*
X123097319Y-86763891D01*
X123097318Y-86763891D01*
X123091288Y-86761206D01*
X122997887Y-86741353D01*
X122910944Y-86722872D01*
X122910939Y-86722872D01*
X122904487Y-86721500D01*
X122713513Y-86721500D01*
X122707061Y-86722872D01*
X122707056Y-86722872D01*
X122620113Y-86741353D01*
X122526712Y-86761206D01*
X122520682Y-86763891D01*
X122520681Y-86763891D01*
X122358278Y-86836197D01*
X122358276Y-86836198D01*
X122352248Y-86838882D01*
X122346907Y-86842762D01*
X122346906Y-86842763D01*
X122312171Y-86868000D01*
X122197747Y-86951134D01*
X122193326Y-86956044D01*
X122193325Y-86956045D01*
X122095937Y-87064206D01*
X122069960Y-87093056D01*
X121974473Y-87258444D01*
X121915458Y-87440072D01*
X121914768Y-87446633D01*
X121914768Y-87446635D01*
X121896186Y-87623435D01*
X121895496Y-87630000D01*
X108165500Y-87630000D01*
X108165500Y-86624362D01*
X108158989Y-86563799D01*
X108107889Y-86426796D01*
X108020261Y-86309739D01*
X107903204Y-86222111D01*
X107766201Y-86171011D01*
X107729295Y-86167043D01*
X107708988Y-86164860D01*
X107708985Y-86164860D01*
X107705638Y-86164500D01*
X105908362Y-86164500D01*
X105905015Y-86164860D01*
X105905012Y-86164860D01*
X105884705Y-86167043D01*
X105847799Y-86171011D01*
X105710796Y-86222111D01*
X105593739Y-86309739D01*
X105506111Y-86426796D01*
X105455011Y-86563799D01*
X105448500Y-86624362D01*
X105448500Y-88421638D01*
X105455011Y-88482201D01*
X105506111Y-88619204D01*
X105593739Y-88736261D01*
X105710796Y-88823889D01*
X105825808Y-88866787D01*
X105882642Y-88909333D01*
X105907453Y-88975853D01*
X105892361Y-89045227D01*
X105874475Y-89070180D01*
X105734806Y-89221899D01*
X105734803Y-89221903D01*
X105731278Y-89225732D01*
X105728427Y-89230096D01*
X105627371Y-89384774D01*
X105608140Y-89414209D01*
X105606048Y-89418978D01*
X105606046Y-89418982D01*
X105587161Y-89462037D01*
X105517704Y-89620384D01*
X105462436Y-89838632D01*
X105462006Y-89843823D01*
X105462005Y-89843828D01*
X105456569Y-89909435D01*
X105443844Y-90063000D01*
X103959500Y-90063000D01*
X103959500Y-86129845D01*
X126364341Y-86129845D01*
X126365031Y-86136410D01*
X126373708Y-86218963D01*
X126384303Y-86319773D01*
X126443318Y-86501401D01*
X126538805Y-86666789D01*
X126543223Y-86671696D01*
X126543224Y-86671697D01*
X126662170Y-86803800D01*
X126666592Y-86808711D01*
X126821093Y-86920963D01*
X126827121Y-86923647D01*
X126827123Y-86923648D01*
X126989526Y-86995954D01*
X126995557Y-86998639D01*
X127088957Y-87018492D01*
X127175901Y-87036973D01*
X127175906Y-87036973D01*
X127182358Y-87038345D01*
X127373332Y-87038345D01*
X127379784Y-87036973D01*
X127379789Y-87036973D01*
X127466733Y-87018492D01*
X127560133Y-86998639D01*
X127566164Y-86995954D01*
X127728567Y-86923648D01*
X127728569Y-86923647D01*
X127734597Y-86920963D01*
X127807494Y-86868000D01*
X133706496Y-86868000D01*
X133707186Y-86874565D01*
X133724256Y-87036973D01*
X133726458Y-87057928D01*
X133785473Y-87239556D01*
X133880960Y-87404944D01*
X133885378Y-87409851D01*
X133885379Y-87409852D01*
X133912589Y-87440072D01*
X134008747Y-87546866D01*
X134107843Y-87618864D01*
X134132207Y-87636565D01*
X134163248Y-87659118D01*
X134169276Y-87661802D01*
X134169278Y-87661803D01*
X134331681Y-87734109D01*
X134337712Y-87736794D01*
X134431112Y-87756647D01*
X134518056Y-87775128D01*
X134518061Y-87775128D01*
X134524513Y-87776500D01*
X134715487Y-87776500D01*
X134721939Y-87775128D01*
X134721944Y-87775128D01*
X134808887Y-87756647D01*
X134902288Y-87736794D01*
X134908319Y-87734109D01*
X135070722Y-87661803D01*
X135070724Y-87661802D01*
X135076752Y-87659118D01*
X135107794Y-87636565D01*
X135132157Y-87618864D01*
X135231253Y-87546866D01*
X135327411Y-87440072D01*
X135354621Y-87409852D01*
X135354622Y-87409851D01*
X135359040Y-87404944D01*
X135454527Y-87239556D01*
X135513542Y-87057928D01*
X135515745Y-87036973D01*
X135532814Y-86874565D01*
X135533504Y-86868000D01*
X135526342Y-86799860D01*
X135514232Y-86684635D01*
X135514232Y-86684633D01*
X135513542Y-86678072D01*
X135454527Y-86496444D01*
X135359040Y-86331056D01*
X135354534Y-86326051D01*
X135235675Y-86194045D01*
X135235674Y-86194044D01*
X135231253Y-86189134D01*
X135076752Y-86076882D01*
X135070724Y-86074198D01*
X135070722Y-86074197D01*
X134908319Y-86001891D01*
X134908318Y-86001891D01*
X134902288Y-85999206D01*
X134808888Y-85979353D01*
X134721944Y-85960872D01*
X134721939Y-85960872D01*
X134715487Y-85959500D01*
X134524513Y-85959500D01*
X134518061Y-85960872D01*
X134518056Y-85960872D01*
X134431112Y-85979353D01*
X134337712Y-85999206D01*
X134331682Y-86001891D01*
X134331681Y-86001891D01*
X134169278Y-86074197D01*
X134169276Y-86074198D01*
X134163248Y-86076882D01*
X134008747Y-86189134D01*
X134004326Y-86194044D01*
X134004325Y-86194045D01*
X133885467Y-86326051D01*
X133880960Y-86331056D01*
X133785473Y-86496444D01*
X133726458Y-86678072D01*
X133725768Y-86684633D01*
X133725768Y-86684635D01*
X133713658Y-86799860D01*
X133706496Y-86868000D01*
X127807494Y-86868000D01*
X127889098Y-86808711D01*
X127893520Y-86803800D01*
X128012466Y-86671697D01*
X128012467Y-86671696D01*
X128016885Y-86666789D01*
X128112372Y-86501401D01*
X128171387Y-86319773D01*
X128181983Y-86218963D01*
X128190659Y-86136410D01*
X128191349Y-86129845D01*
X128177901Y-86001891D01*
X128172077Y-85946480D01*
X128172077Y-85946478D01*
X128171387Y-85939917D01*
X128112372Y-85758289D01*
X128016885Y-85592901D01*
X127923448Y-85489128D01*
X127893520Y-85455890D01*
X127893519Y-85455889D01*
X127889098Y-85450979D01*
X127734597Y-85338727D01*
X127728569Y-85336043D01*
X127728567Y-85336042D01*
X127566164Y-85263736D01*
X127566163Y-85263736D01*
X127560133Y-85261051D01*
X127466733Y-85241198D01*
X127379789Y-85222717D01*
X127379784Y-85222717D01*
X127373332Y-85221345D01*
X127182358Y-85221345D01*
X127175906Y-85222717D01*
X127175901Y-85222717D01*
X127088957Y-85241198D01*
X126995557Y-85261051D01*
X126989527Y-85263736D01*
X126989526Y-85263736D01*
X126827123Y-85336042D01*
X126827121Y-85336043D01*
X126821093Y-85338727D01*
X126666592Y-85450979D01*
X126662171Y-85455889D01*
X126662170Y-85455890D01*
X126632243Y-85489128D01*
X126538805Y-85592901D01*
X126443318Y-85758289D01*
X126384303Y-85939917D01*
X126383613Y-85946478D01*
X126383613Y-85946480D01*
X126377789Y-86001891D01*
X126364341Y-86129845D01*
X103959500Y-86129845D01*
X103959500Y-84582000D01*
X128880496Y-84582000D01*
X128900458Y-84771928D01*
X128959473Y-84953556D01*
X129054960Y-85118944D01*
X129059378Y-85123851D01*
X129059379Y-85123852D01*
X129178325Y-85255955D01*
X129182747Y-85260866D01*
X129337248Y-85373118D01*
X129343276Y-85375802D01*
X129343278Y-85375803D01*
X129503406Y-85447096D01*
X129511712Y-85450794D01*
X129605112Y-85470647D01*
X129692056Y-85489128D01*
X129692061Y-85489128D01*
X129698513Y-85490500D01*
X129889487Y-85490500D01*
X129895939Y-85489128D01*
X129895944Y-85489128D01*
X129982888Y-85470647D01*
X130076288Y-85450794D01*
X130084594Y-85447096D01*
X130244722Y-85375803D01*
X130244724Y-85375802D01*
X130250752Y-85373118D01*
X130405253Y-85260866D01*
X130409675Y-85255955D01*
X130528621Y-85123852D01*
X130528622Y-85123851D01*
X130533040Y-85118944D01*
X130628527Y-84953556D01*
X130687542Y-84771928D01*
X130707504Y-84582000D01*
X130687542Y-84392072D01*
X130628527Y-84210444D01*
X130623075Y-84201000D01*
X138151496Y-84201000D01*
X138171458Y-84390928D01*
X138230473Y-84572556D01*
X138233776Y-84578278D01*
X138233777Y-84578279D01*
X138239716Y-84588565D01*
X138325960Y-84737944D01*
X138453747Y-84879866D01*
X138608248Y-84992118D01*
X138614276Y-84994802D01*
X138614278Y-84994803D01*
X138776681Y-85067109D01*
X138782712Y-85069794D01*
X138876112Y-85089647D01*
X138963056Y-85108128D01*
X138963061Y-85108128D01*
X138969513Y-85109500D01*
X139160487Y-85109500D01*
X139166939Y-85108128D01*
X139166944Y-85108128D01*
X139253888Y-85089647D01*
X139347288Y-85069794D01*
X139353319Y-85067109D01*
X139515722Y-84994803D01*
X139515724Y-84994802D01*
X139521752Y-84992118D01*
X139676253Y-84879866D01*
X139804040Y-84737944D01*
X139890284Y-84588565D01*
X139896223Y-84578279D01*
X139896224Y-84578278D01*
X139899527Y-84572556D01*
X139958542Y-84390928D01*
X139978504Y-84201000D01*
X139958542Y-84011072D01*
X139899527Y-83829444D01*
X139804040Y-83664056D01*
X139676253Y-83522134D01*
X139521752Y-83409882D01*
X139515724Y-83407198D01*
X139515722Y-83407197D01*
X139353319Y-83334891D01*
X139353318Y-83334891D01*
X139347288Y-83332206D01*
X139253888Y-83312353D01*
X139166944Y-83293872D01*
X139166939Y-83293872D01*
X139160487Y-83292500D01*
X138969513Y-83292500D01*
X138963061Y-83293872D01*
X138963056Y-83293872D01*
X138876112Y-83312353D01*
X138782712Y-83332206D01*
X138776682Y-83334891D01*
X138776681Y-83334891D01*
X138614278Y-83407197D01*
X138614276Y-83407198D01*
X138608248Y-83409882D01*
X138453747Y-83522134D01*
X138325960Y-83664056D01*
X138230473Y-83829444D01*
X138171458Y-84011072D01*
X138151496Y-84201000D01*
X130623075Y-84201000D01*
X130536341Y-84050774D01*
X130533040Y-84045056D01*
X130405253Y-83903134D01*
X130250752Y-83790882D01*
X130244724Y-83788198D01*
X130244722Y-83788197D01*
X130082319Y-83715891D01*
X130082318Y-83715891D01*
X130076288Y-83713206D01*
X129982888Y-83693353D01*
X129895944Y-83674872D01*
X129895939Y-83674872D01*
X129889487Y-83673500D01*
X129698513Y-83673500D01*
X129692061Y-83674872D01*
X129692056Y-83674872D01*
X129605112Y-83693353D01*
X129511712Y-83713206D01*
X129505682Y-83715891D01*
X129505681Y-83715891D01*
X129343278Y-83788197D01*
X129343276Y-83788198D01*
X129337248Y-83790882D01*
X129182747Y-83903134D01*
X129054960Y-84045056D01*
X129051659Y-84050774D01*
X128964926Y-84201000D01*
X128959473Y-84210444D01*
X128900458Y-84392072D01*
X128880496Y-84582000D01*
X103959500Y-84582000D01*
X103959500Y-79014000D01*
X105341844Y-79014000D01*
X105360436Y-79238368D01*
X105361717Y-79243426D01*
X105361717Y-79243427D01*
X105412092Y-79442351D01*
X105415704Y-79456616D01*
X105417800Y-79461394D01*
X105480421Y-79604156D01*
X105506140Y-79662791D01*
X105508990Y-79667153D01*
X105508992Y-79667157D01*
X105559796Y-79744918D01*
X105629278Y-79851268D01*
X105632803Y-79855097D01*
X105632806Y-79855101D01*
X105693472Y-79921001D01*
X105781760Y-80016906D01*
X105959424Y-80155189D01*
X106157426Y-80262342D01*
X106370365Y-80335444D01*
X106375499Y-80336301D01*
X106375504Y-80336302D01*
X106587294Y-80371643D01*
X106587296Y-80371643D01*
X106592431Y-80372500D01*
X106817569Y-80372500D01*
X106822704Y-80371643D01*
X106822706Y-80371643D01*
X107034496Y-80336302D01*
X107034501Y-80336301D01*
X107039635Y-80335444D01*
X107252574Y-80262342D01*
X107450576Y-80155189D01*
X107628240Y-80016906D01*
X107716528Y-79921001D01*
X107777194Y-79855101D01*
X107777197Y-79855097D01*
X107780722Y-79851268D01*
X107850204Y-79744918D01*
X107901008Y-79667157D01*
X107901010Y-79667153D01*
X107903860Y-79662791D01*
X107929580Y-79604156D01*
X107992200Y-79461394D01*
X107994296Y-79456616D01*
X107997909Y-79442351D01*
X108048283Y-79243427D01*
X108048283Y-79243426D01*
X108049564Y-79238368D01*
X108068156Y-79014000D01*
X108066976Y-78999763D01*
X108049995Y-78794828D01*
X108049994Y-78794823D01*
X108049564Y-78789632D01*
X108001859Y-78601250D01*
X152585844Y-78601250D01*
X152586274Y-78606439D01*
X152601885Y-78794828D01*
X152604436Y-78825618D01*
X152659704Y-79043866D01*
X152661800Y-79048644D01*
X152747239Y-79243427D01*
X152750140Y-79250041D01*
X152873278Y-79438518D01*
X152876803Y-79442347D01*
X152876806Y-79442351D01*
X152894337Y-79461394D01*
X153025760Y-79604156D01*
X153203424Y-79742439D01*
X153208005Y-79744918D01*
X153396459Y-79846904D01*
X153401426Y-79849592D01*
X153614365Y-79922694D01*
X153619499Y-79923551D01*
X153619504Y-79923552D01*
X153831294Y-79958893D01*
X153831296Y-79958893D01*
X153836431Y-79959750D01*
X154061569Y-79959750D01*
X154066704Y-79958893D01*
X154066706Y-79958893D01*
X154278496Y-79923552D01*
X154278501Y-79923551D01*
X154283635Y-79922694D01*
X154496574Y-79849592D01*
X154501542Y-79846904D01*
X154689995Y-79744918D01*
X154694576Y-79742439D01*
X154872240Y-79604156D01*
X155003663Y-79461394D01*
X155021194Y-79442351D01*
X155021197Y-79442347D01*
X155024722Y-79438518D01*
X155147860Y-79250041D01*
X155150762Y-79243427D01*
X155236200Y-79048644D01*
X155238296Y-79043866D01*
X155293564Y-78825618D01*
X155296116Y-78794828D01*
X155311726Y-78606439D01*
X155312156Y-78601250D01*
X155293564Y-78376882D01*
X155242879Y-78176732D01*
X155239578Y-78163696D01*
X155239578Y-78163695D01*
X155238296Y-78158634D01*
X155178004Y-78021180D01*
X155149954Y-77957232D01*
X155149952Y-77957228D01*
X155147860Y-77952459D01*
X155105074Y-77886969D01*
X155055552Y-77811171D01*
X155024722Y-77763982D01*
X155021197Y-77760153D01*
X155021194Y-77760149D01*
X154881525Y-77608430D01*
X154850104Y-77544765D01*
X154858091Y-77474219D01*
X154902949Y-77419190D01*
X154930191Y-77405037D01*
X155045204Y-77362139D01*
X155162261Y-77274511D01*
X155249889Y-77157454D01*
X155300989Y-77020451D01*
X155307500Y-76959888D01*
X155307500Y-75162612D01*
X155300989Y-75102049D01*
X155249889Y-74965046D01*
X155162261Y-74847989D01*
X155045204Y-74760361D01*
X154908201Y-74709261D01*
X154871295Y-74705293D01*
X154850988Y-74703110D01*
X154850985Y-74703110D01*
X154847638Y-74702750D01*
X153050362Y-74702750D01*
X153047015Y-74703110D01*
X153047012Y-74703110D01*
X153026705Y-74705293D01*
X152989799Y-74709261D01*
X152852796Y-74760361D01*
X152735739Y-74847989D01*
X152648111Y-74965046D01*
X152597011Y-75102049D01*
X152590500Y-75162612D01*
X152590500Y-76959888D01*
X152597011Y-77020451D01*
X152648111Y-77157454D01*
X152735739Y-77274511D01*
X152852796Y-77362139D01*
X152967808Y-77405037D01*
X153024642Y-77447583D01*
X153049453Y-77514103D01*
X153034361Y-77583477D01*
X153016475Y-77608430D01*
X152876806Y-77760149D01*
X152876803Y-77760153D01*
X152873278Y-77763982D01*
X152842448Y-77811171D01*
X152792927Y-77886969D01*
X152750140Y-77952459D01*
X152748048Y-77957228D01*
X152748046Y-77957232D01*
X152719996Y-78021180D01*
X152659704Y-78158634D01*
X152658422Y-78163695D01*
X152658422Y-78163696D01*
X152655121Y-78176732D01*
X152604436Y-78376882D01*
X152585844Y-78601250D01*
X108001859Y-78601250D01*
X107994296Y-78571384D01*
X107963509Y-78501196D01*
X107905954Y-78369982D01*
X107905952Y-78369978D01*
X107903860Y-78365209D01*
X107780722Y-78176732D01*
X107777197Y-78172903D01*
X107777194Y-78172899D01*
X107637525Y-78021180D01*
X107606104Y-77957515D01*
X107614091Y-77886969D01*
X107658949Y-77831940D01*
X107686191Y-77817787D01*
X107801204Y-77774889D01*
X107809945Y-77768346D01*
X107911050Y-77692659D01*
X107918261Y-77687261D01*
X107940988Y-77656901D01*
X108000489Y-77577418D01*
X108000490Y-77577416D01*
X108005889Y-77570204D01*
X108056989Y-77433201D01*
X108063500Y-77372638D01*
X108063500Y-75575362D01*
X108056989Y-75514799D01*
X108005889Y-75377796D01*
X107918261Y-75260739D01*
X107801204Y-75173111D01*
X107664201Y-75122011D01*
X107627295Y-75118043D01*
X107606988Y-75115860D01*
X107606985Y-75115860D01*
X107603638Y-75115500D01*
X105806362Y-75115500D01*
X105803015Y-75115860D01*
X105803012Y-75115860D01*
X105782705Y-75118043D01*
X105745799Y-75122011D01*
X105608796Y-75173111D01*
X105491739Y-75260739D01*
X105404111Y-75377796D01*
X105353011Y-75514799D01*
X105346500Y-75575362D01*
X105346500Y-77372638D01*
X105353011Y-77433201D01*
X105404111Y-77570204D01*
X105409510Y-77577416D01*
X105409511Y-77577418D01*
X105469012Y-77656901D01*
X105491739Y-77687261D01*
X105498950Y-77692659D01*
X105600056Y-77768346D01*
X105608796Y-77774889D01*
X105723808Y-77817787D01*
X105780642Y-77860333D01*
X105805453Y-77926853D01*
X105790361Y-77996227D01*
X105772475Y-78021180D01*
X105632806Y-78172899D01*
X105632803Y-78172903D01*
X105629278Y-78176732D01*
X105506140Y-78365209D01*
X105504048Y-78369978D01*
X105504046Y-78369982D01*
X105446491Y-78501196D01*
X105415704Y-78571384D01*
X105360436Y-78789632D01*
X105360006Y-78794823D01*
X105360005Y-78794828D01*
X105343024Y-78999763D01*
X105341844Y-79014000D01*
X103959500Y-79014000D01*
X103959500Y-74438436D01*
X123689460Y-74438436D01*
X123696918Y-74448804D01*
X123912162Y-74623104D01*
X123917484Y-74626971D01*
X124220323Y-74823637D01*
X124226032Y-74826933D01*
X124547775Y-74990870D01*
X124553786Y-74993546D01*
X124890895Y-75122950D01*
X124897172Y-75124990D01*
X125245963Y-75218448D01*
X125252401Y-75219817D01*
X125609060Y-75276305D01*
X125615604Y-75276993D01*
X125976199Y-75295891D01*
X125982801Y-75295891D01*
X126343396Y-75276993D01*
X126349940Y-75276305D01*
X126706599Y-75219817D01*
X126713037Y-75218448D01*
X127061828Y-75124990D01*
X127068105Y-75122950D01*
X127405214Y-74993546D01*
X127411225Y-74990870D01*
X127732968Y-74826933D01*
X127738677Y-74823637D01*
X128041516Y-74626971D01*
X128046838Y-74623104D01*
X128261134Y-74449572D01*
X128269600Y-74437317D01*
X128263266Y-74426226D01*
X125992312Y-72155272D01*
X125978368Y-72147658D01*
X125976535Y-72147789D01*
X125969920Y-72152040D01*
X123696600Y-74425360D01*
X123689460Y-74438436D01*
X103959500Y-74438436D01*
X103959500Y-71786551D01*
X122466859Y-71786551D01*
X122485757Y-72147146D01*
X122486445Y-72153690D01*
X122542933Y-72510349D01*
X122544302Y-72516787D01*
X122637760Y-72865578D01*
X122639800Y-72871855D01*
X122769204Y-73208964D01*
X122771880Y-73214975D01*
X122935817Y-73536718D01*
X122939113Y-73542427D01*
X123135779Y-73845266D01*
X123139646Y-73850588D01*
X123313178Y-74064884D01*
X123325433Y-74073350D01*
X123336524Y-74067016D01*
X125607478Y-71796062D01*
X125613856Y-71784382D01*
X126343908Y-71784382D01*
X126344039Y-71786215D01*
X126348290Y-71792830D01*
X128621610Y-74066150D01*
X128634686Y-74073290D01*
X128645054Y-74065832D01*
X128819354Y-73850588D01*
X128823221Y-73845266D01*
X129019887Y-73542427D01*
X129023183Y-73536718D01*
X129187120Y-73214975D01*
X129189796Y-73208964D01*
X129319200Y-72871855D01*
X129321240Y-72865578D01*
X129414698Y-72516787D01*
X129416067Y-72510349D01*
X129472555Y-72153690D01*
X129473243Y-72147146D01*
X129492141Y-71786551D01*
X129492141Y-71779949D01*
X129473243Y-71419354D01*
X129472555Y-71412810D01*
X129416067Y-71056151D01*
X129414698Y-71049713D01*
X129321240Y-70700922D01*
X129319200Y-70694645D01*
X129189796Y-70357536D01*
X129187120Y-70351525D01*
X129023183Y-70029782D01*
X129019887Y-70024073D01*
X128823221Y-69721234D01*
X128819354Y-69715912D01*
X128645822Y-69501616D01*
X128633567Y-69493150D01*
X128622476Y-69499484D01*
X126351522Y-71770438D01*
X126343908Y-71784382D01*
X125613856Y-71784382D01*
X125615092Y-71782118D01*
X125614961Y-71780285D01*
X125610710Y-71773670D01*
X123337390Y-69500350D01*
X123324314Y-69493210D01*
X123313946Y-69500668D01*
X123139646Y-69715912D01*
X123135779Y-69721234D01*
X122939113Y-70024073D01*
X122935817Y-70029782D01*
X122771880Y-70351525D01*
X122769204Y-70357536D01*
X122639800Y-70694645D01*
X122637760Y-70700922D01*
X122544302Y-71049713D01*
X122542933Y-71056151D01*
X122486445Y-71412810D01*
X122485757Y-71419354D01*
X122466859Y-71779949D01*
X122466859Y-71786551D01*
X103959500Y-71786551D01*
X103959500Y-69342000D01*
X104716480Y-69342000D01*
X104736538Y-69648021D01*
X104796368Y-69948806D01*
X104797693Y-69952710D01*
X104797694Y-69952713D01*
X104823855Y-70029782D01*
X104894946Y-70239209D01*
X105030586Y-70514260D01*
X105032880Y-70517693D01*
X105155310Y-70700922D01*
X105200967Y-70769253D01*
X105403174Y-70999826D01*
X105633747Y-71202033D01*
X105637173Y-71204322D01*
X105637178Y-71204326D01*
X105828715Y-71332307D01*
X105888740Y-71372414D01*
X105892439Y-71374238D01*
X105892444Y-71374241D01*
X105983925Y-71419354D01*
X106163791Y-71508054D01*
X106167696Y-71509379D01*
X106167697Y-71509380D01*
X106450287Y-71605306D01*
X106450290Y-71605307D01*
X106454194Y-71606632D01*
X106458233Y-71607435D01*
X106458239Y-71607437D01*
X106750936Y-71665658D01*
X106750939Y-71665658D01*
X106754979Y-71666462D01*
X106759090Y-71666731D01*
X106759094Y-71666732D01*
X106982362Y-71681366D01*
X106982371Y-71681366D01*
X106984411Y-71681500D01*
X107137589Y-71681500D01*
X107139629Y-71681366D01*
X107139638Y-71681366D01*
X107362906Y-71666732D01*
X107362910Y-71666731D01*
X107367021Y-71666462D01*
X107371061Y-71665658D01*
X107371064Y-71665658D01*
X107663761Y-71607437D01*
X107663767Y-71607435D01*
X107667806Y-71606632D01*
X107671710Y-71605307D01*
X107671713Y-71605306D01*
X107954303Y-71509380D01*
X107954304Y-71509379D01*
X107958209Y-71508054D01*
X108138075Y-71419354D01*
X108229556Y-71374241D01*
X108229561Y-71374238D01*
X108233260Y-71372414D01*
X108293285Y-71332307D01*
X108484822Y-71204326D01*
X108484827Y-71204322D01*
X108488253Y-71202033D01*
X108718826Y-70999826D01*
X108921033Y-70769253D01*
X108966691Y-70700922D01*
X109089120Y-70517693D01*
X109091414Y-70514260D01*
X109227054Y-70239209D01*
X109298145Y-70029782D01*
X109324306Y-69952713D01*
X109324307Y-69952710D01*
X109325632Y-69948806D01*
X109385462Y-69648021D01*
X109405520Y-69342000D01*
X109391571Y-69129183D01*
X123689400Y-69129183D01*
X123695734Y-69140274D01*
X125966688Y-71411228D01*
X125980632Y-71418842D01*
X125982465Y-71418711D01*
X125989080Y-71414460D01*
X128061540Y-69342000D01*
X151706480Y-69342000D01*
X151726538Y-69648021D01*
X151786368Y-69948806D01*
X151787693Y-69952710D01*
X151787694Y-69952713D01*
X151813855Y-70029782D01*
X151884946Y-70239209D01*
X152020586Y-70514260D01*
X152022880Y-70517693D01*
X152145310Y-70700922D01*
X152190967Y-70769253D01*
X152393174Y-70999826D01*
X152623747Y-71202033D01*
X152627173Y-71204322D01*
X152627178Y-71204326D01*
X152818715Y-71332307D01*
X152878740Y-71372414D01*
X152882439Y-71374238D01*
X152882444Y-71374241D01*
X152973925Y-71419354D01*
X153153791Y-71508054D01*
X153157696Y-71509379D01*
X153157697Y-71509380D01*
X153440287Y-71605306D01*
X153440290Y-71605307D01*
X153444194Y-71606632D01*
X153448233Y-71607435D01*
X153448239Y-71607437D01*
X153740936Y-71665658D01*
X153740939Y-71665658D01*
X153744979Y-71666462D01*
X153749090Y-71666731D01*
X153749094Y-71666732D01*
X153972362Y-71681366D01*
X153972371Y-71681366D01*
X153974411Y-71681500D01*
X154127589Y-71681500D01*
X154129629Y-71681366D01*
X154129638Y-71681366D01*
X154352906Y-71666732D01*
X154352910Y-71666731D01*
X154357021Y-71666462D01*
X154361061Y-71665658D01*
X154361064Y-71665658D01*
X154653761Y-71607437D01*
X154653767Y-71607435D01*
X154657806Y-71606632D01*
X154661710Y-71605307D01*
X154661713Y-71605306D01*
X154944303Y-71509380D01*
X154944304Y-71509379D01*
X154948209Y-71508054D01*
X155128075Y-71419354D01*
X155219556Y-71374241D01*
X155219561Y-71374238D01*
X155223260Y-71372414D01*
X155283285Y-71332307D01*
X155474822Y-71204326D01*
X155474827Y-71204322D01*
X155478253Y-71202033D01*
X155708826Y-70999826D01*
X155911033Y-70769253D01*
X155956691Y-70700922D01*
X156079120Y-70517693D01*
X156081414Y-70514260D01*
X156217054Y-70239209D01*
X156288145Y-70029782D01*
X156314306Y-69952713D01*
X156314307Y-69952710D01*
X156315632Y-69948806D01*
X156375462Y-69648021D01*
X156395520Y-69342000D01*
X156375462Y-69035979D01*
X156356277Y-68939529D01*
X156316437Y-68739239D01*
X156316435Y-68739233D01*
X156315632Y-68735194D01*
X156217054Y-68444791D01*
X156140816Y-68290195D01*
X156083241Y-68173444D01*
X156083238Y-68173439D01*
X156081414Y-68169740D01*
X155911033Y-67914747D01*
X155708826Y-67684174D01*
X155478253Y-67481967D01*
X155474827Y-67479678D01*
X155474822Y-67479674D01*
X155226693Y-67313880D01*
X155223260Y-67311586D01*
X155219561Y-67309762D01*
X155219556Y-67309759D01*
X155078307Y-67240103D01*
X154948209Y-67175946D01*
X154944303Y-67174620D01*
X154661713Y-67078694D01*
X154661710Y-67078693D01*
X154657806Y-67077368D01*
X154653767Y-67076565D01*
X154653761Y-67076563D01*
X154361064Y-67018342D01*
X154361061Y-67018342D01*
X154357021Y-67017538D01*
X154352910Y-67017269D01*
X154352906Y-67017268D01*
X154129638Y-67002634D01*
X154129629Y-67002634D01*
X154127589Y-67002500D01*
X153974411Y-67002500D01*
X153972371Y-67002634D01*
X153972362Y-67002634D01*
X153749094Y-67017268D01*
X153749090Y-67017269D01*
X153744979Y-67017538D01*
X153740939Y-67018342D01*
X153740936Y-67018342D01*
X153448239Y-67076563D01*
X153448233Y-67076565D01*
X153444194Y-67077368D01*
X153440290Y-67078693D01*
X153440287Y-67078694D01*
X153157697Y-67174620D01*
X153153791Y-67175946D01*
X153023693Y-67240103D01*
X152882444Y-67309759D01*
X152882439Y-67309762D01*
X152878740Y-67311586D01*
X152875307Y-67313880D01*
X152627178Y-67479674D01*
X152627173Y-67479678D01*
X152623747Y-67481967D01*
X152393174Y-67684174D01*
X152190967Y-67914747D01*
X152020586Y-68169740D01*
X152018762Y-68173439D01*
X152018759Y-68173444D01*
X151961184Y-68290195D01*
X151884946Y-68444791D01*
X151786368Y-68735194D01*
X151785565Y-68739233D01*
X151785563Y-68739239D01*
X151745723Y-68939529D01*
X151726538Y-69035979D01*
X151706480Y-69342000D01*
X128061540Y-69342000D01*
X128262400Y-69141140D01*
X128269540Y-69128064D01*
X128262082Y-69117696D01*
X128046838Y-68943396D01*
X128041516Y-68939529D01*
X127738677Y-68742863D01*
X127732968Y-68739567D01*
X127411225Y-68575630D01*
X127405214Y-68572954D01*
X127068105Y-68443550D01*
X127061828Y-68441510D01*
X126713037Y-68348052D01*
X126706599Y-68346683D01*
X126349940Y-68290195D01*
X126343396Y-68289507D01*
X125982801Y-68270609D01*
X125976199Y-68270609D01*
X125615604Y-68289507D01*
X125609060Y-68290195D01*
X125252401Y-68346683D01*
X125245963Y-68348052D01*
X124897172Y-68441510D01*
X124890895Y-68443550D01*
X124553786Y-68572954D01*
X124547775Y-68575630D01*
X124226032Y-68739567D01*
X124220323Y-68742863D01*
X123917484Y-68939529D01*
X123912162Y-68943396D01*
X123697866Y-69116928D01*
X123689400Y-69129183D01*
X109391571Y-69129183D01*
X109385462Y-69035979D01*
X109366277Y-68939529D01*
X109326437Y-68739239D01*
X109326435Y-68739233D01*
X109325632Y-68735194D01*
X109227054Y-68444791D01*
X109150816Y-68290195D01*
X109093241Y-68173444D01*
X109093238Y-68173439D01*
X109091414Y-68169740D01*
X108921033Y-67914747D01*
X108718826Y-67684174D01*
X108488253Y-67481967D01*
X108484827Y-67479678D01*
X108484822Y-67479674D01*
X108236693Y-67313880D01*
X108233260Y-67311586D01*
X108229561Y-67309762D01*
X108229556Y-67309759D01*
X108088307Y-67240103D01*
X107958209Y-67175946D01*
X107954303Y-67174620D01*
X107671713Y-67078694D01*
X107671710Y-67078693D01*
X107667806Y-67077368D01*
X107663767Y-67076565D01*
X107663761Y-67076563D01*
X107371064Y-67018342D01*
X107371061Y-67018342D01*
X107367021Y-67017538D01*
X107362910Y-67017269D01*
X107362906Y-67017268D01*
X107139638Y-67002634D01*
X107139629Y-67002634D01*
X107137589Y-67002500D01*
X106984411Y-67002500D01*
X106982371Y-67002634D01*
X106982362Y-67002634D01*
X106759094Y-67017268D01*
X106759090Y-67017269D01*
X106754979Y-67017538D01*
X106750939Y-67018342D01*
X106750936Y-67018342D01*
X106458239Y-67076563D01*
X106458233Y-67076565D01*
X106454194Y-67077368D01*
X106450290Y-67078693D01*
X106450287Y-67078694D01*
X106167697Y-67174620D01*
X106163791Y-67175946D01*
X106033693Y-67240103D01*
X105892444Y-67309759D01*
X105892439Y-67309762D01*
X105888740Y-67311586D01*
X105885307Y-67313880D01*
X105637178Y-67479674D01*
X105637173Y-67479678D01*
X105633747Y-67481967D01*
X105403174Y-67684174D01*
X105200967Y-67914747D01*
X105030586Y-68169740D01*
X105028762Y-68173439D01*
X105028759Y-68173444D01*
X104971184Y-68290195D01*
X104894946Y-68444791D01*
X104796368Y-68735194D01*
X104795565Y-68739233D01*
X104795563Y-68739239D01*
X104755723Y-68939529D01*
X104736538Y-69035979D01*
X104716480Y-69342000D01*
X103959500Y-69342000D01*
X103959500Y-65731500D01*
X103979502Y-65663379D01*
X104033158Y-65616886D01*
X104085500Y-65605500D01*
X157026500Y-65605500D01*
X157094621Y-65625502D01*
G37*
%TD.AperFunction*%
%TD*%
M02*
