%TF.GenerationSoftware,KiCad,Pcbnew,(6.99.0-1698-gc3bed8f6ee)*%
%TF.CreationDate,2022-04-26T12:30:48-05:00*%
%TF.ProjectId,Pneumatics Control Unit V1,506e6575-6d61-4746-9963-7320436f6e74,rev?*%
%TF.SameCoordinates,Original*%
%TF.FileFunction,Soldermask,Bot*%
%TF.FilePolarity,Negative*%
%FSLAX46Y46*%
G04 Gerber Fmt 4.6, Leading zero omitted, Abs format (unit mm)*
G04 Created by KiCad (PCBNEW (6.99.0-1698-gc3bed8f6ee)) date 2022-04-26 12:30:48*
%MOMM*%
%LPD*%
G01*
G04 APERTURE LIST*
G04 Aperture macros list*
%AMRoundRect*
0 Rectangle with rounded corners*
0 $1 Rounding radius*
0 $2 $3 $4 $5 $6 $7 $8 $9 X,Y pos of 4 corners*
0 Add a 4 corners polygon primitive as box body*
4,1,4,$2,$3,$4,$5,$6,$7,$8,$9,$2,$3,0*
0 Add four circle primitives for the rounded corners*
1,1,$1+$1,$2,$3*
1,1,$1+$1,$4,$5*
1,1,$1+$1,$6,$7*
1,1,$1+$1,$8,$9*
0 Add four rect primitives between the rounded corners*
20,1,$1+$1,$2,$3,$4,$5,0*
20,1,$1+$1,$4,$5,$6,$7,0*
20,1,$1+$1,$6,$7,$8,$9,0*
20,1,$1+$1,$8,$9,$2,$3,0*%
G04 Aperture macros list end*
%ADD10R,1.700000X1.700000*%
%ADD11O,1.700000X1.700000*%
%ADD12C,4.170000*%
%ADD13C,3.000000*%
%ADD14C,1.200000*%
%ADD15C,1.440000*%
%ADD16O,1.300000X0.650000*%
%ADD17O,0.775000X1.550000*%
%ADD18RoundRect,0.250000X-0.337500X-0.475000X0.337500X-0.475000X0.337500X0.475000X-0.337500X0.475000X0*%
%ADD19RoundRect,0.250000X-0.350000X-0.450000X0.350000X-0.450000X0.350000X0.450000X-0.350000X0.450000X0*%
%ADD20RoundRect,0.250000X0.337500X0.475000X-0.337500X0.475000X-0.337500X-0.475000X0.337500X-0.475000X0*%
%ADD21R,0.450000X0.400000*%
%ADD22R,0.450000X0.500000*%
%ADD23R,0.450800X1.136200*%
%ADD24C,1.600000*%
%ADD25C,1.100000*%
%ADD26RoundRect,0.101600X-0.150000X-0.775000X0.150000X-0.775000X0.150000X0.775000X-0.150000X0.775000X0*%
%ADD27RoundRect,0.100000X-0.150000X-0.775000X0.150000X-0.775000X0.150000X0.775000X-0.150000X0.775000X0*%
%ADD28RoundRect,0.101600X-0.600000X-1.375000X0.600000X-1.375000X0.600000X1.375000X-0.600000X1.375000X0*%
%ADD29C,6.203200*%
%ADD30RoundRect,0.250000X0.350000X0.450000X-0.350000X0.450000X-0.350000X-0.450000X0.350000X-0.450000X0*%
%ADD31R,1.460500X0.558800*%
G04 APERTURE END LIST*
D10*
%TO.C,J10*%
X153948999Y-110478249D03*
D11*
X153948999Y-113018249D03*
%TD*%
D10*
%TO.C,J11*%
X154202999Y-88157999D03*
D11*
X154202999Y-90697999D03*
%TD*%
D12*
%TO.C,H2*%
X107061000Y-69342000D03*
%TD*%
D10*
%TO.C,J5*%
X106704999Y-76473999D03*
D11*
X106704999Y-79013999D03*
%TD*%
D13*
%TO.C,J1*%
X112856000Y-126992000D03*
X122856000Y-126992000D03*
D14*
X119386000Y-124692000D03*
X118366000Y-122152000D03*
X117346000Y-124692000D03*
X116326000Y-122152000D03*
%TD*%
D15*
%TO.C,J14*%
X145161000Y-108077000D03*
X145161000Y-110617000D03*
X145161000Y-113157000D03*
%TD*%
D16*
%TO.C,J12*%
X144184999Y-126712999D03*
X149184999Y-126712999D03*
D17*
X143184999Y-129412999D03*
X150184999Y-129412999D03*
%TD*%
D12*
%TO.C,H4*%
X107061000Y-127000000D03*
%TD*%
%TO.C,H1*%
X154051000Y-69342000D03*
%TD*%
D10*
%TO.C,J4*%
X106806999Y-87522999D03*
D11*
X106806999Y-90062999D03*
%TD*%
D10*
%TO.C,J9*%
X153948999Y-76061249D03*
D11*
X153948999Y-78601249D03*
%TD*%
D12*
%TO.C,H3*%
X154051000Y-127000000D03*
%TD*%
D15*
%TO.C,J13*%
X108331000Y-117602000D03*
X108331000Y-120142000D03*
X108331000Y-122682000D03*
%TD*%
D10*
%TO.C,J7*%
X154329999Y-98678999D03*
D11*
X154329999Y-101218999D03*
%TD*%
D10*
%TO.C,J6*%
X106577999Y-100095999D03*
D11*
X106577999Y-102635999D03*
%TD*%
D10*
%TO.C,J8*%
X106704999Y-109473999D03*
D11*
X106704999Y-112013999D03*
%TD*%
D13*
%TO.C,J2*%
X128096000Y-126992000D03*
X138096000Y-126992000D03*
D14*
X134626000Y-124692000D03*
X133606000Y-122152000D03*
X132586000Y-124692000D03*
X131566000Y-122152000D03*
%TD*%
D18*
%TO.C,C10*%
X147806500Y-118364000D03*
X149881500Y-118364000D03*
%TD*%
D19*
%TO.C,R4*%
X126508000Y-120396000D03*
X128508000Y-120396000D03*
%TD*%
D20*
%TO.C,C9*%
X145944500Y-118364000D03*
X143869500Y-118364000D03*
%TD*%
%TO.C,C3*%
X122068500Y-121920000D03*
X119993500Y-121920000D03*
%TD*%
D21*
%TO.C,D6*%
X151450999Y-97643999D03*
X151450999Y-98443999D03*
D22*
X150300999Y-98043999D03*
%TD*%
D21*
%TO.C,D3*%
X110556999Y-86721999D03*
X110556999Y-87521999D03*
D22*
X109406999Y-87121999D03*
%TD*%
D18*
%TO.C,C5*%
X147806500Y-120904000D03*
X149881500Y-120904000D03*
%TD*%
D20*
%TO.C,C8*%
X145901500Y-120904000D03*
X143826500Y-120904000D03*
%TD*%
D21*
%TO.C,D5*%
X110556999Y-99421999D03*
X110556999Y-100221999D03*
D22*
X109406999Y-99821999D03*
%TD*%
D23*
%TO.C,MOSFET4*%
X151843498Y-101757248D03*
X150543500Y-101757248D03*
X151193499Y-99982249D03*
%TD*%
%TO.C,MOSFET6*%
X151208498Y-79754498D03*
X149908500Y-79754498D03*
X150558499Y-77979499D03*
%TD*%
D24*
%TO.C,J3*%
X139975500Y-91781250D03*
D25*
X119975500Y-91781250D03*
D26*
X120725500Y-97056250D03*
X120975500Y-89506250D03*
X121225500Y-97056250D03*
X121475500Y-89506250D03*
X121725500Y-97056250D03*
X121975500Y-89506250D03*
X122225500Y-97056250D03*
X122475500Y-89506250D03*
X122725500Y-97056250D03*
X122975500Y-89506250D03*
X123225500Y-97056250D03*
X123475500Y-89506250D03*
X123725500Y-97056250D03*
X123975500Y-89506250D03*
X124225500Y-97056250D03*
X124475500Y-89506250D03*
X124725500Y-97056250D03*
X124975500Y-89506250D03*
X125225500Y-97056250D03*
X125475500Y-89506250D03*
X125725500Y-97056250D03*
X125975500Y-89506250D03*
X126225500Y-97056250D03*
X128475500Y-89506250D03*
X128725500Y-97056250D03*
X128975500Y-89506250D03*
X129225500Y-97056250D03*
X129475500Y-89506250D03*
X129725500Y-97056250D03*
X129975500Y-89506250D03*
X130225500Y-97056250D03*
X130475500Y-89506250D03*
X130725500Y-97056250D03*
X130975500Y-89506250D03*
X131225500Y-97056250D03*
X131475500Y-89506250D03*
D27*
X131725500Y-97056250D03*
D26*
X131975500Y-89506250D03*
X132225500Y-97056250D03*
X132475500Y-89506250D03*
X132725500Y-97056250D03*
X132975500Y-89506250D03*
X133225500Y-97056250D03*
X133475500Y-89506250D03*
X133725500Y-97056250D03*
X133975500Y-89506250D03*
X134225500Y-97056250D03*
X134475500Y-89506250D03*
X134725500Y-97056250D03*
X134975500Y-89506250D03*
X135225500Y-97056250D03*
X135475500Y-89506250D03*
X135725500Y-97056250D03*
X135975500Y-89506250D03*
X136225500Y-97056250D03*
X136475500Y-89506250D03*
X136725500Y-97056250D03*
X136975500Y-89506250D03*
X137225500Y-97056250D03*
X137475500Y-89506250D03*
X137725500Y-97056250D03*
X137975500Y-89506250D03*
X138225500Y-97056250D03*
X138475500Y-89506250D03*
X138725500Y-97056250D03*
X138975500Y-89506250D03*
X139225500Y-97056250D03*
D28*
X119625500Y-96281250D03*
X140325500Y-96281250D03*
%TD*%
D21*
%TO.C,D9*%
X151069999Y-109042249D03*
X151069999Y-109842249D03*
D22*
X149919999Y-109442249D03*
%TD*%
D21*
%TO.C,D1*%
X123376999Y-121303999D03*
X123376999Y-120503999D03*
D22*
X124526999Y-120903999D03*
%TD*%
D21*
%TO.C,D7*%
X110810999Y-108565999D03*
X110810999Y-109365999D03*
D22*
X109660999Y-108965999D03*
%TD*%
D23*
%TO.C,MOSFET7*%
X151271998Y-113758748D03*
X149972000Y-113758748D03*
X150621999Y-111983749D03*
%TD*%
%TO.C,MOSFET5*%
X110885998Y-112647498D03*
X109586000Y-112647498D03*
X110235999Y-110872499D03*
%TD*%
%TO.C,MOSFET8*%
X151574499Y-91851248D03*
X150274501Y-91851248D03*
X150924500Y-90076249D03*
%TD*%
%TO.C,MOSFET2*%
X110758998Y-79246498D03*
X109459000Y-79246498D03*
X110108999Y-77471499D03*
%TD*%
D21*
%TO.C,D8*%
X151196999Y-74879249D03*
X151196999Y-75679249D03*
D22*
X150046999Y-75279249D03*
%TD*%
D29*
%TO.C,H5*%
X125979500Y-71783250D03*
%TD*%
D30*
%TO.C,R2*%
X115808000Y-118364000D03*
X113808000Y-118364000D03*
%TD*%
D20*
%TO.C,C4*%
X134133500Y-115316000D03*
X132058500Y-115316000D03*
%TD*%
D31*
%TO.C,U1*%
X119195849Y-116712999D03*
X119195849Y-115442999D03*
X119195849Y-114172999D03*
X124644149Y-112902999D03*
X124644149Y-114172999D03*
X124644149Y-115442999D03*
X124644149Y-116712999D03*
X119195849Y-112902999D03*
%TD*%
D21*
%TO.C,D10*%
X151133499Y-87610999D03*
X151133499Y-88410999D03*
D22*
X149983499Y-88010999D03*
%TD*%
D21*
%TO.C,D2*%
X128456999Y-115207999D03*
X128456999Y-114407999D03*
D22*
X129606999Y-114807999D03*
%TD*%
D21*
%TO.C,D4*%
X110810999Y-75291999D03*
X110810999Y-76091999D03*
D22*
X109660999Y-75691999D03*
%TD*%
D20*
%TO.C,C1*%
X115845500Y-115824000D03*
X113770500Y-115824000D03*
%TD*%
D30*
%TO.C,R3*%
X133588000Y-118364000D03*
X131588000Y-118364000D03*
%TD*%
%TO.C,R1*%
X121904000Y-119380000D03*
X119904000Y-119380000D03*
%TD*%
D20*
%TO.C,C2*%
X128545500Y-122428000D03*
X126470500Y-122428000D03*
%TD*%
D23*
%TO.C,MOSFET1*%
X110631998Y-90803498D03*
X109332000Y-90803498D03*
X109981999Y-89028499D03*
%TD*%
%TO.C,MOSFET3*%
X110631998Y-103503498D03*
X109332000Y-103503498D03*
X109981999Y-101728499D03*
%TD*%
M02*
