%TF.GenerationSoftware,KiCad,Pcbnew,(5.99.0-8817-g721bf82603)*%
%TF.CreationDate,2021-02-09T01:09:19-06:00*%
%TF.ProjectId,VEXRS485ToSerial,56455852-5334-4383-9554-6f5365726961,rev?*%
%TF.SameCoordinates,Original*%
%TF.FileFunction,Legend,Bot*%
%TF.FilePolarity,Positive*%
%FSLAX46Y46*%
G04 Gerber Fmt 4.6, Leading zero omitted, Abs format (unit mm)*
G04 Created by KiCad (PCBNEW (5.99.0-8817-g721bf82603)) date 2021-02-09 01:09:19*
%MOMM*%
%LPD*%
G01*
G04 APERTURE LIST*
%ADD10C,0.100000*%
%ADD11C,0.150000*%
%ADD12C,0.127000*%
%ADD13C,0.200000*%
%ADD14C,0.120000*%
G04 APERTURE END LIST*
D10*
X89304522Y-106914190D02*
X89304522Y-107271333D01*
X89328332Y-107342761D01*
X89375951Y-107390380D01*
X89447379Y-107414190D01*
X89494999Y-107414190D01*
X88828332Y-107414190D02*
X89066427Y-107414190D01*
X89066427Y-106914190D01*
X88375951Y-107366571D02*
X88399760Y-107390380D01*
X88471189Y-107414190D01*
X88518808Y-107414190D01*
X88590237Y-107390380D01*
X88637856Y-107342761D01*
X88661665Y-107295142D01*
X88685475Y-107199904D01*
X88685475Y-107128476D01*
X88661665Y-107033238D01*
X88637856Y-106985619D01*
X88590237Y-106938000D01*
X88518808Y-106914190D01*
X88471189Y-106914190D01*
X88399760Y-106938000D01*
X88375951Y-106961809D01*
X88018808Y-106914190D02*
X88018808Y-107271333D01*
X88042618Y-107342761D01*
X88090237Y-107390380D01*
X88161665Y-107414190D01*
X88209284Y-107414190D01*
X87542618Y-107414190D02*
X87780713Y-107414190D01*
X87780713Y-106914190D01*
X87090237Y-107366571D02*
X87114046Y-107390380D01*
X87185475Y-107414190D01*
X87233094Y-107414190D01*
X87304522Y-107390380D01*
X87352141Y-107342761D01*
X87375951Y-107295142D01*
X87399760Y-107199904D01*
X87399760Y-107128476D01*
X87375951Y-107033238D01*
X87352141Y-106985619D01*
X87304522Y-106938000D01*
X87233094Y-106914190D01*
X87185475Y-106914190D01*
X87114046Y-106938000D01*
X87090237Y-106961809D01*
X86733094Y-106914190D02*
X86733094Y-107271333D01*
X86756903Y-107342761D01*
X86804522Y-107390380D01*
X86875951Y-107414190D01*
X86923570Y-107414190D01*
X86256903Y-107414190D02*
X86494999Y-107414190D01*
X86494999Y-106914190D01*
X85804522Y-107366571D02*
X85828332Y-107390380D01*
X85899760Y-107414190D01*
X85947379Y-107414190D01*
X86018808Y-107390380D01*
X86066427Y-107342761D01*
X86090237Y-107295142D01*
X86114046Y-107199904D01*
X86114046Y-107128476D01*
X86090237Y-107033238D01*
X86066427Y-106985619D01*
X86018808Y-106938000D01*
X85947379Y-106914190D01*
X85899760Y-106914190D01*
X85828332Y-106938000D01*
X85804522Y-106961809D01*
X85447379Y-106914190D02*
X85447379Y-107271333D01*
X85471189Y-107342761D01*
X85518808Y-107390380D01*
X85590237Y-107414190D01*
X85637856Y-107414190D01*
X84971189Y-107414190D02*
X85209284Y-107414190D01*
X85209284Y-106914190D01*
X84518808Y-107366571D02*
X84542618Y-107390380D01*
X84614046Y-107414190D01*
X84661665Y-107414190D01*
X84733094Y-107390380D01*
X84780713Y-107342761D01*
X84804522Y-107295142D01*
X84828332Y-107199904D01*
X84828332Y-107128476D01*
X84804522Y-107033238D01*
X84780713Y-106985619D01*
X84733094Y-106938000D01*
X84661665Y-106914190D01*
X84614046Y-106914190D01*
X84542618Y-106938000D01*
X84518808Y-106961809D01*
D11*
%TO.C,Y1*%
X83915190Y-93321190D02*
X83915190Y-93797380D01*
X84248523Y-92797380D02*
X83915190Y-93321190D01*
X83581857Y-92797380D01*
X82724714Y-93797380D02*
X83296142Y-93797380D01*
X83010428Y-93797380D02*
X83010428Y-92797380D01*
X83105666Y-92940238D01*
X83200904Y-93035476D01*
X83296142Y-93083095D01*
%TO.C,C10*%
X79509857Y-106402142D02*
X79557476Y-106449761D01*
X79700333Y-106497380D01*
X79795571Y-106497380D01*
X79938428Y-106449761D01*
X80033666Y-106354523D01*
X80081285Y-106259285D01*
X80128904Y-106068809D01*
X80128904Y-105925952D01*
X80081285Y-105735476D01*
X80033666Y-105640238D01*
X79938428Y-105545000D01*
X79795571Y-105497380D01*
X79700333Y-105497380D01*
X79557476Y-105545000D01*
X79509857Y-105592619D01*
X78557476Y-106497380D02*
X79128904Y-106497380D01*
X78843190Y-106497380D02*
X78843190Y-105497380D01*
X78938428Y-105640238D01*
X79033666Y-105735476D01*
X79128904Y-105783095D01*
X77938428Y-105497380D02*
X77843190Y-105497380D01*
X77747952Y-105545000D01*
X77700333Y-105592619D01*
X77652714Y-105687857D01*
X77605095Y-105878333D01*
X77605095Y-106116428D01*
X77652714Y-106306904D01*
X77700333Y-106402142D01*
X77747952Y-106449761D01*
X77843190Y-106497380D01*
X77938428Y-106497380D01*
X78033666Y-106449761D01*
X78081285Y-106402142D01*
X78128904Y-106306904D01*
X78176523Y-106116428D01*
X78176523Y-105878333D01*
X78128904Y-105687857D01*
X78081285Y-105592619D01*
X78033666Y-105545000D01*
X77938428Y-105497380D01*
%TO.C,C8*%
X69741166Y-96467142D02*
X69788785Y-96514761D01*
X69931642Y-96562380D01*
X70026880Y-96562380D01*
X70169738Y-96514761D01*
X70264976Y-96419523D01*
X70312595Y-96324285D01*
X70360214Y-96133809D01*
X70360214Y-95990952D01*
X70312595Y-95800476D01*
X70264976Y-95705238D01*
X70169738Y-95610000D01*
X70026880Y-95562380D01*
X69931642Y-95562380D01*
X69788785Y-95610000D01*
X69741166Y-95657619D01*
X69169738Y-95990952D02*
X69264976Y-95943333D01*
X69312595Y-95895714D01*
X69360214Y-95800476D01*
X69360214Y-95752857D01*
X69312595Y-95657619D01*
X69264976Y-95610000D01*
X69169738Y-95562380D01*
X68979261Y-95562380D01*
X68884023Y-95610000D01*
X68836404Y-95657619D01*
X68788785Y-95752857D01*
X68788785Y-95800476D01*
X68836404Y-95895714D01*
X68884023Y-95943333D01*
X68979261Y-95990952D01*
X69169738Y-95990952D01*
X69264976Y-96038571D01*
X69312595Y-96086190D01*
X69360214Y-96181428D01*
X69360214Y-96371904D01*
X69312595Y-96467142D01*
X69264976Y-96514761D01*
X69169738Y-96562380D01*
X68979261Y-96562380D01*
X68884023Y-96514761D01*
X68836404Y-96467142D01*
X68788785Y-96371904D01*
X68788785Y-96181428D01*
X68836404Y-96086190D01*
X68884023Y-96038571D01*
X68979261Y-95990952D01*
%TO.C,R6*%
X88288666Y-101417380D02*
X88622000Y-100941190D01*
X88860095Y-101417380D02*
X88860095Y-100417380D01*
X88479142Y-100417380D01*
X88383904Y-100465000D01*
X88336285Y-100512619D01*
X88288666Y-100607857D01*
X88288666Y-100750714D01*
X88336285Y-100845952D01*
X88383904Y-100893571D01*
X88479142Y-100941190D01*
X88860095Y-100941190D01*
X87431523Y-100417380D02*
X87622000Y-100417380D01*
X87717238Y-100465000D01*
X87764857Y-100512619D01*
X87860095Y-100655476D01*
X87907714Y-100845952D01*
X87907714Y-101226904D01*
X87860095Y-101322142D01*
X87812476Y-101369761D01*
X87717238Y-101417380D01*
X87526761Y-101417380D01*
X87431523Y-101369761D01*
X87383904Y-101322142D01*
X87336285Y-101226904D01*
X87336285Y-100988809D01*
X87383904Y-100893571D01*
X87431523Y-100845952D01*
X87526761Y-100798333D01*
X87717238Y-100798333D01*
X87812476Y-100845952D01*
X87860095Y-100893571D01*
X87907714Y-100988809D01*
%TO.C,R5*%
X88796666Y-97353380D02*
X89130000Y-96877190D01*
X89368095Y-97353380D02*
X89368095Y-96353380D01*
X88987142Y-96353380D01*
X88891904Y-96401000D01*
X88844285Y-96448619D01*
X88796666Y-96543857D01*
X88796666Y-96686714D01*
X88844285Y-96781952D01*
X88891904Y-96829571D01*
X88987142Y-96877190D01*
X89368095Y-96877190D01*
X87891904Y-96353380D02*
X88368095Y-96353380D01*
X88415714Y-96829571D01*
X88368095Y-96781952D01*
X88272857Y-96734333D01*
X88034761Y-96734333D01*
X87939523Y-96781952D01*
X87891904Y-96829571D01*
X87844285Y-96924809D01*
X87844285Y-97162904D01*
X87891904Y-97258142D01*
X87939523Y-97305761D01*
X88034761Y-97353380D01*
X88272857Y-97353380D01*
X88368095Y-97305761D01*
X88415714Y-97258142D01*
%TO.C,R7*%
X81319666Y-104719380D02*
X81653000Y-104243190D01*
X81891095Y-104719380D02*
X81891095Y-103719380D01*
X81510142Y-103719380D01*
X81414904Y-103767000D01*
X81367285Y-103814619D01*
X81319666Y-103909857D01*
X81319666Y-104052714D01*
X81367285Y-104147952D01*
X81414904Y-104195571D01*
X81510142Y-104243190D01*
X81891095Y-104243190D01*
X80986333Y-103719380D02*
X80319666Y-103719380D01*
X80748238Y-104719380D01*
%TO.C,C9*%
X79287666Y-88727642D02*
X79335285Y-88775261D01*
X79478142Y-88822880D01*
X79573380Y-88822880D01*
X79716238Y-88775261D01*
X79811476Y-88680023D01*
X79859095Y-88584785D01*
X79906714Y-88394309D01*
X79906714Y-88251452D01*
X79859095Y-88060976D01*
X79811476Y-87965738D01*
X79716238Y-87870500D01*
X79573380Y-87822880D01*
X79478142Y-87822880D01*
X79335285Y-87870500D01*
X79287666Y-87918119D01*
X78811476Y-88822880D02*
X78621000Y-88822880D01*
X78525761Y-88775261D01*
X78478142Y-88727642D01*
X78382904Y-88584785D01*
X78335285Y-88394309D01*
X78335285Y-88013357D01*
X78382904Y-87918119D01*
X78430523Y-87870500D01*
X78525761Y-87822880D01*
X78716238Y-87822880D01*
X78811476Y-87870500D01*
X78859095Y-87918119D01*
X78906714Y-88013357D01*
X78906714Y-88251452D01*
X78859095Y-88346690D01*
X78811476Y-88394309D01*
X78716238Y-88441928D01*
X78525761Y-88441928D01*
X78430523Y-88394309D01*
X78382904Y-88346690D01*
X78335285Y-88251452D01*
%TO.C,C5*%
X86526666Y-91289142D02*
X86574285Y-91336761D01*
X86717142Y-91384380D01*
X86812380Y-91384380D01*
X86955238Y-91336761D01*
X87050476Y-91241523D01*
X87098095Y-91146285D01*
X87145714Y-90955809D01*
X87145714Y-90812952D01*
X87098095Y-90622476D01*
X87050476Y-90527238D01*
X86955238Y-90432000D01*
X86812380Y-90384380D01*
X86717142Y-90384380D01*
X86574285Y-90432000D01*
X86526666Y-90479619D01*
X85621904Y-90384380D02*
X86098095Y-90384380D01*
X86145714Y-90860571D01*
X86098095Y-90812952D01*
X86002857Y-90765333D01*
X85764761Y-90765333D01*
X85669523Y-90812952D01*
X85621904Y-90860571D01*
X85574285Y-90955809D01*
X85574285Y-91193904D01*
X85621904Y-91289142D01*
X85669523Y-91336761D01*
X85764761Y-91384380D01*
X86002857Y-91384380D01*
X86098095Y-91336761D01*
X86145714Y-91289142D01*
%TO.C,R11*%
X78685380Y-83574142D02*
X78209190Y-83240809D01*
X78685380Y-83002714D02*
X77685380Y-83002714D01*
X77685380Y-83383666D01*
X77733000Y-83478904D01*
X77780619Y-83526523D01*
X77875857Y-83574142D01*
X78018714Y-83574142D01*
X78113952Y-83526523D01*
X78161571Y-83478904D01*
X78209190Y-83383666D01*
X78209190Y-83002714D01*
X78685380Y-84526523D02*
X78685380Y-83955095D01*
X78685380Y-84240809D02*
X77685380Y-84240809D01*
X77828238Y-84145571D01*
X77923476Y-84050333D01*
X77971095Y-83955095D01*
X78685380Y-85478904D02*
X78685380Y-84907476D01*
X78685380Y-85193190D02*
X77685380Y-85193190D01*
X77828238Y-85097952D01*
X77923476Y-85002714D01*
X77971095Y-84907476D01*
%TO.C,R8*%
X74207666Y-106497380D02*
X74541000Y-106021190D01*
X74779095Y-106497380D02*
X74779095Y-105497380D01*
X74398142Y-105497380D01*
X74302904Y-105545000D01*
X74255285Y-105592619D01*
X74207666Y-105687857D01*
X74207666Y-105830714D01*
X74255285Y-105925952D01*
X74302904Y-105973571D01*
X74398142Y-106021190D01*
X74779095Y-106021190D01*
X73636238Y-105925952D02*
X73731476Y-105878333D01*
X73779095Y-105830714D01*
X73826714Y-105735476D01*
X73826714Y-105687857D01*
X73779095Y-105592619D01*
X73731476Y-105545000D01*
X73636238Y-105497380D01*
X73445761Y-105497380D01*
X73350523Y-105545000D01*
X73302904Y-105592619D01*
X73255285Y-105687857D01*
X73255285Y-105735476D01*
X73302904Y-105830714D01*
X73350523Y-105878333D01*
X73445761Y-105925952D01*
X73636238Y-105925952D01*
X73731476Y-105973571D01*
X73779095Y-106021190D01*
X73826714Y-106116428D01*
X73826714Y-106306904D01*
X73779095Y-106402142D01*
X73731476Y-106449761D01*
X73636238Y-106497380D01*
X73445761Y-106497380D01*
X73350523Y-106449761D01*
X73302904Y-106402142D01*
X73255285Y-106306904D01*
X73255285Y-106116428D01*
X73302904Y-106021190D01*
X73350523Y-105973571D01*
X73445761Y-105925952D01*
%TO.C,R10*%
X73540857Y-85415380D02*
X73874190Y-84939190D01*
X74112285Y-85415380D02*
X74112285Y-84415380D01*
X73731333Y-84415380D01*
X73636095Y-84463000D01*
X73588476Y-84510619D01*
X73540857Y-84605857D01*
X73540857Y-84748714D01*
X73588476Y-84843952D01*
X73636095Y-84891571D01*
X73731333Y-84939190D01*
X74112285Y-84939190D01*
X72588476Y-85415380D02*
X73159904Y-85415380D01*
X72874190Y-85415380D02*
X72874190Y-84415380D01*
X72969428Y-84558238D01*
X73064666Y-84653476D01*
X73159904Y-84701095D01*
X71969428Y-84415380D02*
X71874190Y-84415380D01*
X71778952Y-84463000D01*
X71731333Y-84510619D01*
X71683714Y-84605857D01*
X71636095Y-84796333D01*
X71636095Y-85034428D01*
X71683714Y-85224904D01*
X71731333Y-85320142D01*
X71778952Y-85367761D01*
X71874190Y-85415380D01*
X71969428Y-85415380D01*
X72064666Y-85367761D01*
X72112285Y-85320142D01*
X72159904Y-85224904D01*
X72207523Y-85034428D01*
X72207523Y-84796333D01*
X72159904Y-84605857D01*
X72112285Y-84510619D01*
X72064666Y-84463000D01*
X71969428Y-84415380D01*
%TO.C,C6*%
X83605666Y-103354142D02*
X83653285Y-103401761D01*
X83796142Y-103449380D01*
X83891380Y-103449380D01*
X84034238Y-103401761D01*
X84129476Y-103306523D01*
X84177095Y-103211285D01*
X84224714Y-103020809D01*
X84224714Y-102877952D01*
X84177095Y-102687476D01*
X84129476Y-102592238D01*
X84034238Y-102497000D01*
X83891380Y-102449380D01*
X83796142Y-102449380D01*
X83653285Y-102497000D01*
X83605666Y-102544619D01*
X82748523Y-102449380D02*
X82939000Y-102449380D01*
X83034238Y-102497000D01*
X83081857Y-102544619D01*
X83177095Y-102687476D01*
X83224714Y-102877952D01*
X83224714Y-103258904D01*
X83177095Y-103354142D01*
X83129476Y-103401761D01*
X83034238Y-103449380D01*
X82843761Y-103449380D01*
X82748523Y-103401761D01*
X82700904Y-103354142D01*
X82653285Y-103258904D01*
X82653285Y-103020809D01*
X82700904Y-102925571D01*
X82748523Y-102877952D01*
X82843761Y-102830333D01*
X83034238Y-102830333D01*
X83129476Y-102877952D01*
X83177095Y-102925571D01*
X83224714Y-103020809D01*
%TO.C,R9*%
X85637666Y-93797380D02*
X85971000Y-93321190D01*
X86209095Y-93797380D02*
X86209095Y-92797380D01*
X85828142Y-92797380D01*
X85732904Y-92845000D01*
X85685285Y-92892619D01*
X85637666Y-92987857D01*
X85637666Y-93130714D01*
X85685285Y-93225952D01*
X85732904Y-93273571D01*
X85828142Y-93321190D01*
X86209095Y-93321190D01*
X85161476Y-93797380D02*
X84971000Y-93797380D01*
X84875761Y-93749761D01*
X84828142Y-93702142D01*
X84732904Y-93559285D01*
X84685285Y-93368809D01*
X84685285Y-92987857D01*
X84732904Y-92892619D01*
X84780523Y-92845000D01*
X84875761Y-92797380D01*
X85066238Y-92797380D01*
X85161476Y-92845000D01*
X85209095Y-92892619D01*
X85256714Y-92987857D01*
X85256714Y-93225952D01*
X85209095Y-93321190D01*
X85161476Y-93368809D01*
X85066238Y-93416428D01*
X84875761Y-93416428D01*
X84780523Y-93368809D01*
X84732904Y-93321190D01*
X84685285Y-93225952D01*
%TO.C,C7*%
X76493666Y-106402142D02*
X76541285Y-106449761D01*
X76684142Y-106497380D01*
X76779380Y-106497380D01*
X76922238Y-106449761D01*
X77017476Y-106354523D01*
X77065095Y-106259285D01*
X77112714Y-106068809D01*
X77112714Y-105925952D01*
X77065095Y-105735476D01*
X77017476Y-105640238D01*
X76922238Y-105545000D01*
X76779380Y-105497380D01*
X76684142Y-105497380D01*
X76541285Y-105545000D01*
X76493666Y-105592619D01*
X76160333Y-105497380D02*
X75493666Y-105497380D01*
X75922238Y-106497380D01*
%TO.C,U3*%
X81914904Y-90257380D02*
X81914904Y-91066904D01*
X81867285Y-91162142D01*
X81819666Y-91209761D01*
X81724428Y-91257380D01*
X81533952Y-91257380D01*
X81438714Y-91209761D01*
X81391095Y-91162142D01*
X81343476Y-91066904D01*
X81343476Y-90257380D01*
X80962523Y-90257380D02*
X80343476Y-90257380D01*
X80676809Y-90638333D01*
X80533952Y-90638333D01*
X80438714Y-90685952D01*
X80391095Y-90733571D01*
X80343476Y-90828809D01*
X80343476Y-91066904D01*
X80391095Y-91162142D01*
X80438714Y-91209761D01*
X80533952Y-91257380D01*
X80819666Y-91257380D01*
X80914904Y-91209761D01*
X80962523Y-91162142D01*
D12*
%TO.C,Y1*%
X82662000Y-98054000D02*
X82662000Y-97867500D01*
X83962000Y-94854000D02*
X83962000Y-95040500D01*
X82662000Y-98054000D02*
X83962000Y-98054000D01*
X82662000Y-94854000D02*
X82662000Y-95040500D01*
X83962000Y-98054000D02*
X83962000Y-97867500D01*
X82662000Y-94854000D02*
X83962000Y-94854000D01*
D13*
X83412000Y-94304000D02*
G75*
G03*
X83412000Y-94304000I-100000J0D01*
G01*
D14*
%TO.C,C10*%
X79221000Y-102968248D02*
X79221000Y-103490752D01*
X77751000Y-102968248D02*
X77751000Y-103490752D01*
%TO.C,C8*%
X69835752Y-98525000D02*
X69313248Y-98525000D01*
X69835752Y-97055000D02*
X69313248Y-97055000D01*
%TO.C,R6*%
X88349064Y-98325000D02*
X87894936Y-98325000D01*
X88349064Y-99795000D02*
X87894936Y-99795000D01*
%TO.C,R5*%
X88857064Y-94515000D02*
X88402936Y-94515000D01*
X88857064Y-95985000D02*
X88402936Y-95985000D01*
%TO.C,R7*%
X80291000Y-101843064D02*
X80291000Y-101388936D01*
X81761000Y-101843064D02*
X81761000Y-101388936D01*
%TO.C,C9*%
X76227000Y-88631752D02*
X76227000Y-88109248D01*
X77697000Y-88631752D02*
X77697000Y-88109248D01*
%TO.C,C5*%
X87911000Y-92187752D02*
X87911000Y-91665248D01*
X89381000Y-92187752D02*
X89381000Y-91665248D01*
%TO.C,G\u002A\u002A\u002A*%
G36*
X84181116Y-86201328D02*
G01*
X84184731Y-86212632D01*
X84184244Y-86230831D01*
X84180982Y-86241649D01*
X84176956Y-86246862D01*
X84174362Y-86238901D01*
X84173548Y-86218180D01*
X84173552Y-86217631D01*
X84174269Y-86200604D01*
X84176540Y-86195727D01*
X84181116Y-86201328D01*
G37*
G36*
X84152291Y-86231496D02*
G01*
X84152818Y-86236175D01*
X84156725Y-86250585D01*
X84156890Y-86258669D01*
X84146313Y-86261566D01*
X84137542Y-86260437D01*
X84131686Y-86255951D01*
X84131714Y-86255339D01*
X84135251Y-86246362D01*
X84142230Y-86236583D01*
X84149095Y-86230221D01*
X84152291Y-86231496D01*
G37*
G36*
X84161181Y-86180120D02*
G01*
X84162569Y-86181204D01*
X84151284Y-86183188D01*
X84143559Y-86184912D01*
X84127765Y-86192910D01*
X84120060Y-86203652D01*
X84123153Y-86214158D01*
X84127026Y-86221038D01*
X84122858Y-86234241D01*
X84121241Y-86236667D01*
X84112448Y-86243545D01*
X84106259Y-86237678D01*
X84103919Y-86220001D01*
X84108845Y-86198209D01*
X84123974Y-86183615D01*
X84147801Y-86179305D01*
X84161181Y-86180120D01*
G37*
G36*
X88988067Y-85511648D02*
G01*
X88949026Y-85560895D01*
X88915853Y-85602963D01*
X88889124Y-85637131D01*
X88869411Y-85662677D01*
X88857289Y-85678877D01*
X88853330Y-85685010D01*
X88855762Y-85688357D01*
X88866242Y-85701790D01*
X88884449Y-85724772D01*
X88909800Y-85756577D01*
X88941713Y-85796479D01*
X88979603Y-85843751D01*
X89022889Y-85897668D01*
X89070988Y-85957501D01*
X89123316Y-86022525D01*
X89179290Y-86092014D01*
X89238329Y-86165240D01*
X89299847Y-86241478D01*
X89344205Y-86296439D01*
X89404002Y-86370574D01*
X89460901Y-86441168D01*
X89514320Y-86507495D01*
X89563676Y-86568829D01*
X89608386Y-86624445D01*
X89647868Y-86673618D01*
X89681537Y-86715620D01*
X89708811Y-86749728D01*
X89729108Y-86775214D01*
X89741843Y-86791354D01*
X89746435Y-86797421D01*
X89746407Y-86797499D01*
X89738724Y-86798314D01*
X89718217Y-86799093D01*
X89685856Y-86799826D01*
X89642608Y-86800506D01*
X89589443Y-86801122D01*
X89527331Y-86801668D01*
X89457240Y-86802134D01*
X89380139Y-86802511D01*
X89296997Y-86802791D01*
X89208784Y-86802965D01*
X89116468Y-86803025D01*
X88484187Y-86803025D01*
X88484187Y-87965739D01*
X87488077Y-88961921D01*
X85216073Y-88961921D01*
X84719001Y-88461400D01*
X84221930Y-87960880D01*
X84221930Y-86803098D01*
X84195784Y-86803025D01*
X84569019Y-86803025D01*
X84569019Y-87814838D01*
X84972342Y-88221777D01*
X85375665Y-88628715D01*
X87328247Y-88628715D01*
X88137189Y-87819773D01*
X88135408Y-87313134D01*
X88133627Y-86806496D01*
X87715384Y-86804707D01*
X87297141Y-86802917D01*
X87297141Y-87479965D01*
X86988119Y-87788759D01*
X85717772Y-87788759D01*
X85402034Y-87472797D01*
X85402034Y-87327437D01*
X85749123Y-87327437D01*
X85806538Y-87384553D01*
X85863952Y-87441670D01*
X86842780Y-87441670D01*
X86896416Y-87387717D01*
X86950052Y-87333765D01*
X86950052Y-86803025D01*
X85749123Y-86803025D01*
X85749123Y-87327437D01*
X85402034Y-87327437D01*
X85402034Y-86803025D01*
X84569019Y-86803025D01*
X84195784Y-86803025D01*
X83587262Y-86801326D01*
X82952595Y-86799554D01*
X83402990Y-86241304D01*
X83427276Y-86211181D01*
X84086715Y-86211181D01*
X84089582Y-86235234D01*
X84105927Y-86259830D01*
X84115412Y-86267926D01*
X84137285Y-86275534D01*
X84160157Y-86272862D01*
X84180661Y-86261391D01*
X84191894Y-86247101D01*
X84216838Y-86247101D01*
X84221930Y-86258095D01*
X84222399Y-86258618D01*
X84227515Y-86261778D01*
X84237035Y-86264207D01*
X84252536Y-86265994D01*
X84275601Y-86267228D01*
X84307807Y-86267998D01*
X84350736Y-86268395D01*
X84405967Y-86268508D01*
X84581363Y-86268508D01*
X84757413Y-86146053D01*
X84771350Y-86136357D01*
X84816690Y-86104787D01*
X84859575Y-86074887D01*
X84898217Y-86047906D01*
X84930825Y-86025095D01*
X84955611Y-86007705D01*
X84970785Y-85996986D01*
X85008106Y-85970373D01*
X85081853Y-86021467D01*
X85092812Y-86029058D01*
X85124566Y-86051045D01*
X85163693Y-86078129D01*
X85207385Y-86108367D01*
X85252836Y-86139816D01*
X85297240Y-86170534D01*
X85438880Y-86268508D01*
X85617448Y-86268508D01*
X85640444Y-86268494D01*
X85690990Y-86268304D01*
X85729864Y-86267817D01*
X85758661Y-86266941D01*
X85778976Y-86265585D01*
X85792402Y-86263657D01*
X85800536Y-86261064D01*
X85804971Y-86257717D01*
X85807573Y-86254269D01*
X85809351Y-86245043D01*
X85800615Y-86233844D01*
X85799971Y-86233266D01*
X85789801Y-86225650D01*
X85769440Y-86211271D01*
X85740049Y-86190924D01*
X85702790Y-86165402D01*
X85658826Y-86135498D01*
X85609319Y-86102007D01*
X85555431Y-86065721D01*
X85498324Y-86027435D01*
X85209346Y-85834107D01*
X85478458Y-85652066D01*
X85528671Y-85618021D01*
X85580425Y-85582758D01*
X85627716Y-85550357D01*
X85669368Y-85521632D01*
X85704205Y-85497399D01*
X85731051Y-85478471D01*
X85748730Y-85465663D01*
X85756064Y-85459790D01*
X85759946Y-85452769D01*
X85760530Y-85439053D01*
X85759697Y-85437585D01*
X85755291Y-85434661D01*
X85746218Y-85432428D01*
X85730941Y-85430798D01*
X85707925Y-85429683D01*
X85675634Y-85428996D01*
X85632531Y-85428648D01*
X85577082Y-85428551D01*
X85397665Y-85428551D01*
X85266220Y-85519572D01*
X85254987Y-85527351D01*
X85212248Y-85556961D01*
X85169766Y-85586410D01*
X85130331Y-85613763D01*
X85096733Y-85637085D01*
X85071762Y-85654440D01*
X85008750Y-85698288D01*
X84815006Y-85563420D01*
X84621262Y-85428551D01*
X84446742Y-85428551D01*
X84439194Y-85428553D01*
X84385720Y-85428697D01*
X84344349Y-85429138D01*
X84313495Y-85429968D01*
X84291575Y-85431275D01*
X84277005Y-85433150D01*
X84268202Y-85435683D01*
X84263580Y-85438964D01*
X84258850Y-85447328D01*
X84262585Y-85458590D01*
X84269043Y-85463724D01*
X84285997Y-85475938D01*
X84312207Y-85494329D01*
X84346505Y-85518092D01*
X84387723Y-85546421D01*
X84434694Y-85578513D01*
X84486250Y-85613560D01*
X84541224Y-85650759D01*
X84594585Y-85686948D01*
X84645266Y-85721647D01*
X84690994Y-85753286D01*
X84730670Y-85781090D01*
X84763196Y-85804282D01*
X84787474Y-85822088D01*
X84802406Y-85833731D01*
X84806894Y-85838435D01*
X84806591Y-85838673D01*
X84798258Y-85844492D01*
X84779691Y-85857165D01*
X84752017Y-85875932D01*
X84716360Y-85900035D01*
X84673845Y-85928713D01*
X84625598Y-85961206D01*
X84572744Y-85996755D01*
X84516408Y-86034599D01*
X84508501Y-86039909D01*
X84452371Y-86077712D01*
X84399762Y-86113325D01*
X84351822Y-86145960D01*
X84309696Y-86174828D01*
X84274531Y-86199140D01*
X84247672Y-86217970D01*
X84247474Y-86218109D01*
X84229670Y-86230946D01*
X84222267Y-86236863D01*
X84216838Y-86247101D01*
X84191894Y-86247101D01*
X84195432Y-86242600D01*
X84201104Y-86217970D01*
X84200667Y-86210471D01*
X84192289Y-86186962D01*
X84175725Y-86170785D01*
X84154226Y-86162661D01*
X84131043Y-86163315D01*
X84109426Y-86173469D01*
X84092628Y-86193846D01*
X84086715Y-86211181D01*
X83427276Y-86211181D01*
X83453139Y-86179101D01*
X83512964Y-86104777D01*
X83569770Y-86034073D01*
X83622984Y-85967707D01*
X83672035Y-85906396D01*
X83716353Y-85850858D01*
X83755365Y-85801810D01*
X83788501Y-85759969D01*
X83815190Y-85726052D01*
X83834859Y-85700777D01*
X83846938Y-85684860D01*
X83850856Y-85679019D01*
X83848035Y-85675426D01*
X83837089Y-85661739D01*
X83818452Y-85638523D01*
X83792704Y-85606500D01*
X83760423Y-85566388D01*
X83722191Y-85518908D01*
X83678588Y-85464781D01*
X83647106Y-85425714D01*
X85908814Y-85425714D01*
X85911552Y-85463524D01*
X85922316Y-85498502D01*
X85941184Y-85526949D01*
X85959974Y-85546562D01*
X86323575Y-85546562D01*
X86361696Y-85546582D01*
X86449791Y-85546819D01*
X86524315Y-85547326D01*
X86585492Y-85548107D01*
X86633545Y-85549167D01*
X86668698Y-85550510D01*
X86691173Y-85552141D01*
X86701194Y-85554064D01*
X86702000Y-85554514D01*
X86716776Y-85569582D01*
X86729408Y-85594179D01*
X86738247Y-85624176D01*
X86741646Y-85655443D01*
X86739891Y-85685293D01*
X86730558Y-85719162D01*
X86712359Y-85746138D01*
X86697728Y-85761757D01*
X86332568Y-85761757D01*
X86275193Y-85761743D01*
X86200868Y-85761736D01*
X86138539Y-85761871D01*
X86087077Y-85762289D01*
X86045356Y-85763131D01*
X86012247Y-85764537D01*
X85986623Y-85766649D01*
X85967354Y-85769606D01*
X85953315Y-85773551D01*
X85943376Y-85778623D01*
X85936410Y-85784963D01*
X85931288Y-85792714D01*
X85926884Y-85802014D01*
X85922069Y-85813005D01*
X85920329Y-85817116D01*
X85912197Y-85847028D01*
X85909089Y-85879768D01*
X85910465Y-85901162D01*
X85918629Y-85936445D01*
X85932751Y-85966223D01*
X85951228Y-85986446D01*
X85951726Y-85986784D01*
X85956672Y-85989254D01*
X85964134Y-85991327D01*
X85975248Y-85993033D01*
X85991150Y-85994407D01*
X86012977Y-85995481D01*
X86041867Y-85996288D01*
X86078957Y-85996862D01*
X86125382Y-85997234D01*
X86182280Y-85997438D01*
X86250788Y-85997507D01*
X86332042Y-85997473D01*
X86407527Y-85997396D01*
X86479456Y-85997231D01*
X86539785Y-85996892D01*
X86589713Y-85996283D01*
X86630445Y-85995311D01*
X86663182Y-85993882D01*
X86689127Y-85991901D01*
X86709481Y-85989273D01*
X86725447Y-85985904D01*
X86738227Y-85981700D01*
X86749023Y-85976567D01*
X86759039Y-85970410D01*
X86769474Y-85963134D01*
X86779125Y-85955209D01*
X86802662Y-85928447D01*
X86826049Y-85892723D01*
X86847298Y-85851295D01*
X86864421Y-85807423D01*
X86871050Y-85785973D01*
X86877074Y-85761134D01*
X86880759Y-85735534D01*
X86882686Y-85704804D01*
X86883437Y-85664572D01*
X86883328Y-85634725D01*
X86880869Y-85585579D01*
X86874856Y-85543855D01*
X86864583Y-85505448D01*
X86849345Y-85466255D01*
X86841399Y-85447268D01*
X86981290Y-85447268D01*
X86984140Y-85453263D01*
X86995769Y-85470116D01*
X87016241Y-85497195D01*
X87045430Y-85534340D01*
X87083207Y-85581392D01*
X87129446Y-85638194D01*
X87151128Y-85664572D01*
X87184019Y-85704587D01*
X87246798Y-85780412D01*
X87317655Y-85865511D01*
X87634436Y-86245043D01*
X87654021Y-86268508D01*
X87947604Y-86268508D01*
X88282339Y-85862346D01*
X88284845Y-85859305D01*
X88351956Y-85777662D01*
X88412015Y-85704191D01*
X88464780Y-85639193D01*
X88510012Y-85582972D01*
X88547469Y-85535830D01*
X88576911Y-85498070D01*
X88598099Y-85469994D01*
X88610791Y-85451904D01*
X88614747Y-85444104D01*
X88614171Y-85442111D01*
X88611250Y-85438660D01*
X88604610Y-85436093D01*
X88592557Y-85434283D01*
X88573397Y-85433100D01*
X88545436Y-85432415D01*
X88506980Y-85432099D01*
X88456334Y-85432022D01*
X88300249Y-85432022D01*
X88053806Y-85738791D01*
X88020031Y-85780773D01*
X87976269Y-85834986D01*
X87935615Y-85885138D01*
X87898865Y-85930261D01*
X87866812Y-85969386D01*
X87840252Y-86001544D01*
X87819979Y-86025765D01*
X87806788Y-86041082D01*
X87801473Y-86046524D01*
X87797758Y-86043201D01*
X87785878Y-86030101D01*
X87766679Y-86007945D01*
X87740958Y-85977681D01*
X87709509Y-85940256D01*
X87673127Y-85896618D01*
X87632608Y-85847712D01*
X87588746Y-85794487D01*
X87542338Y-85737889D01*
X87289093Y-85428289D01*
X87135191Y-85430156D01*
X87128318Y-85430239D01*
X87079957Y-85430869D01*
X87043567Y-85431548D01*
X87017446Y-85432467D01*
X86999891Y-85433814D01*
X86989200Y-85435778D01*
X86983671Y-85438549D01*
X86981602Y-85442316D01*
X86981290Y-85447268D01*
X86841399Y-85447268D01*
X86841016Y-85446354D01*
X86837658Y-85432804D01*
X86839514Y-85421440D01*
X86846311Y-85406916D01*
X86855789Y-85386350D01*
X86871323Y-85336818D01*
X86880400Y-85278670D01*
X86883400Y-85209885D01*
X86882675Y-85176728D01*
X86874041Y-85099189D01*
X86855747Y-85030942D01*
X86827899Y-84972312D01*
X86790601Y-84923626D01*
X86781156Y-84913640D01*
X86771617Y-84903712D01*
X86762444Y-84895399D01*
X86752450Y-84888551D01*
X86740447Y-84883020D01*
X86725248Y-84878657D01*
X86705666Y-84875313D01*
X86680513Y-84872839D01*
X86648602Y-84871088D01*
X86608746Y-84869909D01*
X86559756Y-84869154D01*
X86500447Y-84868675D01*
X86429629Y-84868323D01*
X86346117Y-84867949D01*
X86317827Y-84867820D01*
X86235983Y-84867545D01*
X86166786Y-84867497D01*
X86109293Y-84867692D01*
X86062562Y-84868147D01*
X86025651Y-84868879D01*
X85997620Y-84869905D01*
X85977524Y-84871242D01*
X85964424Y-84872906D01*
X85957377Y-84874915D01*
X85941532Y-84887126D01*
X85925062Y-84912277D01*
X85914202Y-84944632D01*
X85909631Y-84980802D01*
X85912027Y-85017400D01*
X85922069Y-85051040D01*
X85925411Y-85058634D01*
X85929826Y-85068471D01*
X85934589Y-85076712D01*
X85940828Y-85083497D01*
X85949672Y-85088968D01*
X85962249Y-85093266D01*
X85979685Y-85096530D01*
X86003110Y-85098902D01*
X86033650Y-85100523D01*
X86072434Y-85101534D01*
X86120590Y-85102075D01*
X86179246Y-85102287D01*
X86249529Y-85102311D01*
X86332568Y-85102287D01*
X86697728Y-85102287D01*
X86712359Y-85117906D01*
X86721405Y-85129460D01*
X86735769Y-85161760D01*
X86741667Y-85199371D01*
X86739165Y-85238394D01*
X86728327Y-85274930D01*
X86709220Y-85305081D01*
X86707002Y-85307144D01*
X86702669Y-85309558D01*
X86695776Y-85311566D01*
X86685190Y-85313204D01*
X86669779Y-85314511D01*
X86648411Y-85315523D01*
X86619953Y-85316277D01*
X86583273Y-85316810D01*
X86537240Y-85317160D01*
X86480719Y-85317364D01*
X86412580Y-85317459D01*
X86331690Y-85317483D01*
X85965384Y-85317483D01*
X85945248Y-85334426D01*
X85927103Y-85356378D01*
X85914023Y-85388766D01*
X85908814Y-85425714D01*
X83647106Y-85425714D01*
X83630193Y-85404727D01*
X83577587Y-85339466D01*
X83521350Y-85269718D01*
X83462062Y-85196203D01*
X83400304Y-85119642D01*
X82952280Y-84564299D01*
X84221930Y-84560755D01*
X84221930Y-84179030D01*
X83805422Y-84179030D01*
X83805422Y-83106524D01*
X84149041Y-83106524D01*
X84149041Y-83828469D01*
X84359030Y-83830307D01*
X84569019Y-83832144D01*
X84569019Y-84560828D01*
X85402034Y-84560828D01*
X85402034Y-83831940D01*
X85506284Y-83831940D01*
X85504487Y-83469232D01*
X85502689Y-83106524D01*
X84149041Y-83106524D01*
X83805422Y-83106524D01*
X83805422Y-82762905D01*
X85853250Y-82762905D01*
X85853250Y-84179030D01*
X85749123Y-84179030D01*
X85749123Y-84560828D01*
X86950052Y-84560828D01*
X86950052Y-84179030D01*
X86852867Y-84179030D01*
X86852867Y-83106524D01*
X87196486Y-83106524D01*
X87196486Y-83828469D01*
X87246814Y-83830509D01*
X87297141Y-83832549D01*
X87297141Y-84560828D01*
X87712492Y-84560828D01*
X87785446Y-84560756D01*
X87856077Y-84560542D01*
X87921360Y-84560200D01*
X87980076Y-84559743D01*
X88031006Y-84559184D01*
X88072929Y-84558537D01*
X88104627Y-84557815D01*
X88124881Y-84557031D01*
X88132470Y-84556200D01*
X88132790Y-84555021D01*
X88133664Y-84542795D01*
X88134475Y-84518462D01*
X88135207Y-84483335D01*
X88135843Y-84438728D01*
X88136367Y-84385953D01*
X88136762Y-84326324D01*
X88137011Y-84261154D01*
X88137098Y-84191756D01*
X88137098Y-83831940D01*
X88553729Y-83831940D01*
X88551931Y-83469232D01*
X88550134Y-83106524D01*
X87196486Y-83106524D01*
X86852867Y-83106524D01*
X86852867Y-82762905D01*
X88900694Y-82762905D01*
X88900694Y-84179030D01*
X88484187Y-84179030D01*
X88484187Y-84560828D01*
X89123757Y-84560828D01*
X89215789Y-84560872D01*
X89303679Y-84560987D01*
X89386454Y-84561169D01*
X89463140Y-84561410D01*
X89532761Y-84561707D01*
X89594345Y-84562053D01*
X89646916Y-84562444D01*
X89689500Y-84562873D01*
X89721124Y-84563336D01*
X89740813Y-84563826D01*
X89747592Y-84564340D01*
X89745003Y-84567926D01*
X89734353Y-84581593D01*
X89716001Y-84604782D01*
X89690524Y-84636774D01*
X89658497Y-84676849D01*
X89620498Y-84724290D01*
X89577102Y-84778378D01*
X89528885Y-84838394D01*
X89476424Y-84903620D01*
X89420296Y-84973336D01*
X89361075Y-85046825D01*
X89299340Y-85123367D01*
X89251246Y-85183020D01*
X89191459Y-85257324D01*
X89134675Y-85328061D01*
X89081466Y-85394509D01*
X89041861Y-85444104D01*
X89032405Y-85455945D01*
X88988067Y-85511648D01*
G37*
G36*
X84147229Y-86199292D02*
G01*
X84152512Y-86206032D01*
X84152310Y-86207691D01*
X84145570Y-86212973D01*
X84143911Y-86212772D01*
X84138628Y-86206032D01*
X84138830Y-86204372D01*
X84145570Y-86199090D01*
X84147229Y-86199292D01*
G37*
%TO.C,R11*%
X79148000Y-83989936D02*
X79148000Y-84444064D01*
X80618000Y-83989936D02*
X80618000Y-84444064D01*
%TO.C,R8*%
X74903000Y-103039936D02*
X74903000Y-103494064D01*
X73433000Y-103039936D02*
X73433000Y-103494064D01*
%TO.C,R10*%
X73014064Y-82450000D02*
X72559936Y-82450000D01*
X73014064Y-83920000D02*
X72559936Y-83920000D01*
%TO.C,C6*%
X82577000Y-100569752D02*
X82577000Y-100047248D01*
X84047000Y-100569752D02*
X84047000Y-100047248D01*
%TO.C,R9*%
X84863000Y-96255064D02*
X84863000Y-95800936D01*
X86333000Y-96255064D02*
X86333000Y-95800936D01*
%TO.C,C7*%
X77062000Y-103490752D02*
X77062000Y-102968248D01*
X75592000Y-103490752D02*
X75592000Y-102968248D01*
%TO.C,U3*%
X73098000Y-99114000D02*
X73548000Y-99114000D01*
X80318000Y-98664000D02*
X80318000Y-99114000D01*
X73098000Y-91894000D02*
X73548000Y-91894000D01*
X80318000Y-99114000D02*
X79868000Y-99114000D01*
X73098000Y-98664000D02*
X73098000Y-99114000D01*
X79868000Y-99114000D02*
X79868000Y-100404000D01*
X80318000Y-91894000D02*
X79868000Y-91894000D01*
X80318000Y-92344000D02*
X80318000Y-91894000D01*
X73098000Y-92344000D02*
X73098000Y-91894000D01*
%TD*%
M02*
