M48
; DRILL file {KiCad (5.99.0-8817-g721bf82603)} date 02/09/21 01:09:27
; FORMAT={-:-/ absolute / inch / decimal}
; #@! TF.CreationDate,2021-02-09T01:09:27-06:00
; #@! TF.GenerationSoftware,Kicad,Pcbnew,(5.99.0-8817-g721bf82603)
FMAT,2
INCH
T1C0.0157
T2C0.0197
T3C0.0217
T4C0.0311
T5C0.0906
T6C0.0984
%
G90
G05
T1
X-1.06Y0.04
X-0.945Y0.605
X-0.935Y0.665
X-0.925Y0.14
X-0.8588Y0.7612
X-0.825Y0.045
X-0.815Y0.5223
X-0.79Y0.95
X-0.77Y0.89
X-0.765Y0.6
X-0.765Y0.3989
X-0.71Y1.0
X-0.66Y0.505
X-0.6504Y0.6045
X-0.635Y0.425
X-0.63Y1.04
X-0.63Y0.045
X-0.6219Y0.2031
X-0.51Y1.035
X-0.48Y0.65
X-0.18Y0.225
X-0.12Y0.4535
X-0.115Y0.545
X-0.115Y0.5056
T4
X-1.0791Y0.8301
X-1.0791Y0.7498
X-1.0791Y0.2951
X-1.0791Y0.2148
X-0.9791Y0.8702
X-0.9791Y0.7899
X-0.9791Y0.3352
X-0.9791Y0.2549
T5
X-1.1697Y1.0069
X-1.1697Y0.6131
X-1.1696Y0.4719
X-1.1696Y0.0781
T6
X-1.327Y0.543
X-0.08Y1.0
X-0.08Y0.08
T2
G00X-0.0713Y0.6828
M15
G01X-0.0457Y0.6828
M16
G05
G00X-0.0713Y0.4072
M15
G01X-0.0457Y0.4072
M16
G05
T3
G00X-0.1648Y0.6375
M15
G01X-0.1648Y0.6493
M16
G05
G00X-0.1648Y0.4407
M15
G01X-0.1648Y0.4525
M16
G05
T0
M30
