%TF.GenerationSoftware,KiCad,Pcbnew,(5.99.0-8817-g721bf82603)*%
%TF.CreationDate,2021-02-09T01:09:19-06:00*%
%TF.ProjectId,VEXRS485ToSerial,56455852-5334-4383-9554-6f5365726961,rev?*%
%TF.SameCoordinates,Original*%
%TF.FileFunction,Legend,Top*%
%TF.FilePolarity,Positive*%
%FSLAX46Y46*%
G04 Gerber Fmt 4.6, Leading zero omitted, Abs format (unit mm)*
G04 Created by KiCad (PCBNEW (5.99.0-8817-g721bf82603)) date 2021-02-09 01:09:19*
%MOMM*%
%LPD*%
G01*
G04 APERTURE LIST*
%ADD10C,0.100000*%
%ADD11C,0.150000*%
%ADD12C,0.127000*%
%ADD13C,0.200000*%
%ADD14C,0.120000*%
G04 APERTURE END LIST*
D10*
X80645571Y-106550333D02*
X81026523Y-106550333D01*
X80569380Y-106778904D02*
X80836047Y-105978904D01*
X81102714Y-106778904D01*
X81369380Y-106245571D02*
X81369380Y-106778904D01*
X81369380Y-106321761D02*
X81407476Y-106283666D01*
X81483666Y-106245571D01*
X81597952Y-106245571D01*
X81674142Y-106283666D01*
X81712238Y-106359857D01*
X81712238Y-106778904D01*
X82436047Y-106778904D02*
X82436047Y-105978904D01*
X82436047Y-106740809D02*
X82359857Y-106778904D01*
X82207476Y-106778904D01*
X82131285Y-106740809D01*
X82093190Y-106702714D01*
X82055095Y-106626523D01*
X82055095Y-106397952D01*
X82093190Y-106321761D01*
X82131285Y-106283666D01*
X82207476Y-106245571D01*
X82359857Y-106245571D01*
X82436047Y-106283666D01*
X82817000Y-106778904D02*
X82817000Y-106245571D01*
X82817000Y-106397952D02*
X82855095Y-106321761D01*
X82893190Y-106283666D01*
X82969380Y-106245571D01*
X83045571Y-106245571D01*
X83617000Y-106740809D02*
X83540809Y-106778904D01*
X83388428Y-106778904D01*
X83312238Y-106740809D01*
X83274142Y-106664619D01*
X83274142Y-106359857D01*
X83312238Y-106283666D01*
X83388428Y-106245571D01*
X83540809Y-106245571D01*
X83617000Y-106283666D01*
X83655095Y-106359857D01*
X83655095Y-106436047D01*
X83274142Y-106512238D01*
X83921761Y-106245571D02*
X84074142Y-106778904D01*
X84226523Y-106397952D01*
X84378904Y-106778904D01*
X84531285Y-106245571D01*
X85445571Y-106778904D02*
X85445571Y-105978904D01*
X85902714Y-106778904D02*
X85559857Y-106321761D01*
X85902714Y-105978904D02*
X85445571Y-106436047D01*
X86550333Y-106740809D02*
X86474142Y-106778904D01*
X86321761Y-106778904D01*
X86245571Y-106740809D01*
X86207476Y-106664619D01*
X86207476Y-106359857D01*
X86245571Y-106283666D01*
X86321761Y-106245571D01*
X86474142Y-106245571D01*
X86550333Y-106283666D01*
X86588428Y-106359857D01*
X86588428Y-106436047D01*
X86207476Y-106512238D01*
X86931285Y-106778904D02*
X86931285Y-106245571D01*
X86931285Y-106321761D02*
X86969380Y-106283666D01*
X87045571Y-106245571D01*
X87159857Y-106245571D01*
X87236047Y-106283666D01*
X87274142Y-106359857D01*
X87274142Y-106778904D01*
X87274142Y-106359857D02*
X87312238Y-106283666D01*
X87388428Y-106245571D01*
X87502714Y-106245571D01*
X87578904Y-106283666D01*
X87617000Y-106359857D01*
X87617000Y-106778904D01*
X87997952Y-106245571D02*
X87997952Y-107045571D01*
X87997952Y-106283666D02*
X88074142Y-106245571D01*
X88226523Y-106245571D01*
X88302714Y-106283666D01*
X88340809Y-106321761D01*
X88378904Y-106397952D01*
X88378904Y-106626523D01*
X88340809Y-106702714D01*
X88302714Y-106740809D01*
X88226523Y-106778904D01*
X88074142Y-106778904D01*
X87997952Y-106740809D01*
X89026523Y-106740809D02*
X88950333Y-106778904D01*
X88797952Y-106778904D01*
X88721761Y-106740809D01*
X88683666Y-106664619D01*
X88683666Y-106359857D01*
X88721761Y-106283666D01*
X88797952Y-106245571D01*
X88950333Y-106245571D01*
X89026523Y-106283666D01*
X89064619Y-106359857D01*
X89064619Y-106436047D01*
X88683666Y-106512238D01*
X89407476Y-106245571D02*
X89407476Y-106778904D01*
X89407476Y-106321761D02*
X89445571Y-106283666D01*
X89521761Y-106245571D01*
X89636047Y-106245571D01*
X89712238Y-106283666D01*
X89750333Y-106359857D01*
X89750333Y-106778904D01*
X82245571Y-107343095D02*
X82283666Y-107305000D01*
X82359857Y-107266904D01*
X82550333Y-107266904D01*
X82626523Y-107305000D01*
X82664619Y-107343095D01*
X82702714Y-107419285D01*
X82702714Y-107495476D01*
X82664619Y-107609761D01*
X82207476Y-108066904D01*
X82702714Y-108066904D01*
X83617000Y-107228809D02*
X82931285Y-108257380D01*
X84264619Y-107266904D02*
X83883666Y-107266904D01*
X83845571Y-107647857D01*
X83883666Y-107609761D01*
X83959857Y-107571666D01*
X84150333Y-107571666D01*
X84226523Y-107609761D01*
X84264619Y-107647857D01*
X84302714Y-107724047D01*
X84302714Y-107914523D01*
X84264619Y-107990714D01*
X84226523Y-108028809D01*
X84150333Y-108066904D01*
X83959857Y-108066904D01*
X83883666Y-108028809D01*
X83845571Y-107990714D01*
X85217000Y-107228809D02*
X84531285Y-108257380D01*
X85445571Y-107343095D02*
X85483666Y-107305000D01*
X85559857Y-107266904D01*
X85750333Y-107266904D01*
X85826523Y-107305000D01*
X85864619Y-107343095D01*
X85902714Y-107419285D01*
X85902714Y-107495476D01*
X85864619Y-107609761D01*
X85407476Y-108066904D01*
X85902714Y-108066904D01*
X86397952Y-107266904D02*
X86474142Y-107266904D01*
X86550333Y-107305000D01*
X86588428Y-107343095D01*
X86626523Y-107419285D01*
X86664619Y-107571666D01*
X86664619Y-107762142D01*
X86626523Y-107914523D01*
X86588428Y-107990714D01*
X86550333Y-108028809D01*
X86474142Y-108066904D01*
X86397952Y-108066904D01*
X86321761Y-108028809D01*
X86283666Y-107990714D01*
X86245571Y-107914523D01*
X86207476Y-107762142D01*
X86207476Y-107571666D01*
X86245571Y-107419285D01*
X86283666Y-107343095D01*
X86321761Y-107305000D01*
X86397952Y-107266904D01*
X86969380Y-107343095D02*
X87007476Y-107305000D01*
X87083666Y-107266904D01*
X87274142Y-107266904D01*
X87350333Y-107305000D01*
X87388428Y-107343095D01*
X87426523Y-107419285D01*
X87426523Y-107495476D01*
X87388428Y-107609761D01*
X86931285Y-108066904D01*
X87426523Y-108066904D01*
X88188428Y-108066904D02*
X87731285Y-108066904D01*
X87959857Y-108066904D02*
X87959857Y-107266904D01*
X87883666Y-107381190D01*
X87807476Y-107457380D01*
X87731285Y-107495476D01*
D11*
%TO.C,U1*%
X89789095Y-101179380D02*
X89789095Y-101988904D01*
X89836714Y-102084142D01*
X89884333Y-102131761D01*
X89979571Y-102179380D01*
X90170047Y-102179380D01*
X90265285Y-102131761D01*
X90312904Y-102084142D01*
X90360523Y-101988904D01*
X90360523Y-101179380D01*
X91360523Y-102179380D02*
X90789095Y-102179380D01*
X91074809Y-102179380D02*
X91074809Y-101179380D01*
X90979571Y-101322238D01*
X90884333Y-101417476D01*
X90789095Y-101465095D01*
%TO.C,H3*%
X92075095Y-87447380D02*
X92075095Y-86447380D01*
X92075095Y-86923571D02*
X92646523Y-86923571D01*
X92646523Y-87447380D02*
X92646523Y-86447380D01*
X93027476Y-86447380D02*
X93646523Y-86447380D01*
X93313190Y-86828333D01*
X93456047Y-86828333D01*
X93551285Y-86875952D01*
X93598904Y-86923571D01*
X93646523Y-87018809D01*
X93646523Y-87256904D01*
X93598904Y-87352142D01*
X93551285Y-87399761D01*
X93456047Y-87447380D01*
X93170333Y-87447380D01*
X93075095Y-87399761D01*
X93027476Y-87352142D01*
%TO.C,J2*%
X71040666Y-81748380D02*
X71040666Y-82462666D01*
X70993047Y-82605523D01*
X70897809Y-82700761D01*
X70754952Y-82748380D01*
X70659714Y-82748380D01*
X71469238Y-81843619D02*
X71516857Y-81796000D01*
X71612095Y-81748380D01*
X71850190Y-81748380D01*
X71945428Y-81796000D01*
X71993047Y-81843619D01*
X72040666Y-81938857D01*
X72040666Y-82034095D01*
X71993047Y-82176952D01*
X71421619Y-82748380D01*
X72040666Y-82748380D01*
X66802380Y-93432380D02*
X67373809Y-93432380D01*
X67088095Y-94432380D02*
X67088095Y-93432380D01*
X67611904Y-93432380D02*
X68278571Y-94432380D01*
X68278571Y-93432380D02*
X67611904Y-94432380D01*
X68421428Y-94527619D02*
X69183333Y-94527619D01*
X69421428Y-94432380D02*
X69421428Y-93432380D01*
X69802380Y-93432380D01*
X69897619Y-93480000D01*
X69945238Y-93527619D01*
X69992857Y-93622857D01*
X69992857Y-93765714D01*
X69945238Y-93860952D01*
X69897619Y-93908571D01*
X69802380Y-93956190D01*
X69421428Y-93956190D01*
X70611904Y-93432380D02*
X70802380Y-93432380D01*
X70897619Y-93480000D01*
X70992857Y-93575238D01*
X71040476Y-93765714D01*
X71040476Y-94099047D01*
X70992857Y-94289523D01*
X70897619Y-94384761D01*
X70802380Y-94432380D01*
X70611904Y-94432380D01*
X70516666Y-94384761D01*
X70421428Y-94289523D01*
X70373809Y-94099047D01*
X70373809Y-93765714D01*
X70421428Y-93575238D01*
X70516666Y-93480000D01*
X70611904Y-93432380D01*
X72040476Y-94432380D02*
X71707142Y-93956190D01*
X71469047Y-94432380D02*
X71469047Y-93432380D01*
X71850000Y-93432380D01*
X71945238Y-93480000D01*
X71992857Y-93527619D01*
X72040476Y-93622857D01*
X72040476Y-93765714D01*
X71992857Y-93860952D01*
X71945238Y-93908571D01*
X71850000Y-93956190D01*
X71469047Y-93956190D01*
X72326190Y-93432380D02*
X72897619Y-93432380D01*
X72611904Y-94432380D02*
X72611904Y-93432380D01*
%TO.C,C4*%
X76541333Y-95099142D02*
X76493714Y-95146761D01*
X76350857Y-95194380D01*
X76255619Y-95194380D01*
X76112761Y-95146761D01*
X76017523Y-95051523D01*
X75969904Y-94956285D01*
X75922285Y-94765809D01*
X75922285Y-94622952D01*
X75969904Y-94432476D01*
X76017523Y-94337238D01*
X76112761Y-94242000D01*
X76255619Y-94194380D01*
X76350857Y-94194380D01*
X76493714Y-94242000D01*
X76541333Y-94289619D01*
X77398476Y-94527714D02*
X77398476Y-95194380D01*
X77160380Y-94146761D02*
X76922285Y-94861047D01*
X77541333Y-94861047D01*
%TO.C,J3*%
X91995666Y-88987380D02*
X91995666Y-89701666D01*
X91948047Y-89844523D01*
X91852809Y-89939761D01*
X91709952Y-89987380D01*
X91614714Y-89987380D01*
X92376619Y-88987380D02*
X92995666Y-88987380D01*
X92662333Y-89368333D01*
X92805190Y-89368333D01*
X92900428Y-89415952D01*
X92948047Y-89463571D01*
X92995666Y-89558809D01*
X92995666Y-89796904D01*
X92948047Y-89892142D01*
X92900428Y-89939761D01*
X92805190Y-89987380D01*
X92519476Y-89987380D01*
X92424238Y-89939761D01*
X92376619Y-89892142D01*
%TO.C,R2*%
X79573333Y-99767380D02*
X79240000Y-99291190D01*
X79001904Y-99767380D02*
X79001904Y-98767380D01*
X79382857Y-98767380D01*
X79478095Y-98815000D01*
X79525714Y-98862619D01*
X79573333Y-98957857D01*
X79573333Y-99100714D01*
X79525714Y-99195952D01*
X79478095Y-99243571D01*
X79382857Y-99291190D01*
X79001904Y-99291190D01*
X79954285Y-98862619D02*
X80001904Y-98815000D01*
X80097142Y-98767380D01*
X80335238Y-98767380D01*
X80430476Y-98815000D01*
X80478095Y-98862619D01*
X80525714Y-98957857D01*
X80525714Y-99053095D01*
X80478095Y-99195952D01*
X79906666Y-99767380D01*
X80525714Y-99767380D01*
%TO.C,H1*%
X60325095Y-92527380D02*
X60325095Y-91527380D01*
X60325095Y-92003571D02*
X60896523Y-92003571D01*
X60896523Y-92527380D02*
X60896523Y-91527380D01*
X61896523Y-92527380D02*
X61325095Y-92527380D01*
X61610809Y-92527380D02*
X61610809Y-91527380D01*
X61515571Y-91670238D01*
X61420333Y-91765476D01*
X61325095Y-91813095D01*
%TO.C,R1*%
X79573333Y-103577380D02*
X79240000Y-103101190D01*
X79001904Y-103577380D02*
X79001904Y-102577380D01*
X79382857Y-102577380D01*
X79478095Y-102625000D01*
X79525714Y-102672619D01*
X79573333Y-102767857D01*
X79573333Y-102910714D01*
X79525714Y-103005952D01*
X79478095Y-103053571D01*
X79382857Y-103101190D01*
X79001904Y-103101190D01*
X80525714Y-103577380D02*
X79954285Y-103577380D01*
X80240000Y-103577380D02*
X80240000Y-102577380D01*
X80144761Y-102720238D01*
X80049523Y-102815476D01*
X79954285Y-102863095D01*
%TO.C,C1*%
X76668333Y-97664542D02*
X76620714Y-97712161D01*
X76477857Y-97759780D01*
X76382619Y-97759780D01*
X76239761Y-97712161D01*
X76144523Y-97616923D01*
X76096904Y-97521685D01*
X76049285Y-97331209D01*
X76049285Y-97188352D01*
X76096904Y-96997876D01*
X76144523Y-96902638D01*
X76239761Y-96807400D01*
X76382619Y-96759780D01*
X76477857Y-96759780D01*
X76620714Y-96807400D01*
X76668333Y-96855019D01*
X77620714Y-97759780D02*
X77049285Y-97759780D01*
X77335000Y-97759780D02*
X77335000Y-96759780D01*
X77239761Y-96902638D01*
X77144523Y-96997876D01*
X77049285Y-97045495D01*
%TO.C,U2*%
X89789095Y-87717380D02*
X89789095Y-88526904D01*
X89836714Y-88622142D01*
X89884333Y-88669761D01*
X89979571Y-88717380D01*
X90170047Y-88717380D01*
X90265285Y-88669761D01*
X90312904Y-88622142D01*
X90360523Y-88526904D01*
X90360523Y-87717380D01*
X90789095Y-87812619D02*
X90836714Y-87765000D01*
X90931952Y-87717380D01*
X91170047Y-87717380D01*
X91265285Y-87765000D01*
X91312904Y-87812619D01*
X91360523Y-87907857D01*
X91360523Y-88003095D01*
X91312904Y-88145952D01*
X90741476Y-88717380D01*
X91360523Y-88717380D01*
%TO.C,J1*%
X73072666Y-96988380D02*
X73072666Y-97702666D01*
X73025047Y-97845523D01*
X72929809Y-97940761D01*
X72786952Y-97988380D01*
X72691714Y-97988380D01*
X74072666Y-97988380D02*
X73501238Y-97988380D01*
X73786952Y-97988380D02*
X73786952Y-96988380D01*
X73691714Y-97131238D01*
X73596476Y-97226476D01*
X73501238Y-97274095D01*
X67397619Y-96210380D02*
X67064285Y-95734190D01*
X66826190Y-96210380D02*
X66826190Y-95210380D01*
X67207142Y-95210380D01*
X67302380Y-95258000D01*
X67350000Y-95305619D01*
X67397619Y-95400857D01*
X67397619Y-95543714D01*
X67350000Y-95638952D01*
X67302380Y-95686571D01*
X67207142Y-95734190D01*
X66826190Y-95734190D01*
X67730952Y-95210380D02*
X68397619Y-96210380D01*
X68397619Y-95210380D02*
X67730952Y-96210380D01*
X68540476Y-96305619D02*
X69302380Y-96305619D01*
X69540476Y-96210380D02*
X69540476Y-95210380D01*
X69921428Y-95210380D01*
X70016666Y-95258000D01*
X70064285Y-95305619D01*
X70111904Y-95400857D01*
X70111904Y-95543714D01*
X70064285Y-95638952D01*
X70016666Y-95686571D01*
X69921428Y-95734190D01*
X69540476Y-95734190D01*
X70730952Y-95210380D02*
X70921428Y-95210380D01*
X71016666Y-95258000D01*
X71111904Y-95353238D01*
X71159523Y-95543714D01*
X71159523Y-95877047D01*
X71111904Y-96067523D01*
X71016666Y-96162761D01*
X70921428Y-96210380D01*
X70730952Y-96210380D01*
X70635714Y-96162761D01*
X70540476Y-96067523D01*
X70492857Y-95877047D01*
X70492857Y-95543714D01*
X70540476Y-95353238D01*
X70635714Y-95258000D01*
X70730952Y-95210380D01*
X72159523Y-96210380D02*
X71826190Y-95734190D01*
X71588095Y-96210380D02*
X71588095Y-95210380D01*
X71969047Y-95210380D01*
X72064285Y-95258000D01*
X72111904Y-95305619D01*
X72159523Y-95400857D01*
X72159523Y-95543714D01*
X72111904Y-95638952D01*
X72064285Y-95686571D01*
X71969047Y-95734190D01*
X71588095Y-95734190D01*
X72445238Y-95210380D02*
X73016666Y-95210380D01*
X72730952Y-96210380D02*
X72730952Y-95210380D01*
%TO.C,C3*%
X74509333Y-106275142D02*
X74461714Y-106322761D01*
X74318857Y-106370380D01*
X74223619Y-106370380D01*
X74080761Y-106322761D01*
X73985523Y-106227523D01*
X73937904Y-106132285D01*
X73890285Y-105941809D01*
X73890285Y-105798952D01*
X73937904Y-105608476D01*
X73985523Y-105513238D01*
X74080761Y-105418000D01*
X74223619Y-105370380D01*
X74318857Y-105370380D01*
X74461714Y-105418000D01*
X74509333Y-105465619D01*
X74842666Y-105370380D02*
X75461714Y-105370380D01*
X75128380Y-105751333D01*
X75271238Y-105751333D01*
X75366476Y-105798952D01*
X75414095Y-105846571D01*
X75461714Y-105941809D01*
X75461714Y-106179904D01*
X75414095Y-106275142D01*
X75366476Y-106322761D01*
X75271238Y-106370380D01*
X74985523Y-106370380D01*
X74890285Y-106322761D01*
X74842666Y-106275142D01*
%TO.C,C2*%
X74636333Y-87606142D02*
X74588714Y-87653761D01*
X74445857Y-87701380D01*
X74350619Y-87701380D01*
X74207761Y-87653761D01*
X74112523Y-87558523D01*
X74064904Y-87463285D01*
X74017285Y-87272809D01*
X74017285Y-87129952D01*
X74064904Y-86939476D01*
X74112523Y-86844238D01*
X74207761Y-86749000D01*
X74350619Y-86701380D01*
X74445857Y-86701380D01*
X74588714Y-86749000D01*
X74636333Y-86796619D01*
X75017285Y-86796619D02*
X75064904Y-86749000D01*
X75160142Y-86701380D01*
X75398238Y-86701380D01*
X75493476Y-86749000D01*
X75541095Y-86796619D01*
X75588714Y-86891857D01*
X75588714Y-86987095D01*
X75541095Y-87129952D01*
X74969666Y-87701380D01*
X75588714Y-87701380D01*
%TO.C,D4*%
X78382904Y-85415380D02*
X78382904Y-84415380D01*
X78621000Y-84415380D01*
X78763857Y-84463000D01*
X78859095Y-84558238D01*
X78906714Y-84653476D01*
X78954333Y-84843952D01*
X78954333Y-84986809D01*
X78906714Y-85177285D01*
X78859095Y-85272523D01*
X78763857Y-85367761D01*
X78621000Y-85415380D01*
X78382904Y-85415380D01*
X79811476Y-84748714D02*
X79811476Y-85415380D01*
X79573380Y-84367761D02*
X79335285Y-85082047D01*
X79954333Y-85082047D01*
D10*
X77626000Y-81514190D02*
X77911714Y-81514190D01*
X77768857Y-82014190D02*
X77768857Y-81514190D01*
X78030761Y-81514190D02*
X78364095Y-82014190D01*
X78364095Y-81514190D02*
X78030761Y-82014190D01*
X78435523Y-82061809D02*
X78816476Y-82061809D01*
X79173619Y-82014190D02*
X78935523Y-82014190D01*
X78935523Y-81514190D01*
X79340285Y-81752285D02*
X79506952Y-81752285D01*
X79578380Y-82014190D02*
X79340285Y-82014190D01*
X79340285Y-81514190D01*
X79578380Y-81514190D01*
X79792666Y-82014190D02*
X79792666Y-81514190D01*
X79911714Y-81514190D01*
X79983142Y-81538000D01*
X80030761Y-81585619D01*
X80054571Y-81633238D01*
X80078380Y-81728476D01*
X80078380Y-81799904D01*
X80054571Y-81895142D01*
X80030761Y-81942761D01*
X79983142Y-81990380D01*
X79911714Y-82014190D01*
X79792666Y-82014190D01*
D11*
%TO.C,R4*%
X80986333Y-86148380D02*
X80653000Y-85672190D01*
X80414904Y-86148380D02*
X80414904Y-85148380D01*
X80795857Y-85148380D01*
X80891095Y-85196000D01*
X80938714Y-85243619D01*
X80986333Y-85338857D01*
X80986333Y-85481714D01*
X80938714Y-85576952D01*
X80891095Y-85624571D01*
X80795857Y-85672190D01*
X80414904Y-85672190D01*
X81843476Y-85481714D02*
X81843476Y-86148380D01*
X81605380Y-85100761D02*
X81367285Y-85815047D01*
X81986333Y-85815047D01*
%TO.C,H2*%
X92075095Y-103505380D02*
X92075095Y-102505380D01*
X92075095Y-102981571D02*
X92646523Y-102981571D01*
X92646523Y-103505380D02*
X92646523Y-102505380D01*
X93075095Y-102600619D02*
X93122714Y-102553000D01*
X93217952Y-102505380D01*
X93456047Y-102505380D01*
X93551285Y-102553000D01*
X93598904Y-102600619D01*
X93646523Y-102695857D01*
X93646523Y-102791095D01*
X93598904Y-102933952D01*
X93027476Y-103505380D01*
X93646523Y-103505380D01*
%TO.C,D1*%
X74191904Y-101290380D02*
X74191904Y-100290380D01*
X74430000Y-100290380D01*
X74572857Y-100338000D01*
X74668095Y-100433238D01*
X74715714Y-100528476D01*
X74763333Y-100718952D01*
X74763333Y-100861809D01*
X74715714Y-101052285D01*
X74668095Y-101147523D01*
X74572857Y-101242761D01*
X74430000Y-101290380D01*
X74191904Y-101290380D01*
X75715714Y-101290380D02*
X75144285Y-101290380D01*
X75430000Y-101290380D02*
X75430000Y-100290380D01*
X75334761Y-100433238D01*
X75239523Y-100528476D01*
X75144285Y-100576095D01*
%TO.C,D3*%
X74064904Y-85415380D02*
X74064904Y-84415380D01*
X74303000Y-84415380D01*
X74445857Y-84463000D01*
X74541095Y-84558238D01*
X74588714Y-84653476D01*
X74636333Y-84843952D01*
X74636333Y-84986809D01*
X74588714Y-85177285D01*
X74541095Y-85272523D01*
X74445857Y-85367761D01*
X74303000Y-85415380D01*
X74064904Y-85415380D01*
X74969666Y-84415380D02*
X75588714Y-84415380D01*
X75255380Y-84796333D01*
X75398238Y-84796333D01*
X75493476Y-84843952D01*
X75541095Y-84891571D01*
X75588714Y-84986809D01*
X75588714Y-85224904D01*
X75541095Y-85320142D01*
X75493476Y-85367761D01*
X75398238Y-85415380D01*
X75112523Y-85415380D01*
X75017285Y-85367761D01*
X74969666Y-85320142D01*
D10*
X73977619Y-82014190D02*
X73810952Y-81776095D01*
X73691904Y-82014190D02*
X73691904Y-81514190D01*
X73882380Y-81514190D01*
X73930000Y-81538000D01*
X73953809Y-81561809D01*
X73977619Y-81609428D01*
X73977619Y-81680857D01*
X73953809Y-81728476D01*
X73930000Y-81752285D01*
X73882380Y-81776095D01*
X73691904Y-81776095D01*
X74144285Y-81514190D02*
X74477619Y-82014190D01*
X74477619Y-81514190D02*
X74144285Y-82014190D01*
X74549047Y-82061809D02*
X74930000Y-82061809D01*
X75287142Y-82014190D02*
X75049047Y-82014190D01*
X75049047Y-81514190D01*
X75453809Y-81752285D02*
X75620476Y-81752285D01*
X75691904Y-82014190D02*
X75453809Y-82014190D01*
X75453809Y-81514190D01*
X75691904Y-81514190D01*
X75906190Y-82014190D02*
X75906190Y-81514190D01*
X76025238Y-81514190D01*
X76096666Y-81538000D01*
X76144285Y-81585619D01*
X76168095Y-81633238D01*
X76191904Y-81728476D01*
X76191904Y-81799904D01*
X76168095Y-81895142D01*
X76144285Y-81942761D01*
X76096666Y-81990380D01*
X76025238Y-82014190D01*
X75906190Y-82014190D01*
D11*
%TO.C,R3*%
X79572333Y-89958380D02*
X79239000Y-89482190D01*
X79000904Y-89958380D02*
X79000904Y-88958380D01*
X79381857Y-88958380D01*
X79477095Y-89006000D01*
X79524714Y-89053619D01*
X79572333Y-89148857D01*
X79572333Y-89291714D01*
X79524714Y-89386952D01*
X79477095Y-89434571D01*
X79381857Y-89482190D01*
X79000904Y-89482190D01*
X79905666Y-88958380D02*
X80524714Y-88958380D01*
X80191380Y-89339333D01*
X80334238Y-89339333D01*
X80429476Y-89386952D01*
X80477095Y-89434571D01*
X80524714Y-89529809D01*
X80524714Y-89767904D01*
X80477095Y-89863142D01*
X80429476Y-89910761D01*
X80334238Y-89958380D01*
X80048523Y-89958380D01*
X79953285Y-89910761D01*
X79905666Y-89863142D01*
%TO.C,D2*%
X74064904Y-92019380D02*
X74064904Y-91019380D01*
X74303000Y-91019380D01*
X74445857Y-91067000D01*
X74541095Y-91162238D01*
X74588714Y-91257476D01*
X74636333Y-91447952D01*
X74636333Y-91590809D01*
X74588714Y-91781285D01*
X74541095Y-91876523D01*
X74445857Y-91971761D01*
X74303000Y-92019380D01*
X74064904Y-92019380D01*
X75017285Y-91114619D02*
X75064904Y-91067000D01*
X75160142Y-91019380D01*
X75398238Y-91019380D01*
X75493476Y-91067000D01*
X75541095Y-91114619D01*
X75588714Y-91209857D01*
X75588714Y-91305095D01*
X75541095Y-91447952D01*
X74969666Y-92019380D01*
X75588714Y-92019380D01*
D12*
%TO.C,U1*%
X87675000Y-105395000D02*
X83775000Y-105395000D01*
X87675000Y-100345000D02*
X83775000Y-100345000D01*
D13*
X89865000Y-105175000D02*
G75*
G03*
X89865000Y-105175000I-100000J0D01*
G01*
%TO.C,G\u002A\u002A\u002A*%
G36*
X89613567Y-84741740D02*
G01*
X89710113Y-84743392D01*
X89784122Y-84748442D01*
X89838027Y-84758769D01*
X89874258Y-84776252D01*
X89895246Y-84802770D01*
X89903422Y-84840203D01*
X89901218Y-84890430D01*
X89891063Y-84955329D01*
X89875390Y-85036780D01*
X89875198Y-85037767D01*
X89836779Y-85234811D01*
X89688904Y-85234811D01*
X89627358Y-85235232D01*
X89584374Y-85233831D01*
X89557711Y-85226613D01*
X89545130Y-85209579D01*
X89544390Y-85178734D01*
X89553253Y-85130080D01*
X89569477Y-85059622D01*
X89575650Y-85032734D01*
X89577789Y-85018759D01*
X89573390Y-85009811D01*
X89557717Y-85004771D01*
X89526034Y-85002517D01*
X89473606Y-85001929D01*
X89445388Y-85001909D01*
X89387817Y-85002286D01*
X89342129Y-85003305D01*
X89314119Y-85004793D01*
X89308126Y-85005980D01*
X89305535Y-85019910D01*
X89298197Y-85057403D01*
X89286769Y-85115160D01*
X89271906Y-85189883D01*
X89254262Y-85278272D01*
X89234495Y-85377028D01*
X89225925Y-85419762D01*
X89205476Y-85521816D01*
X89186882Y-85614856D01*
X89170799Y-85695583D01*
X89157883Y-85760697D01*
X89148789Y-85806900D01*
X89144171Y-85830893D01*
X89143725Y-85833544D01*
X89156452Y-85835263D01*
X89190742Y-85836623D01*
X89240759Y-85837448D01*
X89279026Y-85837615D01*
X89414328Y-85837615D01*
X89462226Y-85591013D01*
X89611228Y-85591013D01*
X89671416Y-85591894D01*
X89719956Y-85594281D01*
X89751288Y-85597790D01*
X89760240Y-85601288D01*
X89756976Y-85631848D01*
X89748156Y-85681213D01*
X89735294Y-85742983D01*
X89719902Y-85810760D01*
X89703493Y-85878143D01*
X89687581Y-85938733D01*
X89673678Y-85986132D01*
X89663298Y-86013939D01*
X89662205Y-86015916D01*
X89645487Y-86040068D01*
X89625906Y-86058989D01*
X89600100Y-86073305D01*
X89564709Y-86083642D01*
X89516374Y-86090625D01*
X89451734Y-86094879D01*
X89367429Y-86097031D01*
X89260099Y-86097707D01*
X89222940Y-86097715D01*
X89107044Y-86097105D01*
X89016411Y-86095368D01*
X88948923Y-86092400D01*
X88902463Y-86088096D01*
X88874911Y-86082352D01*
X88869950Y-86080299D01*
X88852914Y-86070822D01*
X88839453Y-86059738D01*
X88829745Y-86044582D01*
X88823970Y-86022892D01*
X88822307Y-85992204D01*
X88824935Y-85950056D01*
X88832033Y-85893985D01*
X88843781Y-85821527D01*
X88860356Y-85730220D01*
X88881939Y-85617600D01*
X88908708Y-85481204D01*
X88916306Y-85442720D01*
X88940382Y-85322448D01*
X88963684Y-85209038D01*
X88985516Y-85105666D01*
X89005181Y-85015507D01*
X89021983Y-84941736D01*
X89035224Y-84887529D01*
X89044209Y-84856060D01*
X89046035Y-84851388D01*
X89073117Y-84811290D01*
X89109963Y-84776096D01*
X89114925Y-84772613D01*
X89130507Y-84762890D01*
X89146796Y-84755445D01*
X89167484Y-84749975D01*
X89196266Y-84746175D01*
X89236835Y-84743742D01*
X89292885Y-84742373D01*
X89368109Y-84741763D01*
X89466200Y-84741609D01*
X89492055Y-84741607D01*
X89613567Y-84741740D01*
G37*
G36*
X81882780Y-82908736D02*
G01*
X82051454Y-82909212D01*
X82139545Y-82909549D01*
X82340963Y-82910405D01*
X82516874Y-82911215D01*
X82669169Y-82912032D01*
X82799743Y-82912908D01*
X82910485Y-82913897D01*
X83003291Y-82915050D01*
X83080051Y-82916420D01*
X83142658Y-82918059D01*
X83193005Y-82920021D01*
X83232985Y-82922356D01*
X83264489Y-82925119D01*
X83289410Y-82928362D01*
X83309641Y-82932136D01*
X83327074Y-82936495D01*
X83343602Y-82941491D01*
X83348579Y-82943094D01*
X83435767Y-82972103D01*
X83503033Y-82997038D01*
X83556803Y-83021343D01*
X83603504Y-83048460D01*
X83649561Y-83081833D01*
X83701402Y-83124906D01*
X83723032Y-83143724D01*
X83829880Y-83252031D01*
X83917167Y-83373816D01*
X83987419Y-83513058D01*
X84028452Y-83625048D01*
X84043273Y-83673212D01*
X84053833Y-83714301D01*
X84060848Y-83754673D01*
X84065035Y-83800683D01*
X84067111Y-83858689D01*
X84067792Y-83935049D01*
X84067835Y-83974401D01*
X84066228Y-84088871D01*
X84060521Y-84182886D01*
X84049381Y-84263249D01*
X84031479Y-84336765D01*
X84005483Y-84410238D01*
X83970061Y-84490472D01*
X83964646Y-84501855D01*
X83908550Y-84598095D01*
X83834330Y-84695069D01*
X83749565Y-84784025D01*
X83661836Y-84856211D01*
X83651713Y-84863167D01*
X83576188Y-84907484D01*
X83491227Y-84947017D01*
X83406465Y-84977864D01*
X83331535Y-84996122D01*
X83319175Y-84997850D01*
X83253659Y-85005609D01*
X83281097Y-85041434D01*
X83297812Y-85063918D01*
X83327369Y-85104339D01*
X83366628Y-85158377D01*
X83412448Y-85221712D01*
X83456466Y-85282761D01*
X83507866Y-85354134D01*
X83570806Y-85441482D01*
X83640786Y-85538562D01*
X83713306Y-85639133D01*
X83783867Y-85736954D01*
X83818991Y-85785632D01*
X83875865Y-85864712D01*
X83927078Y-85936433D01*
X83970542Y-85997832D01*
X84004172Y-86045944D01*
X84025881Y-86077807D01*
X84033584Y-86090459D01*
X84020440Y-86092310D01*
X83983231Y-86093973D01*
X83925292Y-86095390D01*
X83849957Y-86096504D01*
X83760561Y-86097258D01*
X83660440Y-86097595D01*
X83619156Y-86097600D01*
X83204728Y-86097282D01*
X83096285Y-85936624D01*
X83005946Y-85802672D01*
X82913843Y-85665891D01*
X82821238Y-85528174D01*
X82729397Y-85391412D01*
X82639585Y-85257499D01*
X82553065Y-85128327D01*
X82471102Y-85005788D01*
X82394961Y-84891776D01*
X82325906Y-84788182D01*
X82265201Y-84696900D01*
X82214112Y-84619821D01*
X82173901Y-84558839D01*
X82145834Y-84515846D01*
X82131176Y-84492734D01*
X82129269Y-84489222D01*
X82142386Y-84487152D01*
X82179402Y-84485285D01*
X82236816Y-84483693D01*
X82311128Y-84482450D01*
X82398837Y-84481630D01*
X82496442Y-84481307D01*
X82505348Y-84481305D01*
X82635604Y-84480866D01*
X82741970Y-84479293D01*
X82827946Y-84476204D01*
X82897033Y-84471212D01*
X82952732Y-84463936D01*
X82998542Y-84453990D01*
X83037964Y-84440991D01*
X83074498Y-84424555D01*
X83088277Y-84417368D01*
X83166806Y-84361203D01*
X83224835Y-84287863D01*
X83262707Y-84196686D01*
X83280765Y-84087009D01*
X83282487Y-84042283D01*
X83270724Y-83937280D01*
X83234409Y-83842039D01*
X83175073Y-83759734D01*
X83124317Y-83714248D01*
X83095671Y-83692392D01*
X83070679Y-83673874D01*
X83046898Y-83658395D01*
X83021882Y-83645660D01*
X82993189Y-83635373D01*
X82958374Y-83627236D01*
X82914994Y-83620953D01*
X82860604Y-83616227D01*
X82792760Y-83612763D01*
X82709019Y-83610264D01*
X82606936Y-83608433D01*
X82484068Y-83606974D01*
X82337970Y-83605589D01*
X82219652Y-83604498D01*
X81494878Y-83597648D01*
X81278417Y-83284339D01*
X81220930Y-83201386D01*
X81167647Y-83124982D01*
X81120800Y-83058290D01*
X81082621Y-83004471D01*
X81055342Y-82966688D01*
X81041196Y-82948105D01*
X81040758Y-82947607D01*
X81024033Y-82925387D01*
X81019561Y-82914532D01*
X81032922Y-82913100D01*
X81071655Y-82911845D01*
X81133731Y-82910774D01*
X81217120Y-82909897D01*
X81319796Y-82909223D01*
X81439728Y-82908761D01*
X81574888Y-82908520D01*
X81723248Y-82908509D01*
X81882780Y-82908736D01*
G37*
G36*
X86462837Y-85730220D02*
G01*
X86484420Y-85617600D01*
X86511189Y-85481204D01*
X86518788Y-85442720D01*
X86542863Y-85322448D01*
X86566165Y-85209038D01*
X86587997Y-85105666D01*
X86607662Y-85015507D01*
X86624464Y-84941736D01*
X86637705Y-84887529D01*
X86646690Y-84856060D01*
X86648516Y-84851388D01*
X86675598Y-84811290D01*
X86712444Y-84776096D01*
X86717407Y-84772613D01*
X86732900Y-84762939D01*
X86749093Y-84755518D01*
X86769654Y-84750054D01*
X86798248Y-84746246D01*
X86838545Y-84743796D01*
X86894209Y-84742406D01*
X86968909Y-84741777D01*
X87066312Y-84741611D01*
X87098265Y-84741607D01*
X87215066Y-84742009D01*
X87307489Y-84743581D01*
X87378549Y-84746868D01*
X87431261Y-84752417D01*
X87468641Y-84760776D01*
X87493702Y-84772490D01*
X87509462Y-84788106D01*
X87518933Y-84808171D01*
X87521848Y-84818399D01*
X87521217Y-84839789D01*
X87515476Y-84884487D01*
X87505311Y-84949021D01*
X87491410Y-85029919D01*
X87474459Y-85123710D01*
X87455145Y-85226922D01*
X87434156Y-85336083D01*
X87412176Y-85447722D01*
X87389895Y-85558365D01*
X87367998Y-85664542D01*
X87347172Y-85762780D01*
X87328104Y-85849609D01*
X87311480Y-85921555D01*
X87297989Y-85975148D01*
X87288316Y-86006914D01*
X87285536Y-86012946D01*
X87259747Y-86041786D01*
X87224375Y-86069353D01*
X87221540Y-86071120D01*
X87205944Y-86079494D01*
X87187683Y-86085915D01*
X87163124Y-86090636D01*
X87128633Y-86093912D01*
X87080575Y-86095998D01*
X87015317Y-86097146D01*
X86929226Y-86097612D01*
X86842107Y-86097664D01*
X86723818Y-86097121D01*
X86630759Y-86095543D01*
X86560777Y-86092828D01*
X86511717Y-86088876D01*
X86481426Y-86083585D01*
X86472431Y-86080299D01*
X86455395Y-86070822D01*
X86441934Y-86059738D01*
X86432226Y-86044582D01*
X86426451Y-86022892D01*
X86424788Y-85992204D01*
X86427416Y-85950056D01*
X86434514Y-85893985D01*
X86444314Y-85833544D01*
X86746206Y-85833544D01*
X86758962Y-85835215D01*
X86793458Y-85836554D01*
X86844033Y-85837400D01*
X86890057Y-85837615D01*
X86949111Y-85837254D01*
X86996417Y-85836278D01*
X87026313Y-85834846D01*
X87033908Y-85833544D01*
X87036500Y-85819614D01*
X87043837Y-85782121D01*
X87055265Y-85724364D01*
X87070129Y-85649641D01*
X87087772Y-85561252D01*
X87107539Y-85462496D01*
X87116109Y-85419762D01*
X87136558Y-85317708D01*
X87155152Y-85224668D01*
X87171235Y-85143941D01*
X87184151Y-85078827D01*
X87193245Y-85032624D01*
X87197863Y-85008632D01*
X87198309Y-85005980D01*
X87185553Y-85004309D01*
X87151057Y-85002970D01*
X87100482Y-85002124D01*
X87054458Y-85001909D01*
X86995404Y-85002270D01*
X86948098Y-85003246D01*
X86918202Y-85004678D01*
X86910607Y-85005980D01*
X86908016Y-85019910D01*
X86900678Y-85057403D01*
X86889250Y-85115160D01*
X86874387Y-85189883D01*
X86856743Y-85278272D01*
X86836976Y-85377028D01*
X86828406Y-85419762D01*
X86807957Y-85521816D01*
X86789363Y-85614856D01*
X86773280Y-85695583D01*
X86760364Y-85760697D01*
X86751270Y-85806900D01*
X86746653Y-85830893D01*
X86746206Y-85833544D01*
X86444314Y-85833544D01*
X86446262Y-85821527D01*
X86462837Y-85730220D01*
G37*
G36*
X90689915Y-84742349D02*
G01*
X90785226Y-84744545D01*
X90855978Y-84748146D01*
X90901113Y-84753106D01*
X90916318Y-84757084D01*
X90944801Y-84774738D01*
X90962778Y-84799562D01*
X90970787Y-84835708D01*
X90969366Y-84887329D01*
X90959054Y-84958578D01*
X90949185Y-85010659D01*
X90916770Y-85173160D01*
X90770053Y-85177049D01*
X90710432Y-85177696D01*
X90662534Y-85176442D01*
X90631939Y-85173545D01*
X90623671Y-85170199D01*
X90626926Y-85149644D01*
X90635552Y-85107053D01*
X90648586Y-85047049D01*
X90657958Y-85005334D01*
X90660100Y-84991260D01*
X90655616Y-84982292D01*
X90639735Y-84977280D01*
X90607685Y-84975074D01*
X90554694Y-84974523D01*
X90530065Y-84974509D01*
X90395171Y-84974509D01*
X90379102Y-85061714D01*
X90370775Y-85108961D01*
X90364968Y-85145828D01*
X90363034Y-85162992D01*
X90373967Y-85174639D01*
X90404344Y-85198439D01*
X90450537Y-85231768D01*
X90508915Y-85272003D01*
X90571961Y-85313976D01*
X90654809Y-85368705D01*
X90717478Y-85411429D01*
X90763021Y-85444668D01*
X90794493Y-85470940D01*
X90814950Y-85492764D01*
X90827445Y-85512660D01*
X90834163Y-85530180D01*
X90834444Y-85553331D01*
X90829483Y-85597328D01*
X90820404Y-85656365D01*
X90808329Y-85724636D01*
X90794382Y-85796338D01*
X90779685Y-85865664D01*
X90765362Y-85926809D01*
X90752537Y-85973967D01*
X90743415Y-85999217D01*
X90720465Y-86030688D01*
X90686246Y-86061822D01*
X90679536Y-86066581D01*
X90663878Y-86076480D01*
X90647615Y-86084040D01*
X90627012Y-86089576D01*
X90598338Y-86093403D01*
X90557859Y-86095835D01*
X90501844Y-86097188D01*
X90426559Y-86097777D01*
X90328271Y-86097916D01*
X90308055Y-86097917D01*
X90205037Y-86097800D01*
X90125793Y-86097256D01*
X90066695Y-86096002D01*
X90024117Y-86093752D01*
X89994432Y-86090220D01*
X89974015Y-86085122D01*
X89959238Y-86078173D01*
X89947029Y-86069523D01*
X89926440Y-86047040D01*
X89914527Y-86016205D01*
X89911164Y-85973014D01*
X89916228Y-85913467D01*
X89929593Y-85833562D01*
X89938331Y-85789665D01*
X89949919Y-85732842D01*
X89959081Y-85686957D01*
X89964627Y-85658019D01*
X89965731Y-85651156D01*
X89978504Y-85648998D01*
X90013115Y-85647258D01*
X90064002Y-85646135D01*
X90114734Y-85645814D01*
X90263737Y-85645814D01*
X90245366Y-85731439D01*
X90232385Y-85792173D01*
X90227541Y-85831055D01*
X90234820Y-85852935D01*
X90258211Y-85862661D01*
X90301701Y-85865081D01*
X90355213Y-85865016D01*
X90484393Y-85865016D01*
X90500210Y-85786240D01*
X90509893Y-85738201D01*
X90518102Y-85697798D01*
X90521753Y-85680064D01*
X90520027Y-85667912D01*
X90508491Y-85652071D01*
X90484515Y-85630421D01*
X90445468Y-85600842D01*
X90388721Y-85561216D01*
X90311643Y-85509424D01*
X90302119Y-85503097D01*
X90216095Y-85445082D01*
X90151320Y-85399131D01*
X90105442Y-85363397D01*
X90076106Y-85336030D01*
X90060959Y-85315180D01*
X90059892Y-85312811D01*
X90053836Y-85292730D01*
X90051808Y-85267491D01*
X90054251Y-85232210D01*
X90061606Y-85182004D01*
X90074315Y-85111990D01*
X90081347Y-85075543D01*
X90099847Y-84982134D01*
X90117053Y-84907999D01*
X90136229Y-84850912D01*
X90160642Y-84808646D01*
X90193558Y-84778974D01*
X90238242Y-84759671D01*
X90297960Y-84748508D01*
X90375978Y-84743259D01*
X90475563Y-84741697D01*
X90571103Y-84741607D01*
X90689915Y-84742349D01*
G37*
G36*
X88750298Y-84742530D02*
G01*
X88796435Y-84745540D01*
X88821492Y-84750998D01*
X88828626Y-84758732D01*
X88826012Y-84775197D01*
X88818512Y-84815873D01*
X88806643Y-84878106D01*
X88790923Y-84959244D01*
X88771868Y-85056634D01*
X88749995Y-85167624D01*
X88725821Y-85289562D01*
X88699864Y-85419796D01*
X88696447Y-85436887D01*
X88564264Y-86097917D01*
X88415591Y-86097917D01*
X88345242Y-86096994D01*
X88299105Y-86093984D01*
X88274048Y-86088526D01*
X88266914Y-86080792D01*
X88269528Y-86064327D01*
X88277028Y-86023651D01*
X88288897Y-85961418D01*
X88304617Y-85880280D01*
X88323672Y-85782890D01*
X88345545Y-85671900D01*
X88369719Y-85549962D01*
X88395676Y-85419728D01*
X88399093Y-85402637D01*
X88531276Y-84741607D01*
X88679949Y-84741607D01*
X88750298Y-84742530D01*
G37*
G36*
X88838314Y-84262276D02*
G01*
X88882570Y-84263411D01*
X88908337Y-84266431D01*
X88920070Y-84272257D01*
X88922224Y-84281811D01*
X88920004Y-84292928D01*
X88914189Y-84319744D01*
X88904934Y-84365552D01*
X88893828Y-84422409D01*
X88888462Y-84450479D01*
X88864410Y-84577205D01*
X88708030Y-84577205D01*
X88640829Y-84577032D01*
X88596573Y-84575897D01*
X88570806Y-84572878D01*
X88559073Y-84567052D01*
X88556919Y-84557497D01*
X88559139Y-84546380D01*
X88564954Y-84519564D01*
X88574209Y-84473757D01*
X88585315Y-84416900D01*
X88590681Y-84388829D01*
X88614733Y-84262103D01*
X88771113Y-84262103D01*
X88838314Y-84262276D01*
G37*
G36*
X85839615Y-82347093D02*
G01*
X85849592Y-82468423D01*
X85859137Y-82582135D01*
X85867975Y-82685121D01*
X85875832Y-82774273D01*
X85882431Y-82846483D01*
X85887498Y-82898644D01*
X85890756Y-82927646D01*
X85891399Y-82931657D01*
X85896016Y-82933536D01*
X85906726Y-82921014D01*
X85924254Y-82892715D01*
X85949321Y-82847265D01*
X85982650Y-82783289D01*
X86024965Y-82699412D01*
X86076987Y-82594259D01*
X86139441Y-82466455D01*
X86181300Y-82380228D01*
X86464330Y-81796084D01*
X86612118Y-81796084D01*
X86672039Y-81796971D01*
X86720290Y-81799376D01*
X86751285Y-81802908D01*
X86759909Y-81806359D01*
X86757285Y-81821108D01*
X86749688Y-81860650D01*
X86737526Y-81922912D01*
X86721212Y-82005820D01*
X86701155Y-82107301D01*
X86677766Y-82225282D01*
X86651456Y-82357690D01*
X86622635Y-82502452D01*
X86591713Y-82657494D01*
X86559102Y-82820744D01*
X86552369Y-82854417D01*
X86344826Y-83892200D01*
X86196163Y-83892200D01*
X86126603Y-83891343D01*
X86080945Y-83888498D01*
X86055737Y-83883257D01*
X86047528Y-83875210D01*
X86047500Y-83874590D01*
X86050157Y-83856572D01*
X86057654Y-83815228D01*
X86069285Y-83754066D01*
X86084342Y-83676592D01*
X86102119Y-83586313D01*
X86121908Y-83486736D01*
X86143002Y-83381369D01*
X86164694Y-83273718D01*
X86186275Y-83167290D01*
X86207040Y-83065592D01*
X86226281Y-82972131D01*
X86243291Y-82890414D01*
X86257362Y-82823948D01*
X86267787Y-82776240D01*
X86273859Y-82750797D01*
X86274646Y-82748241D01*
X86279232Y-82729867D01*
X86275960Y-82728607D01*
X86268524Y-82742424D01*
X86251117Y-82778464D01*
X86225020Y-82833967D01*
X86191513Y-82906171D01*
X86151875Y-82992317D01*
X86107387Y-83089642D01*
X86059329Y-83195387D01*
X86050461Y-83214961D01*
X85833770Y-83693548D01*
X85748834Y-83697627D01*
X85663897Y-83701706D01*
X85662718Y-83629127D01*
X85661322Y-83580691D01*
X85658553Y-83515395D01*
X85654651Y-83436989D01*
X85649859Y-83349220D01*
X85644416Y-83255838D01*
X85638562Y-83160592D01*
X85632540Y-83067231D01*
X85626588Y-82979503D01*
X85620948Y-82901157D01*
X85615861Y-82835942D01*
X85611567Y-82787608D01*
X85608307Y-82759902D01*
X85606611Y-82755091D01*
X85602480Y-82772611D01*
X85593709Y-82814083D01*
X85580891Y-82876566D01*
X85564621Y-82957115D01*
X85545490Y-83052789D01*
X85524092Y-83160643D01*
X85501019Y-83277735D01*
X85490672Y-83330496D01*
X85382005Y-83885350D01*
X85228652Y-83889221D01*
X85075299Y-83893093D01*
X85084461Y-83848121D01*
X85088591Y-83827617D01*
X85097654Y-83782456D01*
X85111208Y-83714850D01*
X85128809Y-83627011D01*
X85150014Y-83521149D01*
X85174381Y-83399475D01*
X85201468Y-83264202D01*
X85230830Y-83117539D01*
X85262025Y-82961699D01*
X85293780Y-82803041D01*
X85493936Y-81802934D01*
X85644319Y-81799089D01*
X85794703Y-81795245D01*
X85839615Y-82347093D01*
G37*
G36*
X90400284Y-81932617D02*
G01*
X90372980Y-82069530D01*
X90098054Y-82073233D01*
X89823127Y-82076936D01*
X89764936Y-82364638D01*
X89747683Y-82450563D01*
X89732400Y-82527866D01*
X89719898Y-82592353D01*
X89710986Y-82639827D01*
X89706475Y-82666093D01*
X89706087Y-82669465D01*
X89712512Y-82676060D01*
X89734288Y-82680856D01*
X89774297Y-82684065D01*
X89835419Y-82685901D01*
X89920535Y-82686576D01*
X89938331Y-82686591D01*
X90014761Y-82686922D01*
X90080654Y-82687840D01*
X90131562Y-82689231D01*
X90163035Y-82690981D01*
X90171233Y-82692545D01*
X90168664Y-82707886D01*
X90161980Y-82742482D01*
X90152715Y-82788776D01*
X90142404Y-82839210D01*
X90132579Y-82886227D01*
X90124776Y-82922271D01*
X90123144Y-82929445D01*
X90119660Y-82940515D01*
X90112500Y-82948598D01*
X90097733Y-82954250D01*
X90071427Y-82958025D01*
X90029654Y-82960479D01*
X89968481Y-82962165D01*
X89883979Y-82963640D01*
X89880546Y-82963695D01*
X89645020Y-82967443D01*
X89588728Y-83248295D01*
X89571261Y-83335411D01*
X89555101Y-83415945D01*
X89541215Y-83485088D01*
X89530568Y-83538032D01*
X89524126Y-83569968D01*
X89523374Y-83573672D01*
X89514313Y-83618198D01*
X90071310Y-83618198D01*
X90043988Y-83755199D01*
X90016667Y-83892200D01*
X89144410Y-83892200D01*
X89153483Y-83847675D01*
X89157598Y-83827244D01*
X89166647Y-83782157D01*
X89180188Y-83714621D01*
X89197777Y-83626848D01*
X89218972Y-83521048D01*
X89243331Y-83399430D01*
X89270410Y-83264204D01*
X89299767Y-83117580D01*
X89330959Y-82961768D01*
X89362731Y-82803041D01*
X89562907Y-81802934D01*
X89995247Y-81799319D01*
X90427588Y-81795705D01*
X90400284Y-81932617D01*
G37*
G36*
X84229719Y-85730220D02*
G01*
X84251302Y-85617600D01*
X84278071Y-85481204D01*
X84285670Y-85442720D01*
X84309746Y-85322448D01*
X84333048Y-85209038D01*
X84354880Y-85105666D01*
X84374545Y-85015507D01*
X84391346Y-84941736D01*
X84404587Y-84887529D01*
X84413572Y-84856060D01*
X84415398Y-84851388D01*
X84442480Y-84811290D01*
X84479327Y-84776096D01*
X84484289Y-84772613D01*
X84499782Y-84762939D01*
X84515976Y-84755518D01*
X84536536Y-84750054D01*
X84565131Y-84746246D01*
X84605427Y-84743796D01*
X84661091Y-84742406D01*
X84735791Y-84741777D01*
X84833194Y-84741611D01*
X84865147Y-84741607D01*
X84981948Y-84742009D01*
X85074371Y-84743581D01*
X85145431Y-84746868D01*
X85198144Y-84752417D01*
X85235523Y-84760776D01*
X85260585Y-84772490D01*
X85276344Y-84788106D01*
X85285816Y-84808171D01*
X85288730Y-84818399D01*
X85288099Y-84839789D01*
X85282358Y-84884487D01*
X85272194Y-84949021D01*
X85258292Y-85029919D01*
X85241342Y-85123710D01*
X85222028Y-85226922D01*
X85201038Y-85336083D01*
X85179059Y-85447722D01*
X85156777Y-85558365D01*
X85134880Y-85664542D01*
X85114054Y-85762780D01*
X85094986Y-85849609D01*
X85078363Y-85921555D01*
X85064871Y-85975148D01*
X85055198Y-86006914D01*
X85052418Y-86012946D01*
X85026629Y-86041786D01*
X84991257Y-86069353D01*
X84988423Y-86071120D01*
X84972826Y-86079494D01*
X84954566Y-86085915D01*
X84930006Y-86090636D01*
X84895515Y-86093912D01*
X84847457Y-86095998D01*
X84782200Y-86097146D01*
X84696109Y-86097612D01*
X84608989Y-86097664D01*
X84490700Y-86097121D01*
X84397642Y-86095543D01*
X84327660Y-86092828D01*
X84278600Y-86088876D01*
X84248308Y-86083585D01*
X84239314Y-86080299D01*
X84222278Y-86070822D01*
X84208816Y-86059738D01*
X84199109Y-86044582D01*
X84193334Y-86022892D01*
X84191671Y-85992204D01*
X84194299Y-85950056D01*
X84201397Y-85893985D01*
X84211196Y-85833544D01*
X84513088Y-85833544D01*
X84525845Y-85835215D01*
X84560341Y-85836554D01*
X84610916Y-85837400D01*
X84656939Y-85837615D01*
X84715994Y-85837254D01*
X84763299Y-85836278D01*
X84793195Y-85834846D01*
X84800790Y-85833544D01*
X84803382Y-85819614D01*
X84810719Y-85782121D01*
X84822148Y-85724364D01*
X84837011Y-85649641D01*
X84854654Y-85561252D01*
X84874422Y-85462496D01*
X84882991Y-85419762D01*
X84903441Y-85317708D01*
X84922034Y-85224668D01*
X84938117Y-85143941D01*
X84951033Y-85078827D01*
X84960128Y-85032624D01*
X84964745Y-85008632D01*
X84965192Y-85005980D01*
X84952435Y-85004309D01*
X84917939Y-85002970D01*
X84867364Y-85002124D01*
X84821341Y-85001909D01*
X84762286Y-85002270D01*
X84714981Y-85003246D01*
X84685085Y-85004678D01*
X84677490Y-85005980D01*
X84674898Y-85019910D01*
X84667561Y-85057403D01*
X84656132Y-85115160D01*
X84641269Y-85189883D01*
X84623626Y-85278272D01*
X84603858Y-85377028D01*
X84595289Y-85419762D01*
X84574839Y-85521816D01*
X84556246Y-85614856D01*
X84540163Y-85695583D01*
X84527247Y-85760697D01*
X84518152Y-85806900D01*
X84513535Y-85830893D01*
X84513088Y-85833544D01*
X84211196Y-85833544D01*
X84213144Y-85821527D01*
X84229719Y-85730220D01*
G37*
G36*
X85359729Y-85626223D02*
G01*
X85385188Y-85499039D01*
X85412385Y-85363077D01*
X85429127Y-85279336D01*
X85577687Y-84536105D01*
X84447405Y-84536105D01*
X84363796Y-84407040D01*
X84330360Y-84354759D01*
X84303286Y-84311160D01*
X84285595Y-84281189D01*
X84280186Y-84270038D01*
X84293493Y-84268623D01*
X84331843Y-84267287D01*
X84392876Y-84266056D01*
X84474234Y-84264950D01*
X84573561Y-84263993D01*
X84688497Y-84263208D01*
X84816685Y-84262616D01*
X84955766Y-84262240D01*
X85103383Y-84262103D01*
X85109043Y-84262103D01*
X85256933Y-84262268D01*
X85396377Y-84262743D01*
X85525015Y-84263500D01*
X85640491Y-84264508D01*
X85740446Y-84265740D01*
X85822521Y-84267165D01*
X85884358Y-84268754D01*
X85923600Y-84270478D01*
X85937889Y-84272308D01*
X85937908Y-84272378D01*
X85935344Y-84288471D01*
X85928209Y-84327028D01*
X85917346Y-84383652D01*
X85903599Y-84453949D01*
X85887927Y-84532933D01*
X85872470Y-84611959D01*
X85859542Y-84681243D01*
X85849887Y-84736517D01*
X85844252Y-84773516D01*
X85843381Y-84787971D01*
X85843393Y-84787983D01*
X85858263Y-84787854D01*
X85894619Y-84783937D01*
X85946912Y-84776913D01*
X86006400Y-84767968D01*
X86131588Y-84751016D01*
X86231324Y-84743543D01*
X86305525Y-84745553D01*
X86354105Y-84757049D01*
X86354182Y-84757084D01*
X86372020Y-84765878D01*
X86386255Y-84776029D01*
X86396712Y-84789958D01*
X86403220Y-84810087D01*
X86405604Y-84838838D01*
X86403693Y-84878632D01*
X86397314Y-84931890D01*
X86386293Y-85001034D01*
X86370457Y-85088486D01*
X86349633Y-85196667D01*
X86323649Y-85327998D01*
X86307694Y-85407980D01*
X86280185Y-85545482D01*
X86257323Y-85658708D01*
X86238442Y-85750261D01*
X86222876Y-85822745D01*
X86209958Y-85878765D01*
X86199022Y-85920923D01*
X86189401Y-85951823D01*
X86180428Y-85974069D01*
X86171437Y-85990265D01*
X86161762Y-86003014D01*
X86152904Y-86012667D01*
X86127705Y-86036359D01*
X86100218Y-86055271D01*
X86067159Y-86069927D01*
X86025243Y-86080853D01*
X85971188Y-86088571D01*
X85901709Y-86093608D01*
X85813522Y-86096488D01*
X85703345Y-86097734D01*
X85619222Y-86097917D01*
X85264417Y-86097917D01*
X85272492Y-86060242D01*
X85276640Y-86040004D01*
X85285635Y-85995480D01*
X85298960Y-85929256D01*
X85316096Y-85843916D01*
X85317360Y-85837615D01*
X85627053Y-85837615D01*
X85740612Y-85837615D01*
X85799369Y-85836627D01*
X85838249Y-85832628D01*
X85864735Y-85824068D01*
X85886313Y-85809395D01*
X85889339Y-85806790D01*
X85900204Y-85795467D01*
X85910061Y-85779822D01*
X85919768Y-85756694D01*
X85930181Y-85722922D01*
X85942158Y-85675347D01*
X85956557Y-85610807D01*
X85974234Y-85526142D01*
X85996047Y-85418191D01*
X85999704Y-85399917D01*
X86019236Y-85301863D01*
X86036880Y-85212560D01*
X86051950Y-85135539D01*
X86063761Y-85074332D01*
X86071625Y-85032471D01*
X86074856Y-85013487D01*
X86074901Y-85012889D01*
X86062156Y-85008335D01*
X86027739Y-85004703D01*
X85977372Y-85002440D01*
X85934250Y-85001909D01*
X85793600Y-85001909D01*
X85710326Y-85419762D01*
X85627053Y-85837615D01*
X85317360Y-85837615D01*
X85336525Y-85742043D01*
X85359729Y-85626223D01*
G37*
G36*
X88158848Y-84262945D02*
G01*
X88208883Y-84265232D01*
X88241918Y-84268608D01*
X88252647Y-84272378D01*
X88249482Y-84290764D01*
X88241578Y-84329613D01*
X88230303Y-84382674D01*
X88217028Y-84443701D01*
X88203123Y-84506445D01*
X88189957Y-84564656D01*
X88178902Y-84612088D01*
X88172293Y-84638856D01*
X88159946Y-84689947D01*
X88158722Y-84720469D01*
X88172841Y-84735722D01*
X88206524Y-84741002D01*
X88254141Y-84741607D01*
X88304598Y-84742342D01*
X88332946Y-84745485D01*
X88344457Y-84752441D01*
X88344403Y-84764613D01*
X88344135Y-84765582D01*
X88337975Y-84791575D01*
X88329085Y-84834086D01*
X88321718Y-84871758D01*
X88310428Y-84931120D01*
X88300578Y-84968886D01*
X88287330Y-84990131D01*
X88265842Y-84999928D01*
X88231275Y-85003352D01*
X88194857Y-85004748D01*
X88096872Y-85008759D01*
X88018155Y-85399212D01*
X87997988Y-85499940D01*
X87979685Y-85592681D01*
X87963938Y-85673824D01*
X87951439Y-85739757D01*
X87942880Y-85786871D01*
X87938952Y-85811556D01*
X87938777Y-85813640D01*
X87942032Y-85826348D01*
X87956416Y-85833636D01*
X87987545Y-85836918D01*
X88034016Y-85837615D01*
X88089721Y-85839442D01*
X88120824Y-85845229D01*
X88129927Y-85854740D01*
X88127391Y-85875434D01*
X88120634Y-85915463D01*
X88110949Y-85967322D01*
X88107502Y-85984891D01*
X88085067Y-86097917D01*
X87884865Y-86096990D01*
X87811229Y-86095698D01*
X87745467Y-86092779D01*
X87693377Y-86088620D01*
X87660757Y-86083610D01*
X87654813Y-86081632D01*
X87636948Y-86071972D01*
X87623061Y-86060402D01*
X87613315Y-86044316D01*
X87607871Y-86021108D01*
X87606891Y-85988174D01*
X87610537Y-85942908D01*
X87618970Y-85882704D01*
X87632353Y-85804957D01*
X87650848Y-85707061D01*
X87674615Y-85586412D01*
X87690499Y-85506883D01*
X87712781Y-85395291D01*
X87733258Y-85292203D01*
X87751326Y-85200698D01*
X87766381Y-85123858D01*
X87777821Y-85064760D01*
X87785041Y-85026484D01*
X87787442Y-85012184D01*
X87775082Y-85006383D01*
X87743435Y-85002657D01*
X87717201Y-85001909D01*
X87646988Y-85001909D01*
X87655239Y-84960652D01*
X87662134Y-84925103D01*
X87671655Y-84874711D01*
X87679870Y-84830501D01*
X87696249Y-84741607D01*
X87768971Y-84741607D01*
X87812081Y-84740218D01*
X87835304Y-84734135D01*
X87846092Y-84720488D01*
X87848955Y-84710781D01*
X87855433Y-84681593D01*
X87865954Y-84632391D01*
X87879104Y-84569978D01*
X87893468Y-84501162D01*
X87907629Y-84432744D01*
X87920174Y-84371532D01*
X87929687Y-84324328D01*
X87934427Y-84299778D01*
X87941225Y-84262103D01*
X88097221Y-84262103D01*
X88158848Y-84262945D01*
G37*
G36*
X87928080Y-83476104D02*
G01*
X87951180Y-83358100D01*
X87977060Y-83226719D01*
X88005285Y-83084206D01*
X88035415Y-82932808D01*
X88054553Y-82837004D01*
X88095725Y-82632265D01*
X88132086Y-82453746D01*
X88163797Y-82300721D01*
X88191017Y-82172465D01*
X88213904Y-82068250D01*
X88232618Y-81987352D01*
X88247316Y-81929044D01*
X88258159Y-81892600D01*
X88264454Y-81878284D01*
X88281849Y-81856054D01*
X88300242Y-81838235D01*
X88322723Y-81824343D01*
X88352385Y-81813894D01*
X88392320Y-81806402D01*
X88445618Y-81801384D01*
X88515372Y-81798355D01*
X88604673Y-81796831D01*
X88716613Y-81796326D01*
X88787522Y-81796307D01*
X88911123Y-81796532D01*
X89010324Y-81797368D01*
X89088123Y-81799244D01*
X89147520Y-81802585D01*
X89191513Y-81807819D01*
X89223101Y-81815372D01*
X89245285Y-81825671D01*
X89261062Y-81839144D01*
X89273431Y-81856216D01*
X89279313Y-81866301D01*
X89282887Y-81874749D01*
X89285067Y-81886542D01*
X89285523Y-81903594D01*
X89283926Y-81927818D01*
X89279946Y-81961129D01*
X89273255Y-82005439D01*
X89263523Y-82062663D01*
X89250420Y-82134714D01*
X89233616Y-82223508D01*
X89212784Y-82330956D01*
X89187593Y-82458974D01*
X89157713Y-82609474D01*
X89122816Y-82784371D01*
X89111934Y-82838810D01*
X89070574Y-83044617D01*
X89034026Y-83224224D01*
X89002128Y-83378376D01*
X88974717Y-83507817D01*
X88951631Y-83613293D01*
X88932705Y-83695548D01*
X88917778Y-83755328D01*
X88906687Y-83793375D01*
X88899607Y-83809999D01*
X88882450Y-83831972D01*
X88864372Y-83849639D01*
X88842326Y-83863469D01*
X88813268Y-83873930D01*
X88774154Y-83881490D01*
X88721936Y-83886618D01*
X88653572Y-83889782D01*
X88566015Y-83891450D01*
X88456221Y-83892091D01*
X88365190Y-83892179D01*
X87949708Y-83892200D01*
X87909661Y-83852154D01*
X87884184Y-83820855D01*
X87870409Y-83792601D01*
X87869615Y-83786790D01*
X87872245Y-83769387D01*
X87879844Y-83727370D01*
X87891975Y-83662986D01*
X87900441Y-83618891D01*
X88212664Y-83618891D01*
X88427519Y-83615119D01*
X88642373Y-83611348D01*
X88787734Y-82885242D01*
X88815484Y-82746642D01*
X88841833Y-82615065D01*
X88866250Y-82493161D01*
X88888204Y-82383583D01*
X88907164Y-82288984D01*
X88922597Y-82212014D01*
X88933972Y-82155326D01*
X88940759Y-82121571D01*
X88942236Y-82114265D01*
X88951377Y-82069393D01*
X88736522Y-82073164D01*
X88521667Y-82076936D01*
X88376306Y-82803041D01*
X88348557Y-82941641D01*
X88322208Y-83073219D01*
X88297790Y-83195123D01*
X88275836Y-83304700D01*
X88256877Y-83399300D01*
X88241444Y-83476270D01*
X88230068Y-83532958D01*
X88223282Y-83566712D01*
X88221805Y-83574019D01*
X88212664Y-83618891D01*
X87900441Y-83618891D01*
X87908199Y-83578481D01*
X87928080Y-83476104D01*
G37*
G36*
X87637053Y-81796290D02*
G01*
X87731234Y-81797158D01*
X87804346Y-81799059D01*
X87859555Y-81802365D01*
X87900025Y-81807446D01*
X87928923Y-81814674D01*
X87949411Y-81824422D01*
X87964657Y-81837060D01*
X87975355Y-81849697D01*
X87983697Y-81862492D01*
X87988927Y-81877826D01*
X87990694Y-81899337D01*
X87988647Y-81930665D01*
X87982435Y-81975448D01*
X87971707Y-82037325D01*
X87956111Y-82119935D01*
X87942517Y-82189962D01*
X87891057Y-82453689D01*
X87736485Y-82453689D01*
X87666690Y-82452987D01*
X87620389Y-82450569D01*
X87593704Y-82445968D01*
X87582755Y-82438714D01*
X87581912Y-82435023D01*
X87584534Y-82415007D01*
X87591685Y-82374017D01*
X87602292Y-82317902D01*
X87615284Y-82252510D01*
X87616163Y-82248187D01*
X87629216Y-82183199D01*
X87639978Y-82127912D01*
X87647390Y-82087885D01*
X87650395Y-82068679D01*
X87650413Y-82068202D01*
X87637537Y-82063924D01*
X87602204Y-82060337D01*
X87549352Y-82057748D01*
X87483922Y-82056468D01*
X87461573Y-82056386D01*
X87272734Y-82056386D01*
X87235770Y-82243958D01*
X87221083Y-82320848D01*
X87212035Y-82375446D01*
X87208231Y-82412185D01*
X87209275Y-82435501D01*
X87214770Y-82449827D01*
X87217098Y-82452885D01*
X87277550Y-82523836D01*
X87342707Y-82600958D01*
X87409896Y-82681025D01*
X87476447Y-82760810D01*
X87539690Y-82837089D01*
X87596952Y-82906636D01*
X87645563Y-82966225D01*
X87682853Y-83012631D01*
X87706149Y-83042627D01*
X87710895Y-83049225D01*
X87732804Y-83089387D01*
X87745243Y-83127463D01*
X87746314Y-83137943D01*
X87743675Y-83161766D01*
X87736292Y-83207969D01*
X87724961Y-83272097D01*
X87710480Y-83349698D01*
X87693647Y-83436316D01*
X87686321Y-83473046D01*
X87664823Y-83581211D01*
X87646179Y-83669013D01*
X87627407Y-83738567D01*
X87605523Y-83791986D01*
X87577544Y-83831386D01*
X87540486Y-83858880D01*
X87491366Y-83876585D01*
X87427200Y-83886613D01*
X87345005Y-83891081D01*
X87241798Y-83892102D01*
X87114594Y-83891791D01*
X87095559Y-83891762D01*
X86963188Y-83891059D01*
X86855555Y-83889264D01*
X86773290Y-83886399D01*
X86717018Y-83882490D01*
X86687368Y-83877558D01*
X86684555Y-83876380D01*
X86660166Y-83861178D01*
X86642324Y-83843631D01*
X86630955Y-83820392D01*
X86625986Y-83788118D01*
X86627342Y-83743462D01*
X86634951Y-83683080D01*
X86648739Y-83603627D01*
X86668631Y-83501757D01*
X86675540Y-83467497D01*
X86726865Y-83214045D01*
X86885426Y-83210201D01*
X87043987Y-83206356D01*
X87005287Y-83395152D01*
X86991187Y-83465418D01*
X86979297Y-83527471D01*
X86970658Y-83575669D01*
X86966310Y-83604370D01*
X86965998Y-83608309D01*
X86967798Y-83618018D01*
X86976549Y-83624584D01*
X86996448Y-83628467D01*
X87031689Y-83630127D01*
X87086469Y-83630024D01*
X87153310Y-83628860D01*
X87341212Y-83625048D01*
X87421052Y-83221794D01*
X87162405Y-82913358D01*
X87091041Y-82827245D01*
X87026962Y-82747949D01*
X86972307Y-82678247D01*
X86929213Y-82620918D01*
X86899817Y-82578737D01*
X86886281Y-82554557D01*
X86880847Y-82535186D01*
X86878296Y-82513126D01*
X86879099Y-82484356D01*
X86883726Y-82444855D01*
X86892648Y-82390604D01*
X86906336Y-82317583D01*
X86925202Y-82222062D01*
X86943214Y-82134729D01*
X86960889Y-82054045D01*
X86977096Y-81984807D01*
X86990701Y-81931808D01*
X87000574Y-81899844D01*
X87002177Y-81896015D01*
X87035732Y-81853400D01*
X87080608Y-81824089D01*
X87099324Y-81815787D01*
X87119439Y-81809304D01*
X87144442Y-81804417D01*
X87177827Y-81800902D01*
X87223084Y-81798537D01*
X87283706Y-81797097D01*
X87363185Y-81796360D01*
X87465011Y-81796102D01*
X87518638Y-81796084D01*
X87637053Y-81796290D01*
G37*
G36*
X82105905Y-92970268D02*
G01*
X82507944Y-92970567D01*
X82912596Y-92971093D01*
X83316111Y-92971843D01*
X83714743Y-92972811D01*
X84104741Y-92973993D01*
X84482357Y-92975383D01*
X84843842Y-92976977D01*
X85185447Y-92978769D01*
X85503423Y-92980756D01*
X85794022Y-92982931D01*
X86053495Y-92985290D01*
X86278092Y-92987829D01*
X86464066Y-92990541D01*
X86607666Y-92993423D01*
X86705145Y-92996470D01*
X86752754Y-92999676D01*
X86753206Y-92999747D01*
X87107010Y-93083124D01*
X87447419Y-93214216D01*
X87764982Y-93388416D01*
X88050249Y-93601119D01*
X88123883Y-93667736D01*
X88361329Y-93925716D01*
X88550854Y-94203801D01*
X88691141Y-94498143D01*
X88780870Y-94804894D01*
X88818722Y-95120208D01*
X88803377Y-95440235D01*
X88779637Y-95580564D01*
X88683427Y-95914902D01*
X88538978Y-96223749D01*
X88347902Y-96505076D01*
X88111813Y-96756853D01*
X87832324Y-96977052D01*
X87527728Y-97155320D01*
X87265397Y-97287275D01*
X87596600Y-97741210D01*
X87775008Y-97986112D01*
X87947539Y-98223675D01*
X88111288Y-98449847D01*
X88263349Y-98660576D01*
X88400817Y-98851810D01*
X88520787Y-99019498D01*
X88620355Y-99159587D01*
X88696614Y-99268025D01*
X88746660Y-99340761D01*
X88767588Y-99373742D01*
X88768041Y-99375093D01*
X88741611Y-99378732D01*
X88666788Y-99382000D01*
X88550281Y-99384785D01*
X88398794Y-99386974D01*
X88219033Y-99388454D01*
X88017705Y-99389111D01*
X87934690Y-99389121D01*
X87101339Y-99388482D01*
X86883277Y-99065422D01*
X86715587Y-98816775D01*
X86541820Y-98558729D01*
X86364635Y-98295258D01*
X86186688Y-98030335D01*
X86010637Y-97767937D01*
X85839140Y-97512038D01*
X85674853Y-97266611D01*
X85520435Y-97035633D01*
X85378543Y-96823076D01*
X85251833Y-96632917D01*
X85142964Y-96469128D01*
X85054593Y-96335686D01*
X84989377Y-96236565D01*
X84949973Y-96175738D01*
X84938757Y-96157075D01*
X84965178Y-96153306D01*
X85039933Y-96149295D01*
X85156261Y-96145234D01*
X85307399Y-96141314D01*
X85486587Y-96137729D01*
X85687061Y-96134670D01*
X85758334Y-96133791D01*
X86006095Y-96130727D01*
X86205911Y-96127046D01*
X86364933Y-96121459D01*
X86490310Y-96112677D01*
X86589192Y-96099412D01*
X86668727Y-96080377D01*
X86736066Y-96054282D01*
X86798359Y-96019839D01*
X86862754Y-95975761D01*
X86935085Y-95921752D01*
X87080295Y-95780103D01*
X87182677Y-95612702D01*
X87242230Y-95428457D01*
X87258954Y-95236279D01*
X87232849Y-95045077D01*
X87163916Y-94863759D01*
X87052154Y-94701236D01*
X86935085Y-94593124D01*
X86864619Y-94540317D01*
X86802967Y-94497571D01*
X86743433Y-94463761D01*
X86679323Y-94437757D01*
X86603942Y-94418434D01*
X86510594Y-94404662D01*
X86392587Y-94395316D01*
X86243223Y-94389267D01*
X86055810Y-94385388D01*
X85823652Y-94382552D01*
X85675688Y-94381041D01*
X85459008Y-94379200D01*
X85261015Y-94378213D01*
X85088152Y-94378058D01*
X84946865Y-94378711D01*
X84843597Y-94380151D01*
X84784792Y-94382355D01*
X84773464Y-94384185D01*
X84781971Y-94415187D01*
X84803518Y-94479616D01*
X84816743Y-94517044D01*
X84899375Y-94824123D01*
X84932885Y-95141557D01*
X84916343Y-95456739D01*
X84895255Y-95580564D01*
X84799045Y-95914902D01*
X84654596Y-96223749D01*
X84463520Y-96505076D01*
X84227431Y-96756853D01*
X83947942Y-96977052D01*
X83643346Y-97155320D01*
X83381015Y-97287275D01*
X83712218Y-97741210D01*
X83890626Y-97986112D01*
X84063157Y-98223675D01*
X84226906Y-98449847D01*
X84378967Y-98660576D01*
X84516435Y-98851810D01*
X84636405Y-99019498D01*
X84735973Y-99159587D01*
X84812232Y-99268025D01*
X84862279Y-99340761D01*
X84883207Y-99373742D01*
X84883660Y-99375093D01*
X84857229Y-99378732D01*
X84782407Y-99382000D01*
X84665899Y-99384785D01*
X84514412Y-99386974D01*
X84334651Y-99388454D01*
X84133323Y-99389111D01*
X84050308Y-99389121D01*
X83216957Y-99388482D01*
X82998895Y-99065422D01*
X82831205Y-98816775D01*
X82657438Y-98558729D01*
X82480253Y-98295258D01*
X82302306Y-98030335D01*
X82126255Y-97767937D01*
X81954758Y-97512038D01*
X81790472Y-97266611D01*
X81636053Y-97035633D01*
X81494161Y-96823076D01*
X81367451Y-96632917D01*
X81258582Y-96469128D01*
X81170211Y-96335686D01*
X81104995Y-96236565D01*
X81065592Y-96175738D01*
X81054375Y-96157075D01*
X81080796Y-96153306D01*
X81155552Y-96149295D01*
X81271879Y-96145234D01*
X81423018Y-96141314D01*
X81602205Y-96137729D01*
X81802680Y-96134670D01*
X81873952Y-96133791D01*
X82121713Y-96130727D01*
X82321529Y-96127046D01*
X82480551Y-96121459D01*
X82605928Y-96112677D01*
X82704810Y-96099412D01*
X82784346Y-96080377D01*
X82851685Y-96054282D01*
X82913977Y-96019839D01*
X82978372Y-95975761D01*
X83050703Y-95921752D01*
X83195914Y-95780103D01*
X83298295Y-95612702D01*
X83357848Y-95428457D01*
X83374572Y-95236279D01*
X83348467Y-95045077D01*
X83279534Y-94863759D01*
X83167772Y-94701236D01*
X83050703Y-94593124D01*
X82994030Y-94549906D01*
X82944480Y-94513287D01*
X82897149Y-94482679D01*
X82847130Y-94457495D01*
X82789517Y-94437148D01*
X82719405Y-94421050D01*
X82631887Y-94408614D01*
X82522057Y-94399252D01*
X82385010Y-94392378D01*
X82215839Y-94387404D01*
X82009639Y-94383742D01*
X81761503Y-94380805D01*
X81466526Y-94378006D01*
X81236121Y-94375876D01*
X79778713Y-94362102D01*
X79343442Y-93732086D01*
X79227844Y-93565281D01*
X79120700Y-93411644D01*
X79026498Y-93277536D01*
X78949727Y-93169314D01*
X78894873Y-93093340D01*
X78866427Y-93055971D01*
X78865546Y-93054971D01*
X78831944Y-93010692D01*
X78822922Y-92989379D01*
X78849846Y-92986266D01*
X78928117Y-92983444D01*
X79053988Y-92980910D01*
X79223709Y-92978657D01*
X79433532Y-92976682D01*
X79679707Y-92974979D01*
X79958486Y-92973543D01*
X80266120Y-92972370D01*
X80598860Y-92971454D01*
X80952957Y-92970791D01*
X81324663Y-92970375D01*
X81710229Y-92970203D01*
X82105905Y-92970268D01*
G37*
D14*
%TO.C,J2*%
X72159000Y-83011000D02*
X59159000Y-83011000D01*
X59159000Y-83011000D02*
X59159000Y-93011000D01*
X59159000Y-93011000D02*
X72159000Y-93011000D01*
X72159000Y-93011000D02*
X72159000Y-83011000D01*
%TO.C,C4*%
X76099000Y-91932248D02*
X76099000Y-92454752D01*
X77569000Y-91932248D02*
X77569000Y-92454752D01*
D12*
%TO.C,J3*%
X90532500Y-98442000D02*
X90532500Y-98262000D01*
X94832500Y-98442000D02*
X94562500Y-98442000D01*
X90532500Y-91042000D02*
X92287500Y-91042000D01*
X90532500Y-98442000D02*
X92287500Y-98442000D01*
X94832500Y-98442000D02*
X94832500Y-91042000D01*
X94562500Y-91042000D02*
X94832500Y-91042000D01*
X90532500Y-91042000D02*
X90532500Y-91222000D01*
D13*
X89382500Y-96092000D02*
G75*
G03*
X89382500Y-96092000I-100000J0D01*
G01*
D14*
%TO.C,R2*%
X79512936Y-100230000D02*
X79967064Y-100230000D01*
X79512936Y-101700000D02*
X79967064Y-101700000D01*
%TO.C,R1*%
X79512936Y-105510000D02*
X79967064Y-105510000D01*
X79512936Y-104040000D02*
X79967064Y-104040000D01*
%TO.C,C1*%
X77570000Y-100188752D02*
X77570000Y-99666248D01*
X76100000Y-100188752D02*
X76100000Y-99666248D01*
D12*
%TO.C,U2*%
X87674000Y-91776000D02*
X83774000Y-91776000D01*
X87674000Y-86726000D02*
X83774000Y-86726000D01*
D13*
X89864000Y-91556000D02*
G75*
G03*
X89864000Y-91556000I-100000J0D01*
G01*
D14*
%TO.C,J1*%
X72160000Y-96600000D02*
X59160000Y-96600000D01*
X59160000Y-96600000D02*
X59160000Y-106600000D01*
X59160000Y-106600000D02*
X72160000Y-106600000D01*
X72160000Y-106600000D02*
X72160000Y-96600000D01*
%TO.C,C3*%
X77570000Y-105551248D02*
X77570000Y-106073752D01*
X76100000Y-105551248D02*
X76100000Y-106073752D01*
%TO.C,C2*%
X76099000Y-86569752D02*
X76099000Y-86047248D01*
X77569000Y-86569752D02*
X77569000Y-86047248D01*
%TO.C,D4*%
X77876000Y-84145000D02*
X80736000Y-84145000D01*
X80736000Y-84145000D02*
X80736000Y-82225000D01*
X80736000Y-82225000D02*
X77876000Y-82225000D01*
%TO.C,R4*%
X79511936Y-88081000D02*
X79966064Y-88081000D01*
X79511936Y-86611000D02*
X79966064Y-86611000D01*
D11*
%TO.C,D1*%
X74530000Y-104170000D02*
X75530000Y-104170000D01*
X75530000Y-104170000D02*
X75530000Y-103370000D01*
X75530000Y-102370000D02*
X75530000Y-101570000D01*
X74530000Y-101570000D02*
X74530000Y-104170000D01*
X75530000Y-101570000D02*
X74530000Y-101570000D01*
D14*
%TO.C,D3*%
X75803000Y-82225000D02*
X72943000Y-82225000D01*
X72943000Y-84145000D02*
X75803000Y-84145000D01*
X72943000Y-82225000D02*
X72943000Y-84145000D01*
%TO.C,R3*%
X79511936Y-91891000D02*
X79966064Y-91891000D01*
X79511936Y-90421000D02*
X79966064Y-90421000D01*
D11*
%TO.C,D2*%
X75529000Y-87951000D02*
X74529000Y-87951000D01*
X74529000Y-90551000D02*
X75529000Y-90551000D01*
X74529000Y-87951000D02*
X74529000Y-90551000D01*
X75529000Y-90551000D02*
X75529000Y-89751000D01*
X75529000Y-88751000D02*
X75529000Y-87951000D01*
%TD*%
M02*
